<?xml version="1.0" standalone="no"?>
<!DOCTYPE svg PUBLIC "-//W3C//DTD SVG 1.1//EN" "http://www.w3.org/Graphics/SVG/1.1/DTD/svg11.dtd" >
<svg>
<metadata>
Created by FontForge 20120731 at Mon Dec  7 09:48:15 2015
 By root
AzBuki press 1991
</metadata>
<defs>
<font id="PalatinoBold" horiz-adv-x="754" >
  <font-face 
    font-family="Palatino"
    font-weight="700"
    font-stretch="normal"
    units-per-em="2048"
    panose-1="2 2 8 0 0 0 0 0 0 0"
    ascent="1638"
    descent="-410"
    x-height="831"
    cap-height="1233"
    bbox="0 -471 1917 1606"
    underline-thickness="74"
    underline-position="-95"
    unicode-range="U+0020-2219"
  />
<missing-glyph horiz-adv-x="1536" 
d="M256 0v1280h1024v-1280h-1024zM1247 33v1214h-958v-1214h958z" />
    <glyph glyph-name=".notdef" horiz-adv-x="1536" 
d="M256 0v1280h1024v-1280h-1024zM1247 33v1214h-958v-1214h958z" />
    <glyph glyph-name=".null" horiz-adv-x="0" 
 />
    <glyph glyph-name="nonmarkingreturn" horiz-adv-x="0" 
 />
    <glyph glyph-name="space" unicode=" " horiz-adv-x="795" 
 />
    <glyph glyph-name="exclam" unicode="!" horiz-adv-x="504" 
d="M324 -16q-33 0 -63.5 19.5t-49 50.5t-18.5 65q0 52 40 93.5t91 41.5q34 0 65.5 -19t50.5 -50.5t19 -65.5q0 -54 -41.5 -94.5t-93.5 -40.5zM221 909q-28 147 -28 197q0 37 12 49q17 22 62.5 40t96 28t78.5 10l17 -12q-7 -115 -17 -177l-82 -647l-49 -37h-20
q-13 97 -19.5 151.5t-15.5 135t-18 147.5t-17 115z" />
    <glyph glyph-name="quotedbl" unicode="&#x22;" horiz-adv-x="618" 
d="M213 750h-33l-65 405q0 4 -2 14t-2 11q0 49 26 77.5t60 28.5t60 -29.5t26 -76.5q0 -5 -2 -13t-2 -12zM508 750h-33l-65 405q0 4 -2 14t-2 11q0 49 26 75.5t60 26.5q32 0 56.5 -27.5t24.5 -74.5v-25z" />
    <glyph glyph-name="numbersign" unicode="#" horiz-adv-x="467" 
d="M688 1282h160l-135 -381h233l139 381h160l-139 -381h258l-53 -147h-254l-82 -234h270l-53 -143h-270l-136 -381h-159l135 381h-234l-135 -381h-164l136 381h-263l54 143h262l82 234h-283l57 147h279zM655 754l-82 -234h242l82 234h-242z" />
    <glyph glyph-name="dollar" unicode="$" horiz-adv-x="926" 
d="M422 -209q4 66 4 193q-203 0 -344 65q20 157 20 291h70q2 -98 23.5 -154t75 -83t155.5 -33v430q-108 19 -183.5 54t-120 102t-44.5 171q0 97 45.5 179.5t125 134t177.5 63.5v107h90v-107q157 0 291 -61q-4 -43 -12.5 -123.5t-8.5 -134.5h-69q0 71 -12 139q-67 83 -189 90
v-393q175 -28 268 -98t93 -234q0 -106 -46 -193t-128.5 -142.5t-186.5 -69.5v-193h-94zM516 487v-413q80 9 126 70.5t46 146.5q0 86 -42.5 129.5t-129.5 66.5zM426 737v377q-70 0 -111 -64.5t-41 -136.5q0 -67 44 -121.5t108 -54.5z" />
    <glyph glyph-name="percent" unicode="%" horiz-adv-x="1446" 
d="M315 -164l664 1225q-107 -37 -160 -37q-56 0 -119 29q17 -38 17 -103q0 -72 -28.5 -147t-78 -130t-110.5 -75q-39 -16 -94 -16q-39 0 -74 10.5t-70 34.5q-74 63 -74 180q0 30 9 86q18 95 73 175t136 112q40 20 102 20q91 0 160 -57q68 -62 155 -62q48 0 99 21
q107 44 188 196h102l-798 -1462h-99zM578 1126h-25q-104 0 -168 -213q-25 -89 -25 -143q0 -60 23 -91.5t59 -31.5q50 0 105 57.5t84 159.5q20 82 20 140q0 107 -73 122zM1286 262q4 16 11 47t10.5 52.5t3.5 44.5q0 44 -18 77t-56 41q-8 4 -29 4q-103 0 -168 -217
q-24 -85 -24 -143q0 -60 23 -91.5t59 -31.5q49 0 105.5 59.5t82.5 157.5zM987 532q37 31 87 48.5t102 17.5q61 0 113.5 -28.5t78.5 -82.5q21 -56 21 -106q0 -106 -56 -214.5t-133 -154.5q-49 -32 -131 -32q-141 0 -201 102q-28 52 -28 119q0 88 44 183.5t103 147.5z" />
    <glyph glyph-name="ampersand" unicode="&#x26;" horiz-adv-x="1544" 
d="M1487 180q-85 -104 -176 -184q-37 -8 -111 -8q-77 0 -144 26t-167 84q-162 -108 -340 -114q-176 0 -270 57q-69 46 -110.5 122t-41.5 161q0 48 12 86q14 62 54 112t91.5 85.5t121.5 68.5q-54 121 -54 205q0 70 29 127t78 107.5t110.5 84t122.5 33.5h17q53 0 93.5 -27
t63.5 -70.5t23 -91.5q0 -39 -21 -86q-16 -42 -44 -77.5t-56.5 -60.5t-71 -57t-90.5 -67q65 -91 116 -154t115 -128.5t138 -122.5q61 114 61 192q0 48 -24 77.5t-94 29.5q-16 0 -45 -2t-37 -2q32 75 41 114h73q110 0 264 6.5t236 10.5q-27 -100 -33 -139q-86 8 -254 8v-37
q0 -150 -119 -303q141 -89 259 -94q39 0 66.5 15.5t84.5 57.5zM438 602q-102 -67 -102 -180q0 -81 65 -184q97 -140 234 -140q40 0 84 14t100 40q-73 67 -142 139t-129 150t-110 161zM524 1069q-16 -50 -16 -86q0 -89 65 -213q58 42 91.5 74.5t52.5 73.5q16 48 16 90
q0 87 -61 114q-26 8 -49 8q-32 0 -59 -15.5t-40 -45.5z" />
    <glyph glyph-name="quotesingle" unicode="'" horiz-adv-x="328" 
d="M213 750h-33l-65 405q0 4 -2 14t-2 11q0 49 26 77.5t60 28.5t60 -29.5t26 -76.5q0 -5 -2 -13t-2 -12z" />
    <glyph glyph-name="parenleft" unicode="(" horiz-adv-x="618" 
d="M565 -369l-45 -45q-183 154 -280 375.5t-97 460.5q0 120 24 235t72 225t118 206.5t163 177.5l45 -49q-64 -85 -103 -180.5t-56.5 -191t-23 -198t-5.5 -225.5q0 -122 5 -223.5t23 -197.5t56.5 -189.5t103.5 -180.5z" />
    <glyph glyph-name="parenright" unicode=")" horiz-adv-x="578" 
d="M102 -369q86 113 128.5 238t53.5 249.5t11 303.5q0 181 -11 306.5t-53.5 250.5t-128.5 238l50 49q124 -106 208 -238t126 -284.5t42 -321.5t-42 -320t-126.5 -283t-207.5 -233z" />
    <glyph glyph-name="asterisk" unicode="*" horiz-adv-x="791" 
d="M393 881l-180 -189h-29q-29 66 -69 127l12 29l233 90l-237 106l-4 21q41 59 74 131l20 4l188 -209l25 250l12 12q87 -26 160 -36l8 -21l-143 -233l246 61l24 -8v-41q0 -45 8 -119l-20 -16l-266 61l131 -209l-4 -24q-75 -25 -144 -70l-16 12z" />
    <glyph glyph-name="plus" unicode="+" horiz-adv-x="1368" 
d="M717 1069h147v-459h451v-147h-451v-463h-147v463h-455v147h455v459z" />
    <glyph glyph-name="comma" unicode="," horiz-adv-x="504" 
d="M160 -283l-99 -36l-28 20q69 137 106.5 251t57.5 253q109 11 241 53l8 -29q-127 -260 -286 -512z" />
    <glyph glyph-name="hyphen" unicode="-" horiz-adv-x="655" 
d="M53 319l66 193h487l-69 -193h-484z" />
    <glyph glyph-name="period" unicode="." horiz-adv-x="446" 
d="M135 123q0 47 41 89t90 42q53 0 92 -41t39 -90q0 -53 -39 -94t-92 -41q-31 0 -62 19t-50 50.5t-19 65.5z" />
    <glyph glyph-name="slash" unicode="/" horiz-adv-x="713" 
d="M33 -164l540 1516h99l-541 -1516h-98z" />
    <glyph glyph-name="zero" unicode="0" horiz-adv-x="926" 
d="M90 586q4 175 29.5 299t109.5 213q33 35 78 59t95 35.5t98 11.5q32 0 98 -8q171 -34 220.5 -189t49.5 -380q0 -172 -32 -313t-124.5 -235.5t-260.5 -94.5q-112 0 -185 49t-111.5 131t-51.5 179t-13 202v41zM471 1126q-172 -5 -172 -364q0 -18 2 -47t2 -39
q0 -167 9.5 -295.5t47.5 -220.5q40 -99 127 -99q44 0 75.5 22t47.5 60q41 91 41 340v49q0 98 -2 165t-9 138.5t-22 135.5q-18 71 -51.5 113t-95.5 42z" />
    <glyph glyph-name="one" unicode="1" horiz-adv-x="713" 
d="M111 0v82q6 -2 19.5 -5t29.5 -3q40 0 69 33.5t29 121.5v762q0 45 -41 49h-8q-21 0 -71.5 -29.5t-55.5 -31.5l-29 65q7 4 116 60.5t187.5 98.5t159.5 91v-1085q0 -139 111 -139q12 0 24 3t17 5v-78h-557z" />
    <glyph glyph-name="two" unicode="2" horiz-adv-x="946" 
d="M0 0h78v98q58 55 147.5 140t171 179.5t137.5 195t56 190.5q0 83 -41 135q-22 37 -63 55.5t-89 18.5q-63 0 -110 -25q-27 -13 -45 -34t-28 -46t-17 -56.5t-13 -59.5h-61q18 155 24 303q143 110 324 110q75 0 148.5 -30.5t125 -85.5t66.5 -130q4 -20 4 -69q0 -115 -74 -230
q-21 -34 -52 -72t-61 -68.5t-51 -50.5t-61 -58q-32 -33 -89.5 -90.5t-107.5 -110.5q16 0 108 -4t151 -4q160 0 200 20q24 13 36.5 38t20.5 59t13 59h49q-29 -223 -29 -377q-262 8 -397 8q-56 0 -193.5 -2.5t-277.5 -5.5z" />
    <glyph glyph-name="three" unicode="3" horiz-adv-x="889" 
d="M78 33q8 49 17 129.5t20 169.5h45q7 -88 47.5 -153t116.5 -89q42 -12 82 -12q58 0 108.5 24t75.5 70q37 63 37 143q0 57 -22.5 109t-63.5 80q-66 41 -156 41q-48 0 -90 -13l-12 9q12 45 28 135q90 0 144.5 14t85.5 68q32 38 32 106q0 54 -24 90q-16 23 -43 40.5
t-57.5 25.5t-59.5 8q-3 0 -14 -2t-19 -2q-75 -11 -110.5 -56t-52.5 -124h-66q45 212 53 274q55 37 133 59.5t158 22.5q183 0 258 -98q49 -55 49 -148q0 -58 -28 -114q-45 -86 -168 -148q88 -16 145.5 -55t85 -94t27.5 -117q0 -75 -37 -153t-106 -144t-164 -105.5t-205 -39.5
q-136 0 -250 49z" />
    <glyph glyph-name="four" unicode="4" horiz-adv-x="926" 
d="M291 0v74q101 0 136.5 5.5t47.5 28.5t12 80v115q-69 -1 -139.5 -2.5t-141 -2.5t-140.5 -3l-13 74q62 140 130 272.5t147 265.5t162 252q140 24 217 41l16 -20q-12 -264 -12 -529v-205q102 0 155 5q0 -15 -2 -46t-2 -45q0 -9 2 -30t2 -31q-27 0 -79 2t-76 2q0 -8 -2 -40
t-2 -50q0 -61 8 -111q11 -32 114 -32q11 0 24 2l13 2v-74q-82 4 -245 4q-222 0 -332 -4zM496 725l20 336q-95 -153 -176 -304t-156 -311h312v279z" />
    <glyph glyph-name="five" unicode="5" horiz-adv-x="889" 
d="M94 29q17 200 17 282l49 8q10 -90 48.5 -148t119.5 -85q48 -8 78 -8q79 0 139 48t78 128q8 58 8 78q0 72 -33.5 129t-88.5 87t-120 30q-49 0 -98.5 -17t-93.5 -53l-33 8q8 107 8 320q0 196 -4 294l41 50q50 0 116 -4.5t101 -4.5q108 0 369 17q0 -14 -2 -46t-2 -48t2 -52
t2 -55q-42 0 -133 -2t-134 -2t-130 2t-132 2q-8 -188 -8 -291q121 54 246 54q89 0 165.5 -32.5t123.5 -101t47 -170.5q0 -130 -76.5 -239t-198.5 -170.5t-250 -61.5q-119 0 -221 54z" />
    <glyph glyph-name="six" unicode="6" horiz-adv-x="946" 
d="M344 311q8 -102 45.5 -178t118.5 -76q59 0 100 37t60.5 94t19.5 115v25q-5 64 -25.5 123.5t-61.5 99t-101 39.5q-83 0 -121.5 -65t-38.5 -156q0 -11 2 -30t2 -28zM745 1200q33 -24 99 -82l-21 -20q-62 20 -110 20q-82 0 -152 -45q-201 -133 -209 -467q11 7 61 45t88.5 58
t76.5 24h28q44 0 88 -11t83.5 -35.5t66.5 -59.5q57 -75 57 -201q0 -79 -24 -147q-18 -69 -58.5 -126.5t-98.5 -96.5t-130 -56q-49 -16 -119 -16q-57 0 -110.5 14.5t-102.5 46.5q-57 45 -90 109t-47.5 136.5t-14.5 151.5q0 39 9 131q15 128 67 239t135.5 198t193.5 138
t234 52z" />
    <glyph glyph-name="seven" unicode="7" horiz-adv-x="946" 
d="M201 0l-8 33q54 93 143.5 238t149.5 243t123.5 216t111.5 233h-414q-72 0 -86 -33q-12 -22 -17.5 -52t-7.5 -72t-3 -61h-70v181q0 172 -4 254q87 0 142 -1t109.5 -2t141.5 -1q63 0 194 2t195 2v-95q-80 -145 -146.5 -277.5t-122 -251.5t-118 -267.5t-113.5 -288.5
q-32 4 -102 4q-66 0 -98 -4z" />
    <glyph glyph-name="eight" unicode="8" horiz-adv-x="926" 
d="M303 590q-90 48 -135 109t-45 157q0 97 56 176.5t145 125.5t180 46q93 0 166.5 -33.5t113 -90t39.5 -122.5q0 -71 -44.5 -142t-131.5 -128q70 -31 121 -70t80 -97t29 -136q0 -109 -60 -201t-164 -146t-223 -54q-94 0 -171.5 34.5t-125 103t-47.5 165.5q0 98 58.5 171.5
t158.5 131.5zM385 553q-62 -37 -92.5 -100.5t-30.5 -137.5q0 -63 25.5 -122.5t72 -95.5t107.5 -36q16 0 86 17q58 25 90.5 81.5t32.5 123.5q0 59 -25 102q-17 29 -47 53.5t-67 44t-78.5 38t-73.5 32.5zM561 721q103 81 103 225q0 77 -54.5 122.5t-134.5 45.5
q-69 0 -118.5 -49.5t-49.5 -118.5q0 -59 39 -100.5t84 -65t131 -59.5z" />
    <glyph glyph-name="nine" unicode="9" horiz-adv-x="905" 
d="M127 61l20 17q58 -21 99 -21q94 0 184 70q64 50 104.5 122t59.5 152t24 177q-91 -100 -180 -127q-62 -13 -82 -13q-106 0 -172 66q-98 92 -98 262q0 36 8 86q10 77 49 148t100 120.5t138 67.5q61 12 115 12q118 0 201.5 -62t125 -171t41.5 -242q0 -146 -42.5 -279
t-126 -237t-205.5 -164t-273 -61q-14 12 -40 36t-50 41zM471 590q79 0 117.5 70.5t38.5 158.5v49q-8 90 -51 168t-125 78t-119 -78.5t-37 -179.5v-37q7 -90 51.5 -159.5t124.5 -69.5z" />
    <glyph glyph-name="colon" unicode=":" horiz-adv-x="483" 
d="M426 127q0 -54 -41.5 -94.5t-93.5 -40.5q-33 0 -63.5 19.5t-49 50.5t-18.5 65q0 51 40.5 93t90.5 42q52 0 93.5 -41.5t41.5 -93.5zM295 840q54 0 94.5 -41.5t40.5 -93.5q0 -50 -42 -93t-93 -43q-46 0 -86.5 43t-40.5 93q0 51 39.5 93t87.5 42z" />
    <glyph glyph-name="semicolon" unicode=";" horiz-adv-x="483" 
d="M168 705q0 51 39.5 93t87.5 42q54 0 94.5 -41.5t40.5 -93.5q0 -50 -42 -93t-93 -43q-46 0 -86.5 43t-40.5 93zM438 229q-30 -59 -60.5 -116.5t-75.5 -138.5t-81.5 -140.5t-73.5 -116.5l-98 -36l-24 20q64 131 103 246.5t56 253.5q85 8 246 57z" />
    <glyph glyph-name="less" unicode="&#x3c;" horiz-adv-x="1352" 
d="M1307 1032v-160l-820 -335l820 -332v-164l-1033 426v139z" />
    <glyph glyph-name="equal" unicode="=" horiz-adv-x="1368" 
d="M262 791h1053v-148h-1053v148zM262 283v147h1053v-147h-1053z" />
    <glyph glyph-name="greater" unicode="&#x3e;" horiz-adv-x="1352" 
d="M274 1032l1033 -426v-139l-1033 -426v164l820 332l-820 335v160z" />
    <glyph glyph-name="question" unicode="?" horiz-adv-x="848" 
d="M508 377l-115 -33q-65 46 -65 123q0 57 37 115q23 32 79 95.5t86.5 113.5t30.5 106q0 41 -8 61q-10 36 -36 60.5t-61 37.5t-71 13q-33 0 -49 -4q-55 -11 -79.5 -52t-51.5 -120l-58 16q37 143 58 246q112 82 262 82q86 0 162.5 -31.5t123 -91t46.5 -135.5q0 -34 -13 -70
q-11 -50 -46.5 -92t-81.5 -78t-103 -81.5t-88 -88.5q-25 -31 -25 -73q0 -67 66 -119zM283 123q0 34 18.5 65t49 50.5t63.5 19.5q52 0 93.5 -40.5t41.5 -94.5q0 -53 -41.5 -92t-93.5 -39q-51 0 -91 39t-40 92z" />
    <glyph glyph-name="at" unicode="@" horiz-adv-x="1737" 
d="M999 836q-98 -11 -168 -144.5t-98 -269.5q-16 -58 -16 -103q0 -76 45 -126q26 -33 78 -33q9 0 57 12q57 27 112.5 113t90.5 194t35 197q0 73 -28 116.5t-87 43.5h-21zM1077 287q-56 -86 -119 -133.5t-147 -47.5h-25q-110 13 -169.5 99t-59.5 201q0 3 2 16t2 20
q9 118 77 221.5t166 164.5t187 61q72 0 124 -41.5t69 -126.5l45 151h151l-151 -540q-12 -49 -12 -86q0 -86 73 -86q55 0 119 41q79 49 130.5 126t77 169.5t25.5 187.5v8q-1 137 -64 249.5t-173.5 183.5t-249.5 92q-74 8 -111 8q-107 0 -206 -28t-185 -78.5t-159 -126
t-121 -165.5q-86 -175 -86 -372q0 -94 22.5 -182t70.5 -167t120 -139q97 -80 218.5 -117.5t260.5 -37.5q153 0 299 45q115 45 254 135l29 -41q-112 -80 -217.5 -125t-241.5 -64q-90 -8 -144 -8q-161 0 -311.5 50t-265.5 155q-108 96 -162.5 226.5t-54.5 277.5
q0 154 60 302.5t173 258.5q62 62 134.5 109.5t155 80.5t166 48.5t171.5 15.5q26 0 82 -5t82 -7q149 -29 264 -110t179.5 -205t64.5 -275q0 -145 -57.5 -276.5t-168.5 -219.5q-106 -78 -208 -78q-71 0 -123 46.5t-62 138.5z" />
    <glyph glyph-name="A" unicode="A" horiz-adv-x="1425" 
d="M655 1245h123l271 -643q15 -35 43 -102.5t46 -109.5t50 -116q17 -39 34 -79t40 -76q16 -30 40 -37t74 -12v-70q-82 4 -250 4q-204 0 -303 -4v70q73 0 104 8t31 45q0 25 -12 61l-94 242h-410l-69 -184q-33 -85 -33 -119q0 -23 14.5 -34t40.5 -14t80 -5v-70q-61 4 -184 4
q-148 0 -217 -4v70q49 6 75 16t39.5 27.5t32 61.5t33.5 79q70 164 114 271t96.5 235t106 265t84.5 220zM475 520h344l-176 438z" />
    <glyph glyph-name="B" unicode="B" horiz-adv-x="1176" 
d="M172 0v41q38 21 78 53q0 22 2 67t2 68v754q0 89 -7 120t-34 41t-111 15v74q37 0 113 -4t113 -4q7 0 27 2t30 2q39 0 133 4t146 4q66 0 134 -6.5t115 -18.5q83 -24 125.5 -82.5t42.5 -138.5q0 -40 -12 -78q-17 -64 -63.5 -108t-102.5 -66.5t-141 -42.5
q155 -22 257.5 -93.5t102.5 -213.5q0 -88 -42.5 -166.5t-116.5 -132t-164 -74.5q-83 -16 -193 -16q-41 0 -123 4t-123 4q-32 0 -95 -4t-93 -4zM504 94q13 0 42 -2t44 -2q65 0 119 25q143 61 143 262q0 113 -42.5 168.5t-114 72.5t-191.5 17v-541zM504 725q97 0 166 16
t111 67t42 146q0 107 -58.5 146t-158.5 39q-61 0 -90 -4q-12 -123 -12 -148v-262z" />
    <glyph glyph-name="C" unicode="C" horiz-adv-x="1331" 
d="M1237 881h-66q-2 75 -9.5 120t-29.5 77t-67.5 54t-122.5 35q-65 9 -94 9q-162 0 -280 -92.5t-158 -256.5q-21 -86 -21 -168q0 -154 66 -294t188 -213q119 -70 266 -70q77 0 197 33q43 13 160 65l24 -16q-18 -30 -61 -90q-168 -103 -438 -103q-156 0 -286 46.5t-224.5 144
t-133.5 244.5q-28 97 -28 208q0 195 97 350t280 236q150 66 323 66q189 0 451 -82q-28 -168 -33 -303z" />
    <glyph glyph-name="D" unicode="D" horiz-adv-x="1487" 
d="M156 0v41q47 31 73 53q9 101 9 135v799q0 60 -10 84.5t-36.5 33t-101.5 13.5v74q132 -8 205 -8q15 0 45 2t45 2q45 0 162 4t182 4q210 0 340 -29q90 -24 164 -77.5t122.5 -132.5t61.5 -171q13 -73 13 -139q0 -235 -115 -409q-81 -116 -198.5 -177.5t-250 -81.5
t-293.5 -20q-21 0 -64 2t-63 2h-90q-32 0 -100 -2t-100 -2zM492 307q0 -32 2 -98t2 -98q77 -13 151 -13q243 0 379.5 136.5t136.5 416.5q0 269 -128 376.5t-363 107.5q-115 0 -172 -9q-8 -90 -8 -139v-680z" />
    <glyph glyph-name="E" unicode="E" horiz-adv-x="1098" 
d="M143 0v41q54 26 86 53q9 101 9 135v754q-2 84 -4 108t-12.5 38t-38.5 20.5t-93 9.5v74q63 0 190 -2t191 -2q88 0 143 1t110 1.5t121 1t154 0.5l21 -25q-16 -164 -16 -245h-70q0 69 -12 143q-85 29 -234 29h-184q-8 -66 -8 -189v-254q14 0 64 -2t79 -2q102 0 152 12
q24 9 34.5 32t13 48t5.5 64h65q0 -37 -2 -111t-2 -110q0 -31 2 -90t2 -91h-65q-4 28 -8 59t-15.5 53.5t-34.5 31.5q-29 10 -94 13t-155 3h-41v-496h151q196 0 266 21q38 15 58 180h73q-20 -163 -20 -299q-82 -4 -238 -4h-356q-192 0 -287 -4z" />
    <glyph glyph-name="F" unicode="F" horiz-adv-x="1024" 
d="M0 0h82v74h16q90 0 111 16q29 25 29 262v627q0 139 -25 160q-14 11 -35 15.5t-48.5 6t-39.5 2.5v70q222 -8 332 -8q88 0 266 4t266 4l25 -25q-12 -129 -12 -258h-70q-7 99 -16 152q-109 28 -238 28q-98 0 -147 -4q0 -17 -2 -56t-2 -58v-328q10 0 46 -2t56 -2
q55 0 106 5.5t82 14.5q16 9 22 32t8 54.5t3 40.5h70q0 -31 -2 -98t-2 -102q0 -33 2 -98t2 -99h-74q-4 0 -4 12v25q0 44 -6 72.5t-31 38.5q-65 16 -168 16h-110v-365q2 -65 6 -92t18 -41t40 -18t87 -4h21v-74q-103 4 -312 4q-180 0 -352 -4z" />
    <glyph glyph-name="G" unicode="G" horiz-adv-x="1487" 
d="M1438 500v-62q-38 -8 -56.5 -17.5t-21.5 -35.5q-8 -74 -8 -115q0 -32 4 -97t4 -95q-292 -103 -549 -103h-78q-183 10 -321 86t-213.5 212.5t-75.5 320.5q1 169 63 299t166.5 211.5t238.5 121.5t286 40q118 0 238.5 -24t227.5 -71q-14 -83 -21.5 -150t-10.5 -140h-74
q0 79 -8.5 121.5t-41 74.5t-102.5 58q-111 41 -200 41q-91 0 -176 -30.5t-152.5 -91t-105.5 -149.5q-54 -120 -54 -266q0 -11 2 -33t2 -33q6 -92 36.5 -177t84 -154t129.5 -115q119 -66 250 -66q98 0 197 41q8 90 8 181q0 73 -4 98q-13 49 -144 49h-49v70q190 -8 287 -8
q78 0 242 8z" />
    <glyph glyph-name="H" unicode="H" horiz-adv-x="1524" 
d="M0 0h90v74q86 5 113.5 15.5t32 37.5t6.5 127v778q0 60 -9.5 85t-41 34.5t-101.5 11.5v70q82 -4 250 -4q205 0 303 4v-70q-69 -1 -100.5 -20t-39 -52.5t-7.5 -107.5v-270q188 -8 286 -8q91 0 287 8v315q0 65 -8.5 91t-40.5 35t-107 9v70q95 -4 279 -4t278 4v-70
q-68 -1 -101 -21.5t-41.5 -56.5t-8.5 -102v-729q0 -65 8.5 -101.5t41.5 -57t101 -21.5v-74q-94 4 -278 4q-180 0 -274 -4v74q71 2 103 10.5t40 33.5t8 87v397h-573v-348q0 -65 8.5 -101t40 -57t98.5 -22v-74q-90 4 -278 4q-181 0 -365 -4z" />
    <glyph glyph-name="I" unicode="I" horiz-adv-x="713" 
d="M0 0h111v74q69 1 100 10t39 31.5t8 77.5v839q0 61 -8.5 86.5t-37.5 35t-101 9.5v70q146 -8 225 -8q110 0 332 8v-70q-71 0 -103 -18.5t-40.5 -55t-8.5 -106.5v-729q0 -65 8.5 -100.5t41 -57t102.5 -22.5v-74q-95 4 -283 4q-184 0 -385 -4z" />
    <glyph glyph-name="J" unicode="J" horiz-adv-x="733" 
d="M25 -377v172l28 17q52 -66 123 -66h29q31 7 48 36.5t21.5 69.5t4.5 82v1098q0 60 -8.5 85t-39 34.5t-100.5 11.5v70q148 -8 221 -8q116 0 336 8v-70q-72 0 -104 -18.5t-39.5 -53t-7.5 -108.5v-741q0 -182 -47 -306.5t-179 -218.5q-126 -94 -278 -94h-8z" />
    <glyph glyph-name="K" unicode="K" horiz-adv-x="1425" 
d="M86 0v74q70 1 102.5 10t41 33t8.5 84v823q0 65 -9 92t-40 37t-107 10v70q82 -4 254 -4q205 0 307 4v-70q-68 -1 -101 -19.5t-41.5 -53.5t-8.5 -107v-336h20q144 140 238.5 234.5t183.5 191.5q48 55 63 81.5t15 78.5q57 -4 159 -4q107 0 160 4v-70q-54 -4 -94.5 -13.5
t-77.5 -35.5q-74 -56 -134.5 -111t-125 -117.5t-154.5 -148.5q161 -203 234 -286q69 -83 110.5 -133.5t82.5 -98t94 -100.5q44 -45 110 -45v-74q-65 4 -192 4q-107 0 -160 -4q-179 227 -276.5 347.5t-210.5 238.5h-45v-332q2 -95 6.5 -125t34 -41.5t110.5 -13.5v-74
q-90 4 -278 4q-185 0 -279 -4z" />
    <glyph glyph-name="L" unicode="L" horiz-adv-x="1118" 
d="M156 0v45q45 25 90 53q2 30 7 80t5 76v729q-2 78 -4.5 103.5t-15 41.5t-40 22t-87.5 9v74q94 -4 278 -4q193 0 287 4v-74q-76 -2 -109 -14t-42 -40t-9 -93v-897q108 -17 193 -17q146 0 249 45q10 46 22.5 98t18.5 83h70q-25 -167 -25 -320q-38 0 -116 -2t-117 -2t-117 2
t-116 2h-82q-57 0 -100 -0.5t-79 -1.5t-71 -1.5t-90 -0.5z" />
    <glyph glyph-name="M" unicode="M" horiz-adv-x="1810" 
d="M0 0h94v74h49q62 0 82 20q12 14 19 82.5t9.5 140t4.5 113.5l4 426v86q0 154 -24 188q-19 33 -103 33h-41v70q70 -4 217 -4q144 0 217 4q209 -501 414 -873q50 90 106 204t119 251q44 92 76.5 162t57.5 125.5t55 130.5q65 -4 200 -4q136 0 201 4v-70h-41q-62 0 -82 -24
q-24 -40 -24 -230v-622q0 -25 -2 -62t-2 -49q0 -44 9.5 -64.5t40 -29t97.5 -8.5v-74q-90 4 -274 4q-181 0 -275 -4v74q77 0 105.5 6t39.5 31t11 90v782q-197 -394 -283.5 -570.5t-191.5 -420.5h-62q-50 112 -110 242t-100 216.5t-117 252.5t-136 292h-12l12 -733
q0 -143 21 -168q18 -24 70 -24q8 0 25 2t24 2v-74q-140 8 -205 8q-21 0 -103.5 -2.5t-191.5 -5.5z" />
    <glyph glyph-name="N" unicode="N" horiz-adv-x="1524" 
d="M0 0h98v74h33q81 0 102 16q25 29 25 266l4 582v45q0 126 -24 156q-17 20 -82 20h-41q-1 0 -6 2t-7 2v70q62 -4 185 -4t184 4q335 -432 733 -889v664q0 125 -24 139q-21 12 -74 12h-41q-2 0 -6 2t-6 2v70q138 -8 209 -8q70 0 208 8v-70h-45q-61 0 -86 -24
q-20 -21 -20 -176q-12 -228 -12 -459q0 -262 12 -520q-27 2 -53.5 3.5t-51 4.5t-55.5 12q-29 12 -69 70q-74 86 -240.5 283.5t-288.5 348.5t-201 252l5 -622q0 -225 20 -246q16 -16 94 -16h33v-74q-70 4 -209 4q-135 0 -303 -4z" />
    <glyph glyph-name="O" unicode="O" horiz-adv-x="1487" 
d="M111 606q0 204 89.5 354.5t246.5 228t360 77.5q10 0 33 -2t32 -2q137 -6 244 -50t179 -120.5t109.5 -186t37.5 -246.5q0 -160 -48.5 -285.5t-142 -217t-223.5 -138.5t-287 -47q-198 0 -339.5 76t-216 219.5t-74.5 339.5zM528 1081q-143 -128 -143 -417q0 -140 39.5 -279
t127.5 -231.5t226 -92.5q145 0 233.5 82t124 209t35.5 271q0 92 -17 181.5t-58 171t-109 135t-164 65.5h-41q-147 0 -254 -95z" />
    <glyph glyph-name="P" unicode="P" horiz-adv-x="1139" 
d="M0 0h82v74h53q59 0 74 20q29 25 29 275v610q0 134 -21 156q-11 12 -32 17.5t-51.5 7.5t-43.5 3v70q54 0 165 -4t167 -4q20 0 61 2t62 2q25 0 84 2t92 2q72 0 135 -12.5t116.5 -41.5t85.5 -78.5t32 -121.5q0 -83 -38 -161t-104.5 -135t-148.5 -81q-82 -16 -127 -16
q-60 0 -99 16q-9 16 -14 27l-10 22l12 17h33q101 0 167 63t66 174q0 57 -17 102.5t-46.5 73.5t-72 43t-89.5 15q-39 0 -98 -9q-12 -85 -12 -167v-734q2 -65 6 -92t18 -41t40 -18t87 -4h21v-74q-99 4 -291 4q-193 0 -373 -4z" />
    <glyph glyph-name="Q" unicode="Q" horiz-adv-x="1487" 
d="M385 664q0 -138 39.5 -277.5t128 -232.5t225.5 -93q147 0 234.5 84t123 213t35.5 273q0 124 -33 242.5t-111.5 203t-203.5 99.5h-41q-147 0 -254 -95q-143 -128 -143 -417zM688 -25q-130 11 -233.5 60t-180.5 133.5t-118 196t-41 241.5q0 207 86 356t241.5 224.5
t364.5 75.5h65q187 -9 315 -86t191.5 -208t63.5 -300q0 -78 -12 -164q-20 -133 -81.5 -234t-155.5 -167.5t-208.5 -98t-247.5 -33.5q52 -13 118.5 -35t111.5 -38t112.5 -38t124.5 -36q58 -8 78 -8q58 0 160 41v-66q-121 -78 -221 -131h-4q-62 0 -130 16t-160.5 46t-127.5 40
q-155 45 -201 45q-77 0 -192 -81l-21 65q182 130 303 184z" />
    <glyph glyph-name="R" unicode="R" horiz-adv-x="1352" 
d="M0 0h111v74h45q63 0 77 24q21 41 21 340v451q0 8 0.5 15.5t1.5 19t1.5 26.5t0.5 37q0 127 -20 148q-14 13 -34.5 18t-50.5 7t-42 3v70q146 -8 229 -8q22 0 67 2t68 2q41 0 125 2t125 2h90q172 -8 246 -82q61 -67 61 -168q0 -94 -45 -164q-36 -56 -88.5 -92.5
t-136.5 -79.5l274 -418q22 -36 46.5 -75t51 -59t70.5 -21v-74q-30 0 -94 2t-94 2q-82 0 -127 -4l-315 487q-36 54 -103 136l12 32q139 0 218 78q35 35 54 83t19 97q0 46 -12 70q-52 152 -242 152q-21 0 -49 -2.5t-45 -2.5q-8 -114 -8 -167v-734q0 -61 10 -93.5t42 -47
t95 -14.5v-74q-82 4 -249 4q-197 0 -406 -4z" />
    <glyph glyph-name="S" unicode="S" horiz-adv-x="1081" 
d="M160 360h69q4 -41 9 -81t17.5 -75t39.5 -61q114 -86 254 -86q6 0 23 2t22 2q64 9 112 44.5t74.5 88t26.5 105.5q0 66 -37 120t-111 77q-48 16 -142.5 31t-152.5 32t-106 51q-57 45 -86 113t-29 145q0 55 13 103q21 78 64 132.5t106.5 91.5t136 54t155.5 17
q92 0 181.5 -20.5t158.5 -57.5q-18 -138 -24 -270h-66q-5 86 -11.5 123t-41.5 65q-35 34 -92.5 49.5t-116.5 15.5h-45q-85 -9 -140.5 -75.5t-55.5 -145.5q0 -63 37 -110.5t114 -69.5q45 -14 143 -30.5t154.5 -31.5t112.5 -53q56 -37 81 -102.5t25 -142.5q0 -37 -8 -103
q-27 -110 -106.5 -186.5t-190.5 -113t-235 -36.5q-208 0 -353 82q21 166 21 307z" />
    <glyph glyph-name="T" unicode="T" horiz-adv-x="1233" 
d="M352 0v74q70 2 102 10.5t41 31t9 81.5v831q0 62 -4 94h-94q-163 0 -213 -20q-15 -5 -21.5 -37t-8.5 -72.5t-3 -54.5h-74v66q0 155 -8 229q205 -4 610 -4q336 0 504 4q-16 -196 -16 -295h-74v41q0 114 -37 127q-55 16 -229 16h-74q0 -15 -2 -46t-2 -48v-831q0 -59 8.5 -82
t39.5 -31t107 -10v-74q-94 4 -282 4q-185 0 -279 -4z" />
    <glyph glyph-name="U" unicode="U" horiz-adv-x="1409" 
d="M78 1163v70q148 -8 221 -8q110 0 332 8v-70q-2 0 -6 -2t-7 -2h-28q-74 0 -90 -20q-21 -21 -21 -160q0 -29 2 -68t2 -43v-413q0 -171 73 -264t243 -93q101 0 179.5 39t111.5 117q36 73 36 274v422q0 160 -24 185q-24 28 -94 28h-41v70q138 -8 200 -8q71 0 201 8v-70
q-11 -1 -33.5 -2.5t-38 -4.5t-26.5 -13q-23 -14 -32 -73t-9 -136q0 -33 2 -79t2 -52v-287q0 -93 -4.5 -155t-25 -125.5t-64.5 -116.5q-115 -144 -422 -144q-125 0 -228 24.5t-174 94.5q-50 52 -68 136t-18 171v525q0 26 2 67t2 56q0 61 -27 81.5t-128 32.5z" />
    <glyph glyph-name="V" unicode="V" horiz-adv-x="1446" 
d="M811 -8h-127l-266 639q-29 81 -110 275.5t-107 223.5q-13 13 -34 20t-40 9t-49 4v70q74 -4 221 -4q58 0 174 2t174 2v-70q-74 0 -106.5 -8.5t-32.5 -44.5q0 -13 16 -61l299 -762l234 585q10 28 30 80t31.5 92.5t11.5 69.5v8q0 41 -102 41h-41v70q66 -4 205 -4
q135 0 205 4v-70q-15 -1 -31 -3.5t-29 -5.5t-26 -11q-21 -14 -37.5 -42t-29.5 -59t-27 -63q-70 -164 -121 -287.5t-93.5 -227t-92 -226.5t-99.5 -246z" />
    <glyph glyph-name="W" unicode="W" horiz-adv-x="1851" 
d="M918 860q-238 -556 -353 -868h-135q-29 153 -119 586q-18 87 -39.5 189t-44 189t-43.5 142q-13 39 -39 48t-79 13v74q172 -8 258 -8t258 8v-70h-33q-90 0 -90 -57v-8q2 -58 23.5 -162t25.5 -125q22 -96 35.5 -156.5l27 -121t35.5 -156.5q177 389 352 868h86
q39 -110 98.5 -266t126.5 -320t115 -274q26 96 55 204t44 177q15 62 31.5 135t27 127t10.5 86q0 30 -28.5 37.5t-77.5 7.5h-16q-3 0 -7 2t-6 2v70q35 0 108 -2t109 -2q24 0 79 2t81 2v-70h-20q-33 0 -50.5 -9.5t-27 -28.5t-21.5 -60q-44 -138 -80.5 -265.5t-75 -278.5
t-68.5 -272.5t-62 -256.5h-132q-51 135 -80 213t-81 212.5t-97.5 248t-80.5 194.5z" />
    <glyph glyph-name="X" unicode="X" horiz-adv-x="1253" 
d="M0 0h49v74q78 0 111 20q23 16 41.5 36.5t39.5 48.5t42 54q150 202 245 345q-56 102 -99.5 181.5t-72.5 129.5q-46 80 -85.5 132t-98.5 93l-94 12v58q20 3 50 9t93 21t82 19q13 2 37 9t37 7q20 0 29 -4q39 -16 92.5 -98.5t123 -214t74.5 -141.5q82 110 137.5 188.5
t100.5 150.5q2 5 12 25t15.5 35.5t5.5 34.5v12q77 -4 229 -4v-70q-54 -3 -75.5 -12t-51.5 -45q-87 -96 -163 -196.5t-152 -217.5q38 -71 96 -178t102.5 -186t96.5 -160q24 -35 43 -54t46 -29t62 -11v-74q-140 8 -209 8q-71 0 -139 -12q-61 116 -129.5 239t-136.5 240
q-174 -235 -267 -401q-20 -35 -20 -62q0 -2 2 -6t2 -6q-25 0 -74 2t-73 2q-10 0 -58 -2t-98 -2z" />
    <glyph glyph-name="Y" unicode="Y" horiz-adv-x="1274" 
d="M393 0v74q94 0 127 19.5t33 99.5v249q0 46 -11 79t-38 77q-99 178 -179.5 301t-189.5 219l-78 12v58q76 12 217 45q31 12 62 12q24 0 33 -8q49 -29 102 -99.5t100.5 -155t77 -143.5t92.5 -188q49 77 107 175.5t110.5 195t110.5 211.5q8 0 25 -2t24 -2q19 0 55 2t52 2
l-4 -45q-68 -81 -147 -188.5t-142 -208t-109 -197.5q-20 -46 -20 -127v-274q0 -46 5.5 -67.5t21 -32t43.5 -14t85 -5.5v-74q-204 8 -311 8q-90 0 -254 -8z" />
    <glyph glyph-name="Z" unicode="Z" horiz-adv-x="1196" 
d="M0 0h74v66q198 272 294.5 405.5t213 302.5t225.5 344l-270 -4h-99q-135 0 -151 -16q-16 -15 -23.5 -41.5t-12 -67.5t-5.5 -51h-78q8 122 8 184q0 74 -4 111q328 -8 483 -8q164 0 484 8v-74q-114 -156 -243.5 -340.5t-267 -388.5t-214.5 -324h352q92 0 167.5 7t90.5 22
t25 47t16.5 69t11.5 68h70q-9 -81 -12.5 -120t-8 -84t-12.5 -115q-106 2 -213.5 4t-197.5 3t-232 1q-56 0 -193.5 -2.5t-277.5 -5.5z" />
    <glyph glyph-name="bracketleft" unicode="[" horiz-adv-x="618" 
d="M578 -365q-30 0 -78 2.5t-90 2.5q-59 0 -132 -2.5t-114 -2.5q2 66 4 108t4 90.5t3 89.5t1 106v807q0 68 -5 200t-7 197q122 -8 180 -8q78 0 234 8v-74q-71 -6 -111.5 -11t-65.5 -22q-24 -24 -24 -168q0 -26 2 -63t2 -43v-844q0 -4 -2 -40t-2 -62q0 -55 6.5 -103.5
t17.5 -56.5q20 -18 49.5 -25.5t69.5 -10t58 -5.5v-70z" />
    <glyph glyph-name="backslash" unicode="\" horiz-adv-x="713" 
d="M29 1352h98l545 -1516h-103z" />
    <glyph glyph-name="bracketright" unicode="]" horiz-adv-x="561" 
d="M94 -365v70q18 3 57.5 5.5t69 10t49.5 25.5q25 14 25 176v1024q0 156 -25 180q-18 13 -49.5 19.5t-55.5 8.5t-71 5v74q148 -8 230 -8q60 0 184 8q-12 -196 -12 -397v-807q0 -196 12 -394q-41 0 -114.5 2.5t-135.5 2.5q-40 0 -89 -2.5t-75 -2.5z" />
    <glyph glyph-name="asciicircum" unicode="^" horiz-adv-x="1524" 
d="M848 1286h184l443 -500h-95l-442 349l-442 -349h-95z" />
    <glyph glyph-name="underscore" unicode="_" horiz-adv-x="983" 
d="M41 -270h901v-152h-901v152z" />
    <glyph glyph-name="grave" unicode="`" horiz-adv-x="676" 
d="M545 963l-226 122q-20 11 -54.5 27.5t-55.5 36.5t-21 51q0 32 22.5 51t59.5 19q41 0 68 -22.5t84 -76.5l213 -208h-90z" />
    <glyph glyph-name="a" unicode="a" horiz-adv-x="926" 
d="M565 422q-163 -18 -217 -94q-24 -42 -24 -78q0 -15 4 -30t7 -23.5t9 -24.5q29 -45 90 -45q69 0 131 82v213zM881 0h-320q0 18 2 56t2 59l-151 -107q-46 -28 -119 -28q-78 0 -135.5 53t-57.5 127q0 156 137 231.5t326 104.5v32q0 112 -53 156q-49 33 -115 33
q-44 0 -82 -12q-42 -43 -65 -103l-66 8q0 45 9 119q41 28 76.5 50.5t69 38t74 23t87.5 7.5q79 0 145 -27.5t100 -87.5q33 -56 33 -155v-406q0 -55 5.5 -73.5t24 -25.5t73.5 -12v-61z" />
    <glyph glyph-name="b" unicode="b" horiz-adv-x="1040" 
d="M381 602v-332q3 -68 24.5 -104t81.5 -60q37 -12 70 -12q68 0 122 49t75 127q16 82 16 144q0 82 -27.5 150.5t-87.5 103.5q-39 28 -98 28q-102 0 -176 -94zM561 -12q-47 -13 -86 -13q-112 0 -209 62q-28 -21 -78 -53l-41 12q17 225 17 356v660q0 94 -8 123
q-8 11 -32.5 15.5t-53 6t-37.5 2.5v66q151 11 340 78l16 -17q-4 -196 -6 -318.5t-2 -267.5q24 20 47.5 39.5t45 37.5t45 34.5t42.5 24.5q44 16 107 16q66 0 110 -16q74 -21 121 -70.5t69.5 -118.5t22.5 -143q0 -62 -24 -152q-37 -140 -156 -233q-154 -107 -250 -131z" />
    <glyph glyph-name="c" unicode="c" horiz-adv-x="848" 
d="M766 29q-141 -54 -274 -54q-144 0 -254 70q-68 50 -106 143.5t-38 196.5q0 112 45 205q21 42 71 89t107 84t105 60q65 33 160 33q93 0 209 -37q-12 -87 -29 -278h-66q-3 98 -21 130t-102 54q-40 8 -69 8q-98 0 -144 -69q-36 -61 -36 -172q0 -83 24 -169t58 -135
q80 -98 208 -98q82 0 168 37l17 -21q-11 -21 -19 -43t-14 -34z" />
    <glyph glyph-name="d" unicode="d" horiz-adv-x="1118" 
d="M733 639q-34 45 -87 75.5t-109 30.5q-20 0 -62 -8q-68 -22 -97.5 -91.5t-29.5 -162.5q0 -74 17 -151q20 -96 75 -144.5t121 -48.5q41 0 82 21.5t65.5 58.5t24.5 84v336zM1077 0q-57 4 -176 4q-115 0 -172 -4q0 94 4 139l-164 -135q-30 -20 -106 -20q-54 0 -103 11t-86 38
q-79 53 -117 141.5t-38 190.5q0 56 11 111t34 106q22 55 78.5 107.5t126 92.5t127.5 58q24 8 77 8q93 0 160 -37v229q0 60 -7.5 81.5t-32 26.5t-91.5 7v62q172 24 340 86l25 -17q-13 -130 -13 -278v-820q0 -69 23.5 -95.5t99.5 -26.5v-66z" />
    <glyph glyph-name="e" unicode="e" horiz-adv-x="926" 
d="M328 496h319v41q0 100 -33.5 164.5t-130.5 64.5q-83 0 -121 -65.5t-38 -155.5q0 -9 2 -25t2 -24zM852 139q-12 -25 -24.5 -52t-20.5 -42q-140 -70 -299 -70q-165 0 -270 78q-66 51 -103 144.5t-37 199.5q0 155 70 262q36 60 97 103.5t135 66.5t145 23q88 0 161.5 -33.5
t117.5 -103.5t44 -174v-29q-66 -48 -109.5 -75t-78.5 -27h-340q10 -108 51.5 -182t128.5 -109q60 -21 111 -21q108 0 200 66z" />
    <glyph glyph-name="f" unicode="f" horiz-adv-x="774" 
d="M0 0h78v70q71 2 97.5 8.5t36 31t9.5 87.5v475q-23 0 -68 -2t-67 -2v41l135 61q0 123 24.5 199t79.5 132.5t162 131.5q47 32 84 51t76 19t78 -25l-33 -184l-24 -4q-21 24 -55.5 42.5t-67.5 18.5q-35 0 -58 -16q-45 -41 -45 -213q0 -34 2 -85t2 -59q34 0 107 2t111 2
l-13 -114h-205v-426q0 -93 7 -123t36 -38.5t117 -10.5v-70q-86 4 -262 4t-344 -4z" />
    <glyph glyph-name="g" unicode="g" horiz-adv-x="1040" 
d="M266 -4q-71 13 -106 65q-25 48 -25 78q0 31 25 49q23 19 74 52t77 55q-115 28 -164 111q-28 63 -28 131q0 93 45 163q107 156 356 156q125 0 266 -74q136 0 201 9l-16 -119h-131q12 -43 12 -90q0 -98 -53 -168q-65 -79 -163 -109.5t-226 -30.5q-20 0 -45 -24t-25 -45
q0 -11 12 -29q24 -37 250 -37h78q105 -4 177.5 -29t105.5 -98q16 -37 16 -90q0 -40 -13.5 -83.5t-36 -81.5t-52.5 -68q-77 -77 -186 -118.5t-224 -41.5q-69 0 -131 12q-111 26 -183 88t-75 162q0 63 14 81t72 54q89 60 102 70zM487 778q-77 0 -114 -57t-37 -135v-29
q0 -50 16.5 -93t51 -71t83.5 -28q75 0 115.5 61.5t40.5 138.5v21q-7 78 -45.5 135t-110.5 57zM365 -12q-54 -40 -88.5 -90t-34.5 -103q0 -39 28 -90q57 -98 217 -98q55 0 106 12.5t95 36.5q39 30 68.5 84.5t29.5 107.5q0 75 -65 111q-57 29 -238 29h-118z" />
    <glyph glyph-name="h" unicode="h" horiz-adv-x="1118" 
d="M0 0h70v70q61 2 86 7t35 27t10 80v885q0 63 -18.5 76.5t-71.5 13.5h-17q-2 0 -10 2t-10 2v66q183 25 344 82l20 -17q-12 -184 -12 -356v-233l168 131q39 16 102 16q46 0 91 -9.5t73 -27.5q59 -36 81 -101.5t22 -152.5q0 -35 -2.5 -77t-2.5 -62v-262q0 -44 9 -62t31 -23
t79 -5v-70q-57 4 -180 4q-119 0 -180 -4q16 140 16 209v278q0 209 -151 209q-52 0 -95 -26.5t-69 -71.5v-426q0 -68 19 -85t79 -17h41v-70q-94 4 -283 4q-135 0 -274 -4z" />
    <glyph glyph-name="i" unicode="i" horiz-adv-x="618" 
d="M0 0h82v74q69 0 94 5.5t33 30.5t8 95v413q0 44 -9.5 64.5t-30 25.5t-71.5 5h-20l4 69q175 19 340 78l21 -12q-5 -74 -5 -225v-414q0 -58 7 -85.5t33 -38.5t87 -11v-74q-81 4 -245 4t-328 -4zM455 1126q0 -50 -40.5 -92.5t-90.5 -42.5q-49 0 -90 43t-41 92q0 34 18.5 65.5
t48.5 51t64 19.5q35 0 65 -19.5t48 -51.5t18 -65z" />
    <glyph glyph-name="j" unicode="j" horiz-adv-x="541" 
d="M41 -463l-16 57q97 4 145 43.5t62 103t14 161.5v676q0 73 -7 96.5t-29.5 30.5t-103.5 12v65q94 11 174 27.5t175 46.5l20 -16v-676q0 -94 -7 -171.5t-29 -156.5t-66.5 -145.5t-114.5 -108.5q-72 -45 -176 -45h-41zM496 1126q0 -49 -42 -92t-89 -43q-51 0 -91.5 43
t-40.5 92q0 34 18.5 65.5t48 51t65.5 19.5q32 0 62.5 -19t49.5 -51t19 -66z" />
    <glyph glyph-name="k" unicode="k" horiz-adv-x="1176" 
d="M0 0h90v74q63 0 86.5 4t32 23.5t8.5 66.5v893q0 64 -19.5 79t-86.5 15h-21v70q99 13 174 30t162 48l20 -9q-4 -77 -4 -229v-606q156 139 349 332l-5 40q26 0 74 -2t70 -2q19 0 58 2t56 2v-65q-83 0 -131 -29q-49 -31 -85.5 -62t-75.5 -66t-93 -85l242 -278
q33 -38 69.5 -80t73.5 -66.5t82 -25.5v-74q-57 4 -168 4q-106 0 -159 -4q-77 97 -178 218.5t-179 203.5v-213q0 -71 5.5 -95t31.5 -31t90 -9v-74q-77 4 -241 4q-160 0 -328 -4z" />
    <glyph glyph-name="l" unicode="l" horiz-adv-x="639" 
d="M0 0h86v74q38 1 70.5 2.5t44.5 11t16 32.5t4 85v856q0 64 -16.5 79t-77.5 15h-41v70q185 23 344 78l25 -9q-4 -77 -4 -229v-856q0 -69 5.5 -94t30.5 -33t95 -8v-74q-82 4 -250 4q-164 0 -332 -4z" />
    <glyph glyph-name="m" unicode="m" horiz-adv-x="1638" 
d="M0 0h82v70q56 2 79.5 7t35 27.5t12.5 75.5v410q0 68 -6.5 90t-29 27.5t-91.5 5.5v61q190 29 328 82l20 -16v-140l164 127q33 29 90 29q49 0 107 -16q105 -19 147 -135l164 126q25 21 94 21q43 0 87 -7t65 -18q70 -33 92 -101.5t22 -168.5v-360q0 -42 4 -69t15.5 -38.5
t35.5 -15.5t68 -4v-70q-69 4 -209 4q-102 0 -155 -4q16 122 16 188v324q0 151 -98 180q-17 4 -49 4q-90 0 -144 -94v-393q0 -76 23.5 -107.5t103.5 -31.5v-70q-82 4 -254 4q-139 0 -209 -4v70q55 2 78.5 8.5t30 29t6.5 80.5v332q0 153 -98 172q-17 4 -45 4q-95 0 -152 -90
v-426q0 -50 6 -72t24.5 -30t63.5 -8h17v-70q-90 4 -267 4q-127 0 -274 -4z" />
    <glyph glyph-name="n" unicode="n" horiz-adv-x="1139" 
d="M0 0h82v70q58 2 82 8t34.5 29t10.5 77v410q0 70 -19.5 92.5t-78.5 22.5h-25v69q144 22 332 78l16 -16v-135l172 131q39 16 103 16q98 0 159 -37q62 -36 82.5 -97.5t20.5 -148.5q0 -25 -2 -75t-2 -72v-229q0 -46 4.5 -70t16 -34t33.5 -13.5t69 -5.5v-70q-62 4 -181 4
q-118 0 -176 -4q8 140 8 209v278q0 95 -32 152t-119 57q-52 0 -93 -26.5t-67 -71.5v-426q0 -48 14 -69.5t40.5 -26t84.5 -6.5v-70q-94 4 -282 4q-135 0 -287 -4z" />
    <glyph glyph-name="o" unicode="o" horiz-adv-x="1004" 
d="M102 401q0 219 117 337t318 118q32 0 106 -8q161 -14 236 -126.5t75 -287.5q0 -148 -49.5 -250.5t-151 -155.5t-253.5 -53q-206 0 -302 110.5t-96 315.5zM573 766q-32 8 -53 8q-95 0 -133.5 -91t-38.5 -216q0 -10 -2 -36t-2 -42q0 -122 34 -216.5t118 -111.5q6 0 20 -2
t21 -2q151 0 172 283q0 10 2 49t2 62q0 120 -30.5 210.5t-109.5 104.5z" />
    <glyph glyph-name="p" unicode="p" horiz-adv-x="1081" 
d="M430 -254q0 -70 9 -96.5t33.5 -33t105.5 -13.5l4 -70q-44 0 -129 2t-125 2q-41 0 -125 -2t-125 -2v70q17 2 35 3t33.5 4t29.5 13q29 14 29 139v873q0 47 -23 62.5t-104 15.5v69q155 12 336 66l24 -21q-8 -45 -8 -131q60 44 102.5 76t87.5 54t101 22q70 0 129 -26.5
t102 -74.5t65.5 -108.5t22.5 -126.5q0 -209 -151 -348q-62 -58 -111 -95t-110 -61q-66 -16 -103 -16q-45 0 -135 24v-270zM430 184q29 -42 76.5 -64t99.5 -22q64 0 113 50t74.5 123t25.5 139q0 58 -16.5 113t-44.5 92.5t-66.5 59t-81.5 21.5q-95 0 -180 -90v-422z" />
    <glyph glyph-name="q" unicode="q" horiz-adv-x="1139" 
d="M950 -209q0 -148 21 -164q12 -10 31 -13t39.5 -4t48.5 -3v-74h-508v74q90 3 116.5 21t26.5 93v418l-164 -123q-32 -32 -106 -32q-53 0 -108.5 20.5t-100.5 52.5q-65 54 -96 134.5t-31 173.5q0 72 20 147q32 107 86 156q41 38 116 87.5t130 71.5q56 21 127 21
q108 0 254 -66l90 66l37 -17q-29 -166 -29 -434v-606zM725 250v397q-30 44 -81 69t-103 25q-9 0 -27 -2t-27 -2q-76 -25 -109.5 -98t-33.5 -164q0 -64 23.5 -141t71.5 -132t114 -55q91 0 172 103z" />
    <glyph glyph-name="r" unicode="r" horiz-adv-x="774" 
d="M0 0h86v74q64 0 88 7.5t31.5 33t7.5 90.5v389q0 80 -16.5 99.5t-77.5 19.5h-33v69q189 21 324 78l28 -12v-172q18 21 47 57.5t59 65.5t61 45t67 16q21 0 61 -8l-24 -250l-29 -12q-30 69 -111 69q-52 0 -91.5 -41t-39.5 -110v-299q0 -75 8.5 -99.5t34 -29t105.5 -6.5v-74
q-90 4 -275 4q-151 0 -311 -4z" />
    <glyph glyph-name="s" unicode="s" horiz-adv-x="811" 
d="M131 291h62q0 -60 6 -98.5t30 -69.5q33 -32 78.5 -49t93.5 -17q38 0 76 22.5t63 56.5t25 65q0 29 -15.5 56.5t-45.5 41.5q-33 19 -75.5 29.5t-103 25t-92.5 27.5q-57 28 -85.5 82t-28.5 119q0 46 12 90q33 94 123.5 139t208.5 45q140 0 246 -53q-13 -68 -21 -209h-61
q-4 53 -12.5 87.5t-32.5 55.5q-52 41 -131 41q-64 0 -108 -41.5t-44 -89.5q0 -56 57 -82q41 -17 122 -31.5t128 -28t86 -46.5q32 -28 49 -73.5t17 -94.5q0 -65 -17 -103q-37 -108 -143.5 -160.5t-237.5 -52.5q-69 0 -132.5 12t-116.5 33q13 95 20 271z" />
    <glyph glyph-name="t" unicode="t" horiz-adv-x="696" 
d="M188 672q-21 0 -64 -2t-63 -2v37l132 73q0 185 -9 275q90 28 222 90l24 -17q-16 -236 -16 -352q138 8 209 8l-13 -110h-196v-307q0 -93 8 -144.5t35.5 -80.5t83.5 -29q24 0 106 16v-37q-79 -63 -126.5 -84.5t-135.5 -21.5q-91 0 -133.5 35t-53 92t-10.5 151v410z" />
    <glyph glyph-name="u" unicode="u" horiz-adv-x="1118" 
d="M733 135l-143 -127q-35 -28 -123 -28q-96 0 -143 20q-115 40 -115 217v352q0 66 -5 91t-23.5 35t-65.5 10h-33v69q44 7 99.5 18t133.5 30t103 26l16 -12q-8 -132 -8 -197v-328q0 -80 24.5 -126t98.5 -46q82 0 133 48t51 128v299q0 57 -14.5 76t-50.5 19q-10 0 -32 -2
t-38 -2v65q143 19 348 78l12 -12q-4 -111 -4 -328v-315q0 -63 17 -93t65 -30h37v-70q-65 4 -201 4q-98 0 -147 -4q8 90 8 135z" />
    <glyph glyph-name="v" unicode="v" horiz-adv-x="1040" 
d="M438 -4q-57 161 -128 341.5t-142 346.5q-20 45 -41 60t-74 18v65h164q49 0 150 2t149 2v-69h-33q-77 0 -77 -37v-4q5 -44 40.5 -138.5t79.5 -196.5t72 -165q43 94 107 271q19 52 38.5 105.5t30.5 102.5v17q0 45 -86 45h-20v69q53 -4 163 -4q115 0 168 4v-69
q-51 -10 -72 -25.5t-38 -60.5q-79 -158 -136.5 -297t-154.5 -383h-160z" />
    <glyph glyph-name="w" unicode="w" horiz-adv-x="1561" 
d="M528 -4h-143q-52 230 -89.5 383t-90.5 305q-19 53 -43.5 63.5t-91.5 14.5v69q37 0 118 -2t123 -2q39 0 119 2t119 2v-69q-68 0 -93.5 -9t-25.5 -36q0 -12 9.5 -46.5t11.5 -43.5l98 -357q157 322 254 586h86q75 -219 250 -586q126 330 131 443v4q0 45 -82 45h-41v69
q61 -4 180 -4t180 4v-69q-58 -3 -77.5 -13t-36.5 -57q-68 -159 -126 -332t-112 -364h-143q-55 143 -112 281t-122 276q-67 -138 -123.5 -265.5t-126.5 -291.5z" />
    <glyph glyph-name="x" unicode="x" horiz-adv-x="946" 
d="M0 0h70v70h20q52 0 82 36q52 61 118 146.5t103 132.5l-102 172q-80 144 -123 168q-31 12 -74 12h-16v66q146 21 250 53q46 -34 79 -78.5t62 -97.5t63 -115q26 31 54 64.5t50 64.5t39.5 66t24.5 71h189v-69h-17q-36 0 -65 -25q-27 -18 -61 -56t-77.5 -90.5t-86.5 -103.5
l131 -233q35 -64 56 -98.5t54 -69.5q15 -11 26 -13t48 -7v-66q-28 0 -88 2t-88 2q-70 0 -103 -4l-176 299l-127 -180q-53 -67 -61 -119h-254z" />
    <glyph glyph-name="y" unicode="y" horiz-adv-x="1061" 
d="M102 -250h21q24 -32 57 -48.5t70 -16.5q24 0 33 4q49 7 85 46.5t55 80.5t52 123l-287 708q-24 70 -44 91t-83 24v65h160q49 0 150 2t149 2v-69q-56 0 -81 -9t-25 -36q0 -12 16 -62l168 -438l160 410q24 61 24 90q0 28 -23 36.5t-87 8.5v69q57 -4 168 -4q110 0 164 4v-69
q-14 -2 -24 -4t-22 -6t-24 -15q-26 -18 -46.5 -60.5t-51.5 -119.5l-267 -623q-72 -179 -155 -290t-209 -111q-68 0 -148 37q15 41 24 80.5t21 99.5z" />
    <glyph glyph-name="z" unicode="z" horiz-adv-x="905" 
d="M0 0h57v61q118 154 144 188.5t122.5 167.5t122 169.5t103.5 150.5h-148q-115 0 -163 -16q-15 -7 -22 -33t-10.5 -58t-4.5 -48h-70l8 249q246 -8 365 -8q118 0 340 8v-65q-126 -165 -241.5 -324t-237.5 -340q18 0 74 -2t89 -2q141 0 197 21q34 10 44.5 53.5t16.5 114.5h70
q-3 -29 -6 -77.5t-7 -112.5t-7 -97q-74 2 -205.5 3t-245.5 1q-217 0 -385 -4z" />
    <glyph glyph-name="braceleft" unicode="{" horiz-adv-x="831" 
d="M786 1331v-53q-88 -1 -131.5 -29t-56 -77t-12.5 -128q0 -8 2 -26t2 -27v-98q0 -100 -14.5 -161t-63.5 -105t-152 -70q102 -26 151.5 -70t64 -105t14.5 -157v-98q0 -13 -2 -36t-2 -34q0 -76 12.5 -121t55 -70.5t132.5 -29.5v-45q-125 0 -195 18.5t-102.5 61.5t-41.5 111
t-9 194v53q0 110 -13.5 164.5t-66 88t-161.5 46.5v58q116 17 165.5 50t62.5 88t13 169v45q0 131 9.5 199.5t42.5 110.5t100.5 61t195.5 22z" />
    <glyph glyph-name="bar" unicode="|" horiz-adv-x="618" 
d="M414 1376h155v-1798h-155v1798z" />
    <glyph glyph-name="braceright" unicode="}" horiz-adv-x="831" 
d="M193 1331q169 -5 240 -38.5t91.5 -109t20.5 -245.5q0 -10 -2 -32t-2 -29q0 -77 7 -122t30 -78.5t73 -56t135 -34.5v-58q-111 -13 -163 -45t-67 -86.5t-15 -158.5q0 -11 2 -31t2 -31q0 -127 -8.5 -193.5t-42.5 -110.5t-105 -62.5t-196 -18.5v45q89 4 130.5 29.5t53.5 69
t12 122.5v168q0 96 14.5 156.5t65.5 105t154 70.5q-105 28 -155.5 73t-64.5 106t-14 161v147q0 83 -11 130t-53.5 75t-131.5 29v53z" />
    <glyph glyph-name="asciitilde" unicode="~" horiz-adv-x="1446" 
d="M1397 1188v-164q-97 -63 -172 -91t-156 -28q-56 0 -111 14t-155 48q-162 53 -246 53q-81 0 -158 -31t-190 -104v159q104 65 185 94t167 29q110 0 250 -49q105 -35 157 -48t105 -13q73 0 148.5 31t175.5 100z" />
    <glyph glyph-name="bullet" horiz-adv-x="483" 
d="M279 586q61 0 104 -43t43 -105q0 -60 -43.5 -101.5t-103.5 -41.5q-61 0 -104.5 42.5t-43.5 100.5q0 60 43 104t105 44z" />
    <glyph glyph-name="quotesinglbase" unicode="&#x201a;" 
 />
    <glyph glyph-name="florin" unicode="&#x192;" 
 />
    <glyph glyph-name="quotedblbase" unicode="&#x201e;" 
 />
    <glyph glyph-name="ellipsis" unicode="&#x2026;" 
 />
    <glyph glyph-name="dagger" unicode="&#x2020;" 
 />
    <glyph glyph-name="daggerdbl" unicode="&#x2021;" 
 />
    <glyph glyph-name="perthousand" unicode="&#x2030;" 
 />
    <glyph glyph-name="Scaron" unicode="&#x160;" 
 />
    <glyph glyph-name="guilsinglleft" unicode="&#x2039;" horiz-adv-x="1352" 
d="M1307 1032v-160l-820 -335l820 -332v-164l-1033 426v139z" />
    <glyph glyph-name="OE" unicode="&#x152;" 
 />
    <glyph glyph-name="quoteleft" unicode="&#x2018;" horiz-adv-x="598" 
d="M147 807l-28 29q140 272 266 467q32 17 127 53l29 -29q-120 -231 -144 -455q-182 -38 -250 -65z" />
    <glyph glyph-name="quoteright" unicode="&#x2019;" horiz-adv-x="561" 
d="M479 1356l33 -25q-146 -285 -266 -471q-34 -14 -61 -26.5t-66 -26.5l-29 29q108 208 139 458q105 19 149 29.5t101 32.5z" />
    <glyph glyph-name="quotedblleft" unicode="&#x201c;" horiz-adv-x="926" 
d="M844 1356l33 -25q-109 -236 -127 -483q-61 -10 -98 -17.5t-69 -17t-75 -27.5l-25 29q58 126 92 196t72.5 142t85.5 150q13 5 54.5 26t56.5 27zM459 1356l33 -25q-103 -227 -127 -483q-137 -22 -242 -62l-25 29q88 185 138 285.5t112 202.5q10 4 56 26.5t55 26.5z" />
    <glyph glyph-name="quotedblright" unicode="&#x201d;" horiz-adv-x="905" 
d="M115 786l-37 29q99 224 131 479q87 15 128.5 25t113.5 37l20 -29q-66 -146 -123 -259t-127 -224q-53 -33 -106 -58zM496 786l-33 29q99 204 127 479q53 9 93 16.5t70.5 17t77.5 28.5l25 -29q-125 -276 -250 -483q-20 -15 -56 -31t-54 -27z" />
    <glyph glyph-name="emdash" unicode="&#x2013;" horiz-adv-x="1081" 
d="M1032 557l-69 -209h-852l61 209h860z" />
    <glyph glyph-name="endash" unicode="&#x2014;" horiz-adv-x="1966" 
d="M1917 557l-70 -209h-1741l58 209h1753z" />
    <glyph glyph-name="trademark" unicode="&#x2122;" 
 />
    <glyph glyph-name="scaron" unicode="&#x161;" 
 />
    <glyph glyph-name="guilsinglright" unicode="&#x203a;" horiz-adv-x="1352" 
d="M274 1032l1033 -426v-139l-1033 -426v164l820 332l-820 335v160z" />
    <glyph glyph-name="oe" unicode="&#x153;" 
 />
    <glyph glyph-name="Ydieresis" unicode="&#x178;" horiz-adv-x="1139" 
d="M1090 61v-65q-129 12 -209 12q-51 0 -137 -6t-138 -6v65q63 3 89.5 11.5t34 25.5t7.5 54v491q0 74 -4 115q-17 0 -54 2t-52 2q-71 0 -121 -21.5t-68 -72.5q-8 -26 -8 -50q0 -78 62 -126q42 -33 126 -33q9 0 29 2t29 2l16 -49q-14 -15 -27 -29.5t-29 -32t-26 -28.5
l-270 -324q-82 8 -119 8q-22 0 -68 -2t-71 -2v57q53 7 75 25t60 66l213 262q-2 0 -8 -2t-8 -2q-49 0 -97 24.5t-79 61.5q-29 48 -29 110q0 115 70 172q54 45 172 45h77q39 0 120 -2t118 -2q13 0 39 -2t39 -2q90 0 246 8v-65q-3 0 -9 -2t-8 -2h-29q-49 0 -65 -13
q-21 -20 -21 -143v-270q0 -226 25 -246q16 -21 107 -21z" />
    <glyph glyph-name="exclamdown" unicode="&#xa1;" horiz-adv-x="483" 
d="M279 586q61 0 104 -43t43 -105q0 -60 -43.5 -101.5t-103.5 -41.5q-61 0 -104.5 42.5t-43.5 100.5q0 60 43 104t105 44z" />
    <glyph glyph-name="cent" unicode="&#xa2;" 
d="M111 1200v78q81 -6 130 -7t169 -1q184 0 299 8v-78q-85 -5 -115 -11.5t-41.5 -25t-11.5 -61.5v-934q0 -58 28.5 -74.5t139.5 -19.5v-82q-115 8 -299 8q-120 0 -169 -1t-130 -7v82q109 3 136 19.5t27 74.5v934q0 42 -10.5 61t-40 25.5t-112.5 11.5zM406 1606
q47 0 78.5 -32.5t31.5 -78.5q0 -29 -15.5 -55t-42 -41t-52.5 -15q-46 0 -78.5 32.5t-32.5 78.5q0 47 30.5 79t80.5 32z" />
    <glyph glyph-name="sterling" unicode="&#xa3;" horiz-adv-x="774" 
d="M131 1200v78q79 -6 128 -7t171 -1q120 0 168.5 1t126.5 7v-78q-83 -5 -112.5 -11.5t-40.5 -25t-11 -61.5v-934q0 -42 11 -60t47 -25.5t106 -8.5v-82q-78 6 -126.5 7t-168.5 1q-122 0 -170.5 -1t-128.5 -7v82q110 3 137 19.5t27 74.5v934q0 62 -26 77t-138 21zM238 1606
q47 0 78.5 -32.5t31.5 -78.5q0 -29 -15.5 -55t-42 -41t-52.5 -15q-46 0 -78.5 32.5t-32.5 78.5t31.5 78.5t79.5 32.5zM627 1606q26 0 52.5 -15t42 -41t15.5 -55t-15.5 -55t-42 -41t-52.5 -15q-49 0 -80 32t-31 79t30.5 79t80.5 32z" />
    <glyph glyph-name="currency" unicode="&#xa4;" horiz-adv-x="1159" 
d="M152 324l90 90q-42 71 -60 128.5t-18 129.5q0 52 7.5 94t24.5 80.5t50 83.5l-94 90l127 131l90 -94q129 82 270 82q122 0 254 -78l90 90l123 -131l-90 -86q82 -116 82 -262t-78 -258l90 -90l-127 -127l-90 90q-65 -42 -126.5 -62t-131.5 -20q-75 0 -138 20t-128 62
l-90 -90zM635 942q-72 0 -134.5 -36t-99 -97.5t-36.5 -136.5q0 -74 37 -136t99.5 -98.5t133.5 -36.5q55 0 105 21t89 59.5t59.5 88t20.5 102.5q0 73 -36.5 135.5t-100 98.5t-137.5 36z" />
    <glyph glyph-name="yen" unicode="&#xa5;" horiz-adv-x="1311" 
d="M356 713q97 -45 144 -45q15 0 49 8q90 20 199 53.5t231 69.5q39 -15 80.5 -45.5t74.5 -60.5t87 -79l-21 -69q-61 48 -90.5 65t-65.5 17q-31 0 -114 -25q-60 -18 -112 -35.5t-125 -41.5t-115 -38q-49 30 -130.5 88t-91.5 64q0 -11 4.5 -50.5t4.5 -56.5
q22 -119 82.5 -219.5t158.5 -160.5q119 -70 271 -70q100 0 196 33q59 13 156 61l24 -16q-46 -66 -57 -86q-173 -103 -442 -103q-154 0 -285 45.5t-224.5 143t-133.5 246.5q-29 118 -29 208q0 125 42.5 239t127.5 203.5t207 143.5q150 66 323 66q190 0 451 -82
q-28 -237 -33 -303h-65q-3 99 -18.5 150t-63.5 83.5t-148 48.5q-56 8 -94 8q-161 0 -277.5 -91t-156.5 -257q-13 -43 -21 -110z" />
    <glyph glyph-name="brokenbar" unicode="&#xa6;" horiz-adv-x="520" 
d="M283 1335h184v-741l-184 -90v831zM283 356l184 86v-831h-184v745z" />
    <glyph glyph-name="section" unicode="&#xa7;" horiz-adv-x="967" 
d="M803 229q78 -72 78 -184q0 -116 -62 -218.5t-166 -163t-223 -60.5q-48 0 -97.5 9.5t-109.5 31.5t-117 49q25 136 25 344q37 -4 90 -4h58q-5 -41 -5 -123v-70q43 -38 96.5 -60t108.5 -22q63 0 115 23.5t81.5 67t29.5 98.5q0 61 -35 96.5t-129 71.5q-163 56 -194.5 67.5
t-63.5 22.5q-201 79 -201 254q0 63 32.5 124.5t94.5 112.5q-82 82 -82 176q0 112 58.5 209.5t156 155t207.5 57.5q101 0 282 -49q-16 -164 -16 -352q-41 4 -90 4h-53q0 28 2 86t2 86q-25 30 -73.5 45.5t-102.5 15.5q-53 0 -98.5 -20.5t-72 -57.5t-26.5 -81
q0 -90 70.5 -127.5t226 -81.5t237 -103t81.5 -184q0 -149 -115 -246zM319 635q-45 -52 -45 -115q0 -38 19 -63t70 -49t141 -52q102 -32 188 -69q37 61 37 114q0 42 -20 70t-68.5 51.5t-153.5 59.5q-108 30 -168 53z" />
    <glyph glyph-name="dieresis" unicode="&#xa8;" horiz-adv-x="967" 
d="M229 274l-73 136q124 96 262 241q-180 180 -258 238q45 63 69 131h78q44 -63 89.5 -111t140.5 -143q27 27 79 78t90 92.5t68 87.5l62 8q16 -50 25 -70t48 -81q-43 -30 -80.5 -62.5t-79.5 -73l-98 -94.5q86 -86 140.5 -136.5t130.5 -104.5l-82 -140l-66 9q-74 90 -237 253
q-103 -100 -147.5 -145t-90.5 -104z" />
    <glyph glyph-name="copyright" unicode="&#xa9;" horiz-adv-x="1466" 
d="M713 1290q176 0 326 -87.5t237.5 -238t87.5 -329.5q0 -177 -87.5 -327.5t-237 -239t-326.5 -88.5q-180 0 -331 88.5t-238 239t-87 327.5q0 179 87.5 329.5t238.5 238t330 87.5zM713 1192q-114 0 -216 -43.5t-177.5 -120.5t-117.5 -180t-42 -213t42 -212t119 -180.5
t179 -121.5t213 -43q148 0 274.5 75t200.5 203t74 279q0 114 -42.5 216t-117 178t-175 119.5t-214.5 43.5zM987 946v-192h-61q-6 78 -57 129t-124 51q-67 0 -116.5 -34.5t-77 -99t-27.5 -153.5q0 -90 31.5 -160.5t86.5 -110.5t124 -40q49 0 101 25t71 57q16 24 25 37l49 -21
q-27 -71 -114 -119.5t-189 -48.5q-101 0 -180.5 45.5t-124 128.5t-44.5 187q0 106 46.5 190t131.5 131t191 47q61 0 137.5 -13t120.5 -36z" />
    <glyph glyph-name="ordfeminine" unicode="&#xaa;" horiz-adv-x="1004" 
d="M582 123l-185 -135q-37 -13 -78 -13q-112 0 -164.5 57.5t-52.5 176.5q0 93 34.5 144t113.5 81q136 56 340 90q-3 116 -48.5 171t-140.5 55q-49 0 -110 -25l-37 -98l-66 16v119q113 67 176.5 95t151.5 28q119 0 196 -44.5t95 -123.5q12 -55 12 -148v-401q0 -68 17 -78
q13 -10 33.5 -13t93.5 -3v-82q-119 8 -218 8q-19 0 -68 -2.5t-108 -5.5l-8 12q1 4 6.5 50t14.5 69zM590 446q-101 -20 -156 -44t-78.5 -58t-23.5 -86q0 -53 30 -84t80 -31q41 0 71.5 17t76.5 65v221zM524 963h-90l213 208q67 64 94.5 81.5t61.5 17.5t56 -19.5t22 -50.5
t-21 -51t-55.5 -36.5t-54.5 -27.5z" />
    <glyph glyph-name="guillemotleft" unicode="&#xab;" horiz-adv-x="926" 
d="M446 90q-94 95 -185 181t-179 159v49q42 37 110 100.5t131.5 126t122.5 121.5l50 -41q-126 -217 -205 -335q95 -147 205 -324zM819 90q-215 215 -360 340v49q101 91 360 348l53 -41q-61 -107 -204 -335q155 -241 204 -324z" />
    <glyph glyph-name="logicalnot" unicode="&#xac;" horiz-adv-x="1024" 
d="M827 0v389h-749v160h901v-549h-152z" />
    <glyph glyph-name="minus" unicode="&#xad;" horiz-adv-x="655" 
d="M53 319l66 193h487l-69 -193h-484z" />
    <glyph glyph-name="registered" unicode="&#xae;" horiz-adv-x="1409" 
d="M696 1290q179 0 330 -87.5t238.5 -238t87.5 -329.5q0 -177 -87 -327.5t-238 -239t-331 -88.5q-177 0 -326.5 88.5t-237 239t-87.5 327.5q0 133 50.5 253t141.5 211t209.5 141t249.5 50zM696 1192q-147 0 -274 -74.5t-201 -202.5t-74 -276q0 -151 73.5 -279.5t200 -203
t275.5 -74.5q151 0 278 74.5t201 203t74 279.5q0 115 -43 215t-119 176t-176 119t-215 43zM782 647q49 -11 80.5 -55t64.5 -116.5t55.5 -104t61.5 -31.5v-37q-86 0 -120 3t-54 16.5t-36 49.5t-35 83q-17 41 -34.5 81.5t-32.5 57t-43.5 23t-82.5 6.5v-222q0 -36 4.5 -45
t24.5 -12q4 0 23 -2t34 -2v-37h-299v37q49 3 60.5 4.5t17.5 7.5q4 8 4 49v508q0 35 -3.5 43t-20.5 11q-13 4 -58 4v37h316q262 0 262 -173q0 -147 -189 -184zM606 668h41q96 0 140 37t44 114q0 78 -40 111t-136 33q-29 0 -39 -10t-10 -40v-245z" />
    <glyph glyph-name="macron" unicode="&#xaf;" horiz-adv-x="791" 
d="M737 1069h-602v98h602v-98z" />
    <glyph glyph-name="degree" unicode="&#xb0;" horiz-adv-x="696" 
d="M655 1008q0 -81 -38.5 -147.5t-105 -105t-146.5 -38.5t-145.5 39.5t-103.5 106t-38 145.5t39.5 144.5t106 103.5t145.5 38q78 0 143.5 -38.5t104 -104t38.5 -143.5zM549 1004q0 51 -23.5 93.5t-65.5 66.5t-91 24q-79 0 -132 -54t-53 -130q0 -73 55.5 -127t129.5 -54
q48 0 89.5 24.5t66 66t24.5 90.5z" />
    <glyph glyph-name="plusminus" unicode="&#xb1;" horiz-adv-x="1081" 
d="M475 840v360h143v-360h381v-148h-381l5 -373h-148v373h-377v148h377zM1028 238v-148h-905v148h905z" />
    <glyph glyph-name="twosuperior" unicode="&#xb2;" horiz-adv-x="618" 
d="M0 0h82v74q69 0 94 5.5t33 30.5t8 95v413q0 44 -9.5 64.5t-30 25.5t-71.5 5h-20l4 69q175 19 340 78l21 -12q-5 -74 -5 -225v-435q0 -47 3 -66t15.5 -30.5t37.5 -14.5t71 -3v-74q-81 4 -245 4t-328 -4zM455 1126q0 -50 -40.5 -92.5t-90.5 -42.5q-49 0 -90 43t-41 92
q0 34 18.5 65.5t48.5 51t64 19.5q35 0 65 -19.5t48 -51.5t18 -65z" />
    <glyph glyph-name="threesuperior" unicode="&#xb3;" horiz-adv-x="774" 
d="M725 1126q0 -50 -40 -92.5t-91 -42.5q-48 0 -87.5 42.5t-39.5 92.5q0 53 38 94.5t89 41.5q53 0 92 -41.5t39 -94.5zM348 1126q0 -50 -40 -92.5t-91 -42.5q-47 0 -89 43.5t-42 91.5q0 34 19 66t49.5 51t62.5 19q53 0 92 -41.5t39 -94.5zM164 0v74q69 0 93 5.5t32 31
t10 94.5v413q0 45 -9.5 65t-30.5 25t-71 5h-20v69q93 10 170.5 28t169.5 50l24 -12q-4 -74 -4 -225v-414q0 -4 -2 -11t-2 -10q0 -39 3.5 -62t16.5 -34.5t39.5 -14.5t71.5 -3v-74q-82 4 -249 4q-160 0 -242 -4z" />
    <glyph glyph-name="acute" unicode="&#xb4;" horiz-adv-x="598" 
d="M201 963h-90l208 208q76 68 100.5 83.5t55.5 15.5q37 0 59.5 -19t22.5 -51q0 -31 -21 -51t-55.5 -36.5t-54.5 -27.5z" />
    <glyph glyph-name="mu" unicode="&#xb5;" horiz-adv-x="831" 
d="M315 414q9 -2 17.5 -7.5t11.5 -5.5q11 0 22 6.5t27 19.5t45 36q25 25 64 48t63 26q19 -8 50.5 -37t60 -62.5t41.5 -60.5l-25 -33q-12 16 -34 28.5t-35 12.5h-5q-36 -5 -110 -61q-40 -29 -70 -29q-18 0 -41 20q-57 50 -78 58q18 -109 74 -185q75 -98 209 -98q90 0 168 37
l12 -21q-11 -23 -28 -81q-160 -54 -275 -54q-151 0 -254 74q-72 48 -109.5 139.5t-37.5 196.5q0 121 45 205q22 43 71.5 90t108 86t103.5 61q73 29 163 29q113 0 209 -37q-13 -102 -28 -278h-66q-3 99 -21.5 132t-105.5 52q-20 8 -65 8q-101 0 -144 -70q-16 -23 -24.5 -79
t-8.5 -117v-49z" />
    <glyph glyph-name="paragraph" unicode="&#xb6;" horiz-adv-x="1176" 
d="M1016 1200v-1311h114v-69h-684v69h148v717q-45 -4 -102 -4q-126 0 -218 31t-146 106.5t-54 202.5q0 104 46 178t128.5 112t181.5 38h700v-70h-114zM881 1200h-152v-1311h152v1311zM594 1200q-130 0 -202.5 -67t-72.5 -199q0 -86 32.5 -145t93.5 -90t149 -31v532z" />
    <glyph glyph-name="periodcentered" unicode="&#x2219;" horiz-adv-x="483" 
d="M279 586q61 0 104 -43t43 -105q0 -60 -43.5 -101.5t-103.5 -41.5q-61 0 -104.5 42.5t-43.5 100.5q0 60 43 104t105 44z" />
    <glyph glyph-name="cedilla" unicode="&#xb8;" horiz-adv-x="1159" 
d="M123 614l70 148q127 -17 307 -17h258q205 0 307 13l45 -37q-22 -28 -35.5 -49.5t-20.5 -37.5t-30 -73q-64 13 -117 17t-182 4h-336q-28 -1 -60 -1.5t-54.5 -1t-50.5 -3t-52 -7.5zM602 479q35 0 64 -17t46 -46t17 -64q0 -52 -37.5 -87.5t-89.5 -35.5t-89.5 35.5
t-37.5 87.5q0 35 17 64t46 46t64 17zM602 1098q54 0 90.5 -37.5t36.5 -89.5q0 -53 -37 -88t-90 -35t-90 35t-37 88q0 52 36.5 89.5t90.5 37.5z" />
    <glyph glyph-name="onesuperior" unicode="&#xb9;" horiz-adv-x="1061" 
d="M102 -250h21q46 -65 127 -65q65 0 126.5 81t98.5 173l-287 708q-24 70 -44 91t-83 24v65h160q49 0 150 2t149 2v-69q-56 0 -81 -9t-25 -36q0 -12 16 -62l168 -438l160 410q24 61 24 90q0 28 -23 36.5t-87 8.5v69q57 -4 168 -4q110 0 164 4v-69q-14 -2 -24 -4t-22 -6
t-24 -15q-26 -18 -46.5 -60.5t-51.5 -119.5l-267 -623q-72 -179 -155 -290t-209 -111q-68 0 -148 37q15 41 24 80.5t21 99.5zM553 926q-70 0 -141 28t-116.5 82.5t-45.5 126.5h90q0 -71 63 -92.5t150 -21.5q217 0 217 114h90q0 -72 -45.5 -126t-116.5 -82.5t-145 -28.5z" />
    <glyph glyph-name="ordmasculine" unicode="&#xba;" horiz-adv-x="1274" 
d="M836 152q-67 -47 -160 -148q-71 -29 -135 -29q-133 0 -205 78q-29 29 -44 68t-20.5 100t-5.5 185v233q0 67 -16 78q-11 11 -29.5 14t-101.5 6v70q201 6 364 78l25 -17q-12 -171 -12 -217v-237q0 -110 12.5 -164t44 -74t94.5 -20q84 0 135 42.5t54 112.5q0 45 4 66v262
q0 52 -11 71t-35 22t-102 5v70q200 6 365 78l24 -17q-12 -171 -12 -217v-483q0 -68 21 -78q10 -10 30.5 -13t96.5 -3v-82q-123 8 -218 8q-22 0 -70.5 -2.5t-105.5 -5.5l-12 12q13 55 19 83.5t6 64.5zM672 963h-90l213 208q70 64 97 81.5t58 17.5q37 0 57.5 -19t20.5 -51
q0 -31 -21 -51t-55.5 -36.5t-54.5 -27.5z" />
    <glyph glyph-name="guillemotright" unicode="&#xbb;" horiz-adv-x="926" 
d="M508 90l-49 37q59 101 205 324q-135 211 -205 335l49 41q45 -44 89 -89t81 -81.5t92 -87t102 -90.5v-49q-56 -47 -120 -105.5t-114.5 -107t-129.5 -127.5zM135 90l-53 37q59 101 205 324q-162 254 -205 335l53 41q70 -71 132.5 -134.5t111 -109.5t117.5 -104v-49
q-94 -82 -184.5 -166.5t-176.5 -173.5z" />
    <glyph glyph-name="onequarter" unicode="&#xbc;" horiz-adv-x="1176" 
d="M537 602q4 -70 4 -209v-225q0 -41 4 -62q33 0 98 -2t94 -2q69 0 142 6t129 15q19 58 45 188h77q-14 -91 -17 -141t-7 -166q-70 -12 -160 -12t-270 4t-270 4q-148 0 -218 -8v45q40 22 56.5 35t23 33t6.5 63v934q0 42 -10.5 61t-40 25.5t-112.5 11.5v78q67 -3 100.5 -3.5
t194.5 -4.5q88 0 143 1t110 1.5t121 1t154 0.5q110 0 172 -4l4 -13q-16 -76 -29 -262h-73q0 82 -4 123q-3 15 -7 21t-18 12q-88 20 -250 20q-30 0 -81.5 -3t-102.5 -5q0 -9 -2 -30t-2 -31v-197q0 -131 -4 -200q57 -5 122 -5q91 0 152 5.5t70 11.5q15 15 20 102q0 3 2 16
t2 21h78q-4 -65 -4 -201q0 -135 4 -204h-78q0 8 -2 21t-2 20q-3 69 -10 86t-35 20q-45 8 -197 8q-65 0 -122 -4zM463 1606q47 0 78.5 -32.5t31.5 -78.5q0 -29 -15.5 -55t-42 -41t-52.5 -15q-46 0 -78.5 32.5t-32.5 78.5t31.5 78.5t79.5 32.5zM848 1606q47 0 78.5 -32.5
t31.5 -78.5t-32.5 -78.5t-77.5 -32.5q-46 0 -78.5 32.5t-32.5 78.5t31.5 78.5t79.5 32.5z" />
    <glyph glyph-name="onehalf" unicode="&#xbd;" horiz-adv-x="946" 
d="M852 172l29 -25q-25 -48 -41 -90q-139 -82 -308 -82q-137 0 -233 55.5t-144.5 158.5t-48.5 237q0 83 14 147.5t44 110t78 78.5q110 75 173 99t150 24q107 0 182 -42t114.5 -123t39.5 -188q0 -36 -4 -69l-147 -33h-402q11 -103 48.5 -172.5t102 -106t152.5 -36.5
q99 0 201 57zM344 528q70 -8 164 -8q90 0 151 8q0 108 -29 183t-118 75q-88 0 -122 -52.5t-46 -205.5zM360 1241q47 0 79 -33t32 -78q0 -46 -32 -80t-79 -34q-46 0 -78 34t-32 80q0 30 15 55t40.5 40.5t54.5 15.5zM750 1241q27 0 52.5 -15.5t41.5 -41.5t16 -54
q0 -46 -33 -80t-77 -34q-47 0 -79 34t-32 80q0 30 15 55t40.5 40.5t55.5 15.5z" />
    <glyph glyph-name="threequarters" unicode="&#xbe;" horiz-adv-x="1409" 
d="M754 950v-229h94q141 0 260 -36.5t189.5 -109t70.5 -174.5q0 -95 -42 -175t-116 -135.5t-166 -78.5q-122 -16 -188 -16q-41 0 -125 4t-125 4q-30 0 -92 -2t-92 -2v41q46 31 74 53q4 45 4 135v721h-90q-167 0 -217 -20q-15 -8 -21.5 -39.5t-8.5 -73t-3 -55.5h-74v69
q0 152 -8 230q139 -4 418 -4q0 39 -13.5 61.5t-49 33t-97.5 11.5l16 70q42 -2 128 -15.5t138 -13.5h13q54 0 142.5 13.5t135.5 15.5l13 -74q-104 -3 -136 -20.5t-32 -85.5q107 0 198.5 2t239.5 6q-16 -206 -16 -299h-74v45q0 114 -37 127q-31 10 -104 13t-170 3h-37zM754 94
q13 0 42 -2t44 -2q74 0 118 21q74 36 107 105t33 157q0 160 -85 209t-259 49v-537z" />
    <glyph glyph-name="questiondown" unicode="&#xbf;" horiz-adv-x="1217" 
d="M676 840q184 0 356 8q6 -7 16.5 -18t12.5 -11q-8 -41 -13 -89t-9 -102.5t-7 -86.5h-65q-1 29 -2 71t-6.5 62t-23.5 35.5t-54 27.5q-6 1 -46 9t-65 8q-75 0 -90 -58v-209h98q86 0 177 -24t151.5 -70t60.5 -106q0 -87 -35.5 -147.5t-97 -94t-141.5 -49.5q-29 -4 -90 -4
q-43 0 -131 4t-131 4q-24 0 -98 -2t-99 -2v74q2 0 6 2t6 2q5 0 20 -2t21 -2q25 0 41 16q25 35 25 66v544q-8 32 -31.5 47t-54.5 15q-24 0 -64.5 -10t-50.5 -11q-35 -12 -51.5 -28t-22 -35.5t-6.5 -61.5t-2 -71h-65q-20 204 -33 278q5 0 16 11t17 18q155 0 348 -4v225
q0 34 -41 139l70 33q12 -20 33.5 -63.5t47.5 -92.5q9 18 38 84t32 72l78 -16q-45 -139 -45 -164v-221zM836 66q102 38 110 180q0 97 -55 134.5t-162 37.5h-49v-336q77 -25 102 -25q23 0 54 9z" />
    <glyph glyph-name="Agrave" unicode="&#xc0;" horiz-adv-x="1425" 
d="M655 1245h123l271 -643q15 -35 43 -102.5t46 -109.5t50 -116q17 -39 34 -79t40 -76q16 -30 40 -37t74 -12v-70q-82 4 -250 4q-204 0 -303 -4v70q73 0 104 8t31 45q0 25 -12 61l-94 242h-410l-69 -184q-33 -85 -33 -119q0 -23 14.5 -34t40.5 -14t80 -5v-70q-61 4 -184 4
q-148 0 -217 -4v70q49 6 75 16t39.5 27.5t32 61.5t33.5 79q70 164 114 271t96.5 235t106 265t84.5 220zM475 520h344l-176 438z" />
    <glyph glyph-name="Agrave" unicode="&#x410;" horiz-adv-x="1425" 
d="M655 1245h123l271 -643q15 -35 43 -102.5t46 -109.5t50 -116q17 -39 34 -79t40 -76q16 -30 40 -37t74 -12v-70q-82 4 -250 4q-204 0 -303 -4v70q73 0 104 8t31 45q0 25 -12 61l-94 242h-410l-69 -184q-33 -85 -33 -119q0 -23 14.5 -34t40.5 -14t80 -5v-70q-61 4 -184 4
q-148 0 -217 -4v70q49 6 75 16t39.5 27.5t32 61.5t33.5 79q70 164 114 271t96.5 235t106 265t84.5 220zM475 520h344l-176 438z" />
    <glyph glyph-name="Aacute" unicode="&#xc1;" horiz-adv-x="1176" 
d="M709 115q143 61 143 262q0 107 -39.5 162.5t-105.5 73.5t-170 18l24 90q147 -12 201 -21q154 -18 257 -88.5t103 -210.5q0 -93 -42 -173t-115.5 -135.5t-165.5 -76.5q-83 -16 -193 -16q-41 0 -123 4t-123 4q-32 0 -95 -4t-93 -4v41q38 21 78 53q0 22 2 67t2 68v754
q0 73 -29 110t-70 50t-65 20v70q222 -8 332 -8q88 0 266 4t266 4l25 -25q-12 -129 -12 -258h-70q-7 99 -16 152q-109 28 -234 28q-90 0 -135 -4q-8 -72 -8 -139v-893q13 0 42 -2t44 -2q65 0 119 25z" />
    <glyph glyph-name="Aacute" unicode="&#x411;" horiz-adv-x="1176" 
d="M709 115q143 61 143 262q0 107 -39.5 162.5t-105.5 73.5t-170 18l24 90q147 -12 201 -21q154 -18 257 -88.5t103 -210.5q0 -93 -42 -173t-115.5 -135.5t-165.5 -76.5q-83 -16 -193 -16q-41 0 -123 4t-123 4q-32 0 -95 -4t-93 -4v41q38 21 78 53q0 22 2 67t2 68v754
q0 73 -29 110t-70 50t-65 20v70q222 -8 332 -8q88 0 266 4t266 4l25 -25q-12 -129 -12 -258h-70q-7 99 -16 152q-109 28 -234 28q-90 0 -135 -4q-8 -72 -8 -139v-893q13 0 42 -2t44 -2q65 0 119 25z" />
    <glyph glyph-name="Acircumflex" unicode="&#xc2;" horiz-adv-x="1176" 
d="M172 0v41q38 21 78 53q0 22 2 67t2 68v754q0 89 -7 120t-34 41t-111 15v74q37 0 113 -4t113 -4q7 0 27 2t30 2q39 0 133 4t146 4q66 0 134 -6.5t115 -18.5q83 -24 125.5 -82.5t42.5 -138.5q0 -40 -12 -78q-17 -64 -63.5 -108t-102.5 -66.5t-141 -42.5
q102 -14 180.5 -41.5t129 -87.5t50.5 -161q0 -98 -41.5 -178.5t-114.5 -135.5t-167 -76q-83 -16 -193 -16q-41 0 -123 4t-123 4q-32 0 -95 -4t-93 -4zM709 115q143 61 143 262q0 113 -42.5 168.5t-114 72.5t-191.5 17v-541q13 0 42 -2t44 -2q65 0 119 25zM504 1004v-279
q154 0 235 43.5t84 185.5q0 107 -58.5 146t-158.5 39q-61 0 -90 -4q-1 -14 -4 -39t-5.5 -51t-2.5 -41z" />
    <glyph glyph-name="Acircumflex" unicode="&#x412;" horiz-adv-x="1176" 
d="M172 0v41q38 21 78 53q0 22 2 67t2 68v754q0 89 -7 120t-34 41t-111 15v74q37 0 113 -4t113 -4q7 0 27 2t30 2q39 0 133 4t146 4q66 0 134 -6.5t115 -18.5q83 -24 125.5 -82.5t42.5 -138.5q0 -40 -12 -78q-17 -64 -63.5 -108t-102.5 -66.5t-141 -42.5
q102 -14 180.5 -41.5t129 -87.5t50.5 -161q0 -98 -41.5 -178.5t-114.5 -135.5t-167 -76q-83 -16 -193 -16q-41 0 -123 4t-123 4q-32 0 -95 -4t-93 -4zM709 115q143 61 143 262q0 113 -42.5 168.5t-114 72.5t-191.5 17v-541q13 0 42 -2t44 -2q65 0 119 25zM504 1004v-279
q154 0 235 43.5t84 185.5q0 107 -58.5 146t-158.5 39q-61 0 -90 -4q-1 -14 -4 -39t-5.5 -51t-2.5 -41z" />
    <glyph glyph-name="Atilde" unicode="&#xc3;" horiz-adv-x="1024" 
d="M0 0h82v74h16q90 0 111 16q29 25 29 262v627q0 139 -25 160q-14 11 -35 15.5t-48.5 6t-39.5 2.5v70q222 -8 332 -8q88 0 266 4t266 4l25 -25q-12 -129 -12 -258h-70q-7 99 -16 152q-109 28 -238 28q-98 0 -147 -4q0 -17 -2 -56t-2 -58v-783q2 -65 6 -92t18 -41t40 -18
t87 -4h21v-74q-103 4 -312 4q-180 0 -352 -4z" />
    <glyph glyph-name="Atilde" unicode="&#x413;" horiz-adv-x="1024" 
d="M0 0h82v74h16q90 0 111 16q29 25 29 262v627q0 139 -25 160q-14 11 -35 15.5t-48.5 6t-39.5 2.5v70q222 -8 332 -8q88 0 266 4t266 4l25 -25q-12 -129 -12 -258h-70q-7 99 -16 152q-109 28 -238 28q-98 0 -147 -4q0 -17 -2 -56t-2 -58v-783q2 -65 6 -92t18 -41t40 -18
t87 -4h21v-74q-103 4 -312 4q-180 0 -352 -4z" />
    <glyph glyph-name="Adieresis" unicode="&#xc4;" horiz-adv-x="1352" 
d="M143 111q17 18 29 47.5t37 95.5q94 218 142.5 334.5t124 304t138.5 352.5h123l271 -643q15 -35 43 -102.5t46 -109.5t50 -116q10 -23 22.5 -55t25 -60t26.5 -48h86q-21 -160 -21 -299h-69q0 3 -2.5 8.5t-2.5 7.5v29q0 53 -5.5 86t-26.5 41q-60 16 -201 16h-614
q-134 0 -185 -20q-24 -8 -29 -64.5t-8 -103.5h-69v73q0 152 -8 226h77zM905 184l-303 774l-270 -716q-37 -95 -37 -119q0 -2 2 -8t2 -9h619v13q0 26 -13 65z" />
    <glyph glyph-name="Adieresis" unicode="&#x414;" horiz-adv-x="1352" 
d="M143 111q17 18 29 47.5t37 95.5q94 218 142.5 334.5t124 304t138.5 352.5h123l271 -643q15 -35 43 -102.5t46 -109.5t50 -116q10 -23 22.5 -55t25 -60t26.5 -48h86q-21 -160 -21 -299h-69q0 3 -2.5 8.5t-2.5 7.5v29q0 53 -5.5 86t-26.5 41q-60 16 -201 16h-614
q-134 0 -185 -20q-24 -8 -29 -64.5t-8 -103.5h-69v73q0 152 -8 226h77zM905 184l-303 774l-270 -716q-37 -95 -37 -119q0 -2 2 -8t2 -9h619v13q0 26 -13 65z" />
    <glyph glyph-name="Aring" unicode="&#xc5;" horiz-adv-x="1098" 
d="M143 0v41q54 26 86 53q9 101 9 135v754q-2 84 -4 108t-12.5 38t-38.5 20.5t-93 9.5v74q63 0 190 -2t191 -2q88 0 143 1t110 1.5t121 1t154 0.5l21 -25q-16 -164 -16 -245h-70q0 69 -12 143q-85 29 -234 29h-184q-8 -66 -8 -189v-254q14 0 64 -2t79 -2q102 0 152 12
q24 9 34.5 32t13 48t5.5 64h65q0 -37 -2 -111t-2 -110q0 -31 2 -90t2 -91h-65q-4 28 -8 59t-15.5 53.5t-34.5 31.5q-29 10 -94 13t-155 3h-41v-496h151q196 0 266 21q38 15 58 180h73q-20 -163 -20 -299q-82 -4 -238 -4h-356q-192 0 -287 -4z" />
    <glyph glyph-name="Aring" unicode="&#x415;" horiz-adv-x="1098" 
d="M143 0v41q54 26 86 53q9 101 9 135v754q-2 84 -4 108t-12.5 38t-38.5 20.5t-93 9.5v74q63 0 190 -2t191 -2q88 0 143 1t110 1.5t121 1t154 0.5l21 -25q-16 -164 -16 -245h-70q0 69 -12 143q-85 29 -234 29h-184q-8 -66 -8 -189v-254q14 0 64 -2t79 -2q102 0 152 12
q24 9 34.5 32t13 48t5.5 64h65q0 -37 -2 -111t-2 -110q0 -31 2 -90t2 -91h-65q-4 28 -8 59t-15.5 53.5t-34.5 31.5q-29 10 -94 13t-155 3h-41v-496h151q196 0 266 21q38 15 58 180h73q-20 -163 -20 -299q-82 -4 -238 -4h-356q-192 0 -287 -4z" />
    <glyph glyph-name="AE" unicode="&#xc6;" horiz-adv-x="1929" 
d="M840 193v393h-29q-62 -73 -119.5 -148.5t-92 -123t-82 -113.5t-144.5 -201q-49 4 -144 4q-114 0 -172 -4v74q59 0 99 45q53 56 86.5 98.5t70 92t105.5 141.5q70 94 119.5 160.5t89.5 125.5q-46 49 -84.5 90t-84 89.5t-108.5 109.5t-96 88q-32 25 -68.5 35.5t-87.5 13.5
v70q45 -4 144 -4q98 0 143 4q0 -53 13 -78t61 -82q56 -67 91 -108t89.5 -101t111.5 -121t89 -96v385q0 61 -9 86.5t-39.5 35t-103.5 9.5v70q82 -4 246 -4q209 0 311 4v-70q-78 -2 -107.5 -11t-36.5 -35.5t-7 -104.5v-365q66 70 98.5 105t110.5 121.5t104.5 117t67.5 82.5
q45 51 59 79t14 81q49 -4 144 -4q98 0 143 4v-70q-50 -4 -86.5 -14t-69.5 -35q-62 -51 -119.5 -108.5t-144.5 -152t-108 -116.5q50 -72 80.5 -113.5t63.5 -87.5t65 -85q12 -16 76.5 -103.5t104 -136.5t81.5 -92q33 -45 98 -45v-74q-57 4 -172 4q-94 0 -143 -4
q-54 75 -98.5 137t-112.5 155.5t-117 157t-111 136.5h-28v-332q0 -5 -2 -22t-2 -23q0 -65 9 -91t40.5 -35t105.5 -9v-74q-90 4 -278 4q-185 0 -279 -4v74q68 1 100.5 10t42 31.5t9.5 77.5z" />
    <glyph glyph-name="AE" unicode="&#x416;" horiz-adv-x="1929" 
d="M840 193v393h-29q-62 -73 -119.5 -148.5t-92 -123t-82 -113.5t-144.5 -201q-49 4 -144 4q-114 0 -172 -4v74q59 0 99 45q53 56 86.5 98.5t70 92t105.5 141.5q70 94 119.5 160.5t89.5 125.5q-46 49 -84.5 90t-84 89.5t-108.5 109.5t-96 88q-32 25 -68.5 35.5t-87.5 13.5
v70q45 -4 144 -4q98 0 143 4q0 -53 13 -78t61 -82q56 -67 91 -108t89.5 -101t111.5 -121t89 -96v385q0 61 -9 86.5t-39.5 35t-103.5 9.5v70q82 -4 246 -4q209 0 311 4v-70q-78 -2 -107.5 -11t-36.5 -35.5t-7 -104.5v-365q66 70 98.5 105t110.5 121.5t104.5 117t67.5 82.5
q45 51 59 79t14 81q49 -4 144 -4q98 0 143 4v-70q-50 -4 -86.5 -14t-69.5 -35q-62 -51 -119.5 -108.5t-144.5 -152t-108 -116.5q50 -72 80.5 -113.5t63.5 -87.5t65 -85q12 -16 76.5 -103.5t104 -136.5t81.5 -92q33 -45 98 -45v-74q-57 4 -172 4q-94 0 -143 -4
q-54 75 -98.5 137t-112.5 155.5t-117 157t-111 136.5h-28v-332q0 -5 -2 -22t-2 -23q0 -65 9 -91t40.5 -35t105.5 -9v-74q-90 4 -278 4q-185 0 -279 -4v74q68 1 100.5 10t42 31.5t9.5 77.5z" />
    <glyph glyph-name="Ccedilla" unicode="&#xc7;" horiz-adv-x="1176" 
d="M627 1266q203 0 328.5 -74t125.5 -201q0 -65 -50 -127.5t-124.5 -107t-144.5 -60.5q159 -22 259.5 -91t100.5 -216q0 -115 -73.5 -211.5t-208 -151.5t-308.5 -55q-90 0 -146.5 11t-92 27.5t-125.5 64.5q-13 17 -57 90l24 16q200 -98 336 -98q157 0 269 81t112 222
q0 113 -42.5 167t-112.5 68.5t-193 14.5v90q97 0 166 16t111 67t42 146q0 126 -71.5 167.5t-198.5 41.5q-64 0 -127.5 -34.5t-104.5 -100t-42 -147.5h-70q-4 106 -29 303q253 82 447 82z" />
    <glyph glyph-name="Ccedilla" unicode="&#x417;" horiz-adv-x="1176" 
d="M627 1266q203 0 328.5 -74t125.5 -201q0 -65 -50 -127.5t-124.5 -107t-144.5 -60.5q159 -22 259.5 -91t100.5 -216q0 -115 -73.5 -211.5t-208 -151.5t-308.5 -55q-90 0 -146.5 11t-92 27.5t-125.5 64.5q-13 17 -57 90l24 16q200 -98 336 -98q157 0 269 81t112 222
q0 113 -42.5 167t-112.5 68.5t-193 14.5v90q97 0 166 16t111 67t42 146q0 126 -71.5 167.5t-198.5 41.5q-64 0 -127.5 -34.5t-104.5 -100t-42 -147.5h-70q-4 106 -29 303q253 82 447 82z" />
    <glyph glyph-name="Egrave" unicode="&#xc8;" horiz-adv-x="1524" 
d="M0 0h90v74q70 2 101.5 11t41 32.5t9.5 79.5v835q0 60 -9.5 85t-41 34.5t-101.5 11.5v70q82 -4 250 -4q205 0 303 4v-70q-69 -1 -100.5 -20t-39 -52.5t-7.5 -107.5v-815q55 99 132.5 241t171.5 317.5t159 298t106 204.5q28 0 71 -2t60 -2q54 0 90.5 1.5t74 2.5t109.5 4
v-70q-68 -1 -101 -21.5t-41.5 -56.5t-8.5 -102v-729q0 -65 8.5 -101.5t41.5 -57t101 -21.5v-74q-94 4 -278 4q-180 0 -274 -4v74q71 2 103 10.5t40 33.5t8 87v844q-49 -90 -103 -189l-138 -253t-167 -305.5t-165 -301.5q-90 4 -201 4t-295 -4z" />
    <glyph glyph-name="Egrave" unicode="&#x418;" horiz-adv-x="1524" 
d="M0 0h90v74q70 2 101.5 11t41 32.5t9.5 79.5v835q0 60 -9.5 85t-41 34.5t-101.5 11.5v70q82 -4 250 -4q205 0 303 4v-70q-69 -1 -100.5 -20t-39 -52.5t-7.5 -107.5v-815q55 99 132.5 241t171.5 317.5t159 298t106 204.5q28 0 71 -2t60 -2q54 0 90.5 1.5t74 2.5t109.5 4
v-70q-68 -1 -101 -21.5t-41.5 -56.5t-8.5 -102v-729q0 -65 8.5 -101.5t41.5 -57t101 -21.5v-74q-94 4 -278 4q-180 0 -274 -4v74q71 2 103 10.5t40 33.5t8 87v844q-49 -90 -103 -189l-138 -253t-167 -305.5t-165 -301.5q-90 4 -201 4t-295 -4z" />
    <glyph glyph-name="Eacute" unicode="&#xc9;" horiz-adv-x="1524" 
d="M606 1225l21 184h53v-8q0 -34 39.5 -60t95.5 -26q62 0 116.5 35.5t76.5 107.5l45 -16q-28 -130 -112.5 -194t-186.5 -64q-87 0 -148 41zM90 0v74q70 2 101.5 11t41 32.5t9.5 79.5v835q0 60 -9.5 85t-41 34.5t-101.5 11.5v70q82 -4 406 -4v-1061q55 99 132.5 241
t171.5 317.5t159 298t106 204.5q28 0 71 -2t60 -2q54 0 90.5 1.5t74 2.5t109.5 4v-70q-68 -1 -101 -21.5t-41.5 -56.5t-8.5 -102v-729q0 -65 8.5 -101.5t41.5 -57t101 -21.5v-74q-94 4 -278 4q-180 0 -274 -4v74q71 2 103 10.5t40 33.5t8 87v844q-49 -90 -103 -189
l-138 -253t-167 -305.5t-165 -301.5q-90 4 -201 4t-205 -4z" />
    <glyph glyph-name="Eacute" unicode="&#x419;" horiz-adv-x="1524" 
d="M606 1225l21 184h53v-8q0 -34 39.5 -60t95.5 -26q62 0 116.5 35.5t76.5 107.5l45 -16q-28 -130 -112.5 -194t-186.5 -64q-87 0 -148 41zM90 0v74q70 2 101.5 11t41 32.5t9.5 79.5v835q0 60 -9.5 85t-41 34.5t-101.5 11.5v70q82 -4 406 -4v-1061q55 99 132.5 241
t171.5 317.5t159 298t106 204.5q28 0 71 -2t60 -2q54 0 90.5 1.5t74 2.5t109.5 4v-70q-68 -1 -101 -21.5t-41.5 -56.5t-8.5 -102v-729q0 -65 8.5 -101.5t41.5 -57t101 -21.5v-74q-94 4 -278 4q-180 0 -274 -4v74q71 2 103 10.5t40 33.5t8 87v844q-49 -90 -103 -189
l-138 -253t-167 -305.5t-165 -301.5q-90 4 -201 4t-205 -4z" />
    <glyph glyph-name="Ecircumflex" unicode="&#xca;" horiz-adv-x="1425" 
d="M86 0v74q70 1 102.5 10t41 33t8.5 84v823q0 65 -9 92t-40 37t-107 10v70q82 -4 254 -4q205 0 307 4v-70q-76 -2 -105.5 -10.5t-37.5 -34.5t-8 -94v-377h20q144 140 238.5 234.5t183.5 191.5q48 55 63 81.5t15 78.5q57 -4 159 -4q107 0 160 4v-70q-54 -4 -94.5 -13.5
t-77.5 -35.5q-74 -56 -134.5 -111t-125 -117.5t-154.5 -148.5q161 -203 234 -286q69 -83 110.5 -133.5t82.5 -98t94 -100.5q44 -45 110 -45v-74q-65 4 -192 4q-107 0 -160 -4q-179 227 -276.5 347.5t-210.5 238.5h-45v-332q0 -10 -2.5 -24t-2.5 -17q0 -62 9.5 -89t42 -38.5
t104.5 -11.5v-74q-90 4 -278 4q-185 0 -279 -4z" />
    <glyph glyph-name="Ecircumflex" unicode="&#x41a;" horiz-adv-x="1425" 
d="M86 0v74q70 1 102.5 10t41 33t8.5 84v823q0 65 -9 92t-40 37t-107 10v70q82 -4 254 -4q205 0 307 4v-70q-76 -2 -105.5 -10.5t-37.5 -34.5t-8 -94v-377h20q144 140 238.5 234.5t183.5 191.5q48 55 63 81.5t15 78.5q57 -4 159 -4q107 0 160 4v-70q-54 -4 -94.5 -13.5
t-77.5 -35.5q-74 -56 -134.5 -111t-125 -117.5t-154.5 -148.5q161 -203 234 -286q69 -83 110.5 -133.5t82.5 -98t94 -100.5q44 -45 110 -45v-74q-65 4 -192 4q-107 0 -160 -4q-179 227 -276.5 347.5t-210.5 238.5h-45v-332q0 -10 -2.5 -24t-2.5 -17q0 -62 9.5 -89t42 -38.5
t104.5 -11.5v-74q-90 4 -278 4q-185 0 -279 -4z" />
    <glyph glyph-name="Edieresis" unicode="&#xcb;" horiz-adv-x="1425" 
d="M373 242q-33 -85 -33 -119q0 -23 14.5 -34t40.5 -14t80 -5v-70q-61 4 -184 4q-148 0 -217 -4v70q49 6 75 16t39.5 27.5t32 61.5t33.5 79q70 164 114 271t96.5 235t106 265t84.5 220h123l271 -643q15 -35 43 -102.5t46 -109.5t50 -116q17 -39 34 -79t40 -76q16 -30 40 -37
t74 -12v-70q-82 4 -250 4q-204 0 -303 -4v70q73 0 104 8t31 45q0 25 -12 61l-303 774z" />
    <glyph glyph-name="Edieresis" unicode="&#x41b;" horiz-adv-x="1425" 
d="M373 242q-33 -85 -33 -119q0 -23 14.5 -34t40.5 -14t80 -5v-70q-61 4 -184 4q-148 0 -217 -4v70q49 6 75 16t39.5 27.5t32 61.5t33.5 79q70 164 114 271t96.5 235t106 265t84.5 220h123l271 -643q15 -35 43 -102.5t46 -109.5t50 -116q17 -39 34 -79t40 -76q16 -30 40 -37
t74 -12v-70q-82 4 -250 4q-204 0 -303 -4v70q73 0 104 8t31 45q0 25 -12 61l-303 774z" />
    <glyph glyph-name="Igrave" unicode="&#xcc;" horiz-adv-x="1810" 
d="M0 0h94v74h49q62 0 82 20q12 14 19 82.5t9.5 140t4.5 113.5l4 426v86q0 154 -24 188q-19 33 -103 33h-41v70q70 -4 217 -4q144 0 217 4q209 -501 414 -873q50 90 106 204t119 251q44 92 76.5 162t57.5 125.5t55 130.5q65 -4 200 -4q136 0 201 4v-70h-41q-62 0 -82 -24
q-24 -40 -24 -230v-622q0 -25 -2 -62t-2 -49q0 -44 9.5 -64.5t40 -29t97.5 -8.5v-74q-90 4 -274 4q-181 0 -275 -4v74q77 0 105.5 6t39.5 31t11 90v782q-197 -394 -283.5 -570.5t-191.5 -420.5h-62q-50 112 -110 242t-100 216.5t-117 252.5t-136 292h-12l12 -733
q0 -143 21 -168q18 -24 70 -24q8 0 25 2t24 2v-74q-140 8 -205 8q-21 0 -103.5 -2.5t-191.5 -5.5z" />
    <glyph glyph-name="Igrave" unicode="&#x41c;" horiz-adv-x="1810" 
d="M0 0h94v74h49q62 0 82 20q12 14 19 82.5t9.5 140t4.5 113.5l4 426v86q0 154 -24 188q-19 33 -103 33h-41v70q70 -4 217 -4q144 0 217 4q209 -501 414 -873q50 90 106 204t119 251q44 92 76.5 162t57.5 125.5t55 130.5q65 -4 200 -4q136 0 201 4v-70h-41q-62 0 -82 -24
q-24 -40 -24 -230v-622q0 -25 -2 -62t-2 -49q0 -44 9.5 -64.5t40 -29t97.5 -8.5v-74q-90 4 -274 4q-181 0 -275 -4v74q77 0 105.5 6t39.5 31t11 90v782q-197 -394 -283.5 -570.5t-191.5 -420.5h-62q-50 112 -110 242t-100 216.5t-117 252.5t-136 292h-12l12 -733
q0 -143 21 -168q18 -24 70 -24q8 0 25 2t24 2v-74q-140 8 -205 8q-21 0 -103.5 -2.5t-191.5 -5.5z" />
    <glyph glyph-name="Iacute" unicode="&#xcd;" horiz-adv-x="1524" 
d="M0 0h90v74q86 5 113.5 15.5t32 37.5t6.5 127v778q0 60 -9.5 85t-41 34.5t-101.5 11.5v70q82 -4 250 -4q205 0 303 4v-70q-69 -1 -100.5 -20t-39 -52.5t-7.5 -107.5v-270q188 -8 286 -8q91 0 287 8v315q0 65 -8.5 91t-40.5 35t-107 9v70q95 -4 279 -4t278 4v-70
q-68 -1 -101 -21.5t-41.5 -56.5t-8.5 -102v-729q0 -65 8.5 -101.5t41.5 -57t101 -21.5v-74q-94 4 -278 4q-180 0 -274 -4v74q71 2 103 10.5t40 33.5t8 87v397h-573v-348q0 -65 8.5 -101t40 -57t98.5 -22v-74q-90 4 -278 4q-181 0 -365 -4z" />
    <glyph glyph-name="Iacute" unicode="&#x41d;" horiz-adv-x="1524" 
d="M0 0h90v74q86 5 113.5 15.5t32 37.5t6.5 127v778q0 60 -9.5 85t-41 34.5t-101.5 11.5v70q82 -4 250 -4q205 0 303 4v-70q-69 -1 -100.5 -20t-39 -52.5t-7.5 -107.5v-270q188 -8 286 -8q91 0 287 8v315q0 65 -8.5 91t-40.5 35t-107 9v70q95 -4 279 -4t278 4v-70
q-68 -1 -101 -21.5t-41.5 -56.5t-8.5 -102v-729q0 -65 8.5 -101.5t41.5 -57t101 -21.5v-74q-94 4 -278 4q-180 0 -274 -4v74q71 2 103 10.5t40 33.5t8 87v397h-573v-348q0 -65 8.5 -101t40 -57t98.5 -22v-74q-90 4 -278 4q-181 0 -365 -4z" />
    <glyph glyph-name="Icircumflex" unicode="&#xce;" horiz-adv-x="1487" 
d="M111 606q0 204 89.5 354.5t246.5 228t360 77.5q179 0 325 -76t228 -214.5t82 -316.5q0 -157 -50 -285t-143 -218t-223.5 -137.5t-284.5 -47.5q-198 0 -339.5 76t-216 219.5t-74.5 339.5zM528 1081q-143 -128 -143 -434q0 -136 39.5 -271t127.5 -225t226 -90
q146 0 234 80.5t123.5 207t35.5 274.5q0 94 -22 188t-69 178t-121 135.5t-177 51.5q-147 0 -254 -95z" />
    <glyph glyph-name="Icircumflex" unicode="&#x41e;" horiz-adv-x="1487" 
d="M111 606q0 204 89.5 354.5t246.5 228t360 77.5q179 0 325 -76t228 -214.5t82 -316.5q0 -157 -50 -285t-143 -218t-223.5 -137.5t-284.5 -47.5q-198 0 -339.5 76t-216 219.5t-74.5 339.5zM528 1081q-143 -128 -143 -434q0 -136 39.5 -271t127.5 -225t226 -90
q146 0 234 80.5t123.5 207t35.5 274.5q0 94 -22 188t-69 178t-121 135.5t-177 51.5q-147 0 -254 -95z" />
    <glyph glyph-name="Idieresis" unicode="&#xcf;" horiz-adv-x="1524" 
d="M0 0h90v74q71 2 102 12t40.5 34.5t9.5 80.5v831q0 60 -9.5 85t-41 34.5t-101.5 11.5v70q82 -4 250 -4q205 0 303 4h270q95 -4 279 -4t278 4v-70q-68 -1 -101 -21.5t-41.5 -56.5t-8.5 -102v-729q0 -65 8.5 -101.5t41.5 -57t101 -21.5v-74q-94 4 -278 4q-180 0 -274 -4v74
q71 2 103 10.5t40 33.5t8 87v778q0 76 -10.5 107t-40.5 40t-105 9h-266q-74 0 -102.5 -9.5t-38.5 -41t-10 -105.5v-729q0 -65 8.5 -101t40 -57t98.5 -22v-74q-90 4 -278 4q-181 0 -365 -4z" />
    <glyph glyph-name="Idieresis" unicode="&#x41f;" horiz-adv-x="1524" 
d="M0 0h90v74q71 2 102 12t40.5 34.5t9.5 80.5v831q0 60 -9.5 85t-41 34.5t-101.5 11.5v70q82 -4 250 -4q205 0 303 4h270q95 -4 279 -4t278 4v-70q-68 -1 -101 -21.5t-41.5 -56.5t-8.5 -102v-729q0 -65 8.5 -101.5t41.5 -57t101 -21.5v-74q-94 4 -278 4q-180 0 -274 -4v74
q71 2 103 10.5t40 33.5t8 87v778q0 76 -10.5 107t-40.5 40t-105 9h-266q-74 0 -102.5 -9.5t-38.5 -41t-10 -105.5v-729q0 -65 8.5 -101t40 -57t98.5 -22v-74q-90 4 -278 4q-181 0 -365 -4z" />
    <glyph glyph-name="Eth" unicode="&#xd0;" horiz-adv-x="1139" 
d="M0 0h82v74h53q59 0 74 20q29 25 29 275v610q0 134 -21 156q-11 12 -32 17.5t-51.5 7.5t-43.5 3v70q54 0 165 -4t167 -4q20 0 61 2t62 2q25 0 84 2t92 2q146 0 255 -67t109 -203q0 -127 -80 -224.5t-206 -136.5q-82 -16 -127 -16q-60 0 -99 16q-9 16 -14 27l-10 22l12 17
h33q104 0 168.5 61t64.5 176q0 57 -17 102.5t-46.5 73.5t-72 43t-89.5 15q-39 0 -98 -9q-12 -85 -12 -167v-734q0 -79 9 -108.5t38.5 -38t103.5 -8.5h21v-74q-99 4 -291 4q-193 0 -373 -4z" />
    <glyph glyph-name="Eth" unicode="&#x420;" horiz-adv-x="1139" 
d="M0 0h82v74h53q59 0 74 20q29 25 29 275v610q0 134 -21 156q-11 12 -32 17.5t-51.5 7.5t-43.5 3v70q54 0 165 -4t167 -4q20 0 61 2t62 2q25 0 84 2t92 2q146 0 255 -67t109 -203q0 -127 -80 -224.5t-206 -136.5q-82 -16 -127 -16q-60 0 -99 16q-9 16 -14 27l-10 22l12 17
h33q104 0 168.5 61t64.5 176q0 57 -17 102.5t-46.5 73.5t-72 43t-89.5 15q-39 0 -98 -9q-12 -85 -12 -167v-734q0 -79 9 -108.5t38.5 -38t103.5 -8.5h21v-74q-99 4 -291 4q-193 0 -373 -4z" />
    <glyph glyph-name="Ntilde" unicode="&#xd1;" horiz-adv-x="1331" 
d="M1237 881h-66q-2 75 -9.5 120t-29.5 77t-67.5 54t-122.5 35q-65 9 -94 9q-162 0 -280 -92.5t-158 -256.5q-21 -86 -21 -168q0 -154 66 -294t188 -213q119 -70 266 -70q77 0 197 33q43 13 160 65l24 -16q-18 -30 -61 -90q-168 -103 -438 -103q-156 0 -286 46.5t-224.5 144
t-133.5 244.5q-28 97 -28 208q0 195 97 350t280 236q150 66 323 66q189 0 451 -82q-28 -168 -33 -303z" />
    <glyph glyph-name="Ntilde" unicode="&#x421;" horiz-adv-x="1331" 
d="M1237 881h-66q-2 75 -9.5 120t-29.5 77t-67.5 54t-122.5 35q-65 9 -94 9q-162 0 -280 -92.5t-158 -256.5q-21 -86 -21 -168q0 -154 66 -294t188 -213q119 -70 266 -70q77 0 197 33q43 13 160 65l24 -16q-18 -30 -61 -90q-168 -103 -438 -103q-156 0 -286 46.5t-224.5 144
t-133.5 244.5q-28 97 -28 208q0 195 97 350t280 236q150 66 323 66q189 0 451 -82q-28 -168 -33 -303z" />
    <glyph glyph-name="Ograve" unicode="&#xd2;" horiz-adv-x="1233" 
d="M352 0v74q72 2 103 12t40 34.5t9 80.5v827q0 62 -4 94h-94q-163 0 -213 -20q-15 -5 -21.5 -37t-8.5 -72.5t-3 -54.5h-74v66q0 155 -8 229q205 -4 610 -4q336 0 504 4q-16 -196 -16 -295h-74v41q0 114 -37 127q-55 16 -229 16h-74q0 -15 -2 -46t-2 -48v-831q0 -59 8.5 -82
t39.5 -31t107 -10v-74q-94 4 -282 4q-185 0 -279 -4z" />
    <glyph glyph-name="Ograve" unicode="&#x422;" horiz-adv-x="1233" 
d="M352 0v74q72 2 103 12t40 34.5t9 80.5v827q0 62 -4 94h-94q-163 0 -213 -20q-15 -5 -21.5 -37t-8.5 -72.5t-3 -54.5h-74v66q0 155 -8 229q205 -4 610 -4q336 0 504 4q-16 -196 -16 -295h-74v41q0 114 -37 127q-55 16 -229 16h-74q0 -15 -2 -46t-2 -48v-831q0 -59 8.5 -82
t39.5 -31t107 -10v-74q-94 4 -282 4q-185 0 -279 -4z" />
    <glyph glyph-name="Oacute" unicode="&#xd3;" horiz-adv-x="1274" 
d="M569 274q-31 74 -83 200t-110 252t-122.5 235t-118.5 157l-78 12v58q76 12 217 45q31 12 62 12q24 0 33 -8q33 -36 80 -122t95 -194t96.5 -224.5t76.5 -188.5q39 63 87 159t91.5 192t94 205.5t79.5 168.5q8 0 25 -2t24 -2q19 0 55 2t52 2l-4 -45q-64 -76 -154 -226
t-173 -301.5t-157 -295.5q-72 -133 -106.5 -190t-89.5 -109q-51 -37 -82 -54.5t-65.5 -27t-82.5 -9.5h-12v177l29 16q19 -29 57 -29q21 0 61 8q88 33 123 127z" />
    <glyph glyph-name="Oacute" unicode="&#x423;" horiz-adv-x="1274" 
d="M569 274q-31 74 -83 200t-110 252t-122.5 235t-118.5 157l-78 12v58q76 12 217 45q31 12 62 12q24 0 33 -8q33 -36 80 -122t95 -194t96.5 -224.5t76.5 -188.5q39 63 87 159t91.5 192t94 205.5t79.5 168.5q8 0 25 -2t24 -2q19 0 55 2t52 2l-4 -45q-64 -76 -154 -226
t-173 -301.5t-157 -295.5q-72 -133 -106.5 -190t-89.5 -109q-51 -37 -82 -54.5t-65.5 -27t-82.5 -9.5h-12v177l29 16q19 -29 57 -29q21 0 61 8q88 33 123 127z" />
    <glyph glyph-name="Ocircumflex" unicode="&#xd4;" horiz-adv-x="1561" 
d="M774 1225q217 0 303 8v-74q-88 0 -118 -15t-33 -63q166 0 300.5 -45t212 -140t77.5 -241q0 -125 -39.5 -215.5t-115.5 -150t-186 -88.5t-249 -29q2 -45 12.5 -64t40.5 -25.5t98 -8.5v-74q-33 2 -112.5 5t-182.5 3q-102 0 -171 -3t-95 -5v74q68 2 98.5 8.5t41 25.5
t12.5 64q-186 0 -319 52.5t-202 160t-69 270.5q0 145 77.5 240.5t211.5 140.5t301 45q-3 48 -32.5 63t-119.5 15v74q86 -8 258 -8zM926 1008v-770q121 0 202.5 46.5t121.5 138.5t40 228q0 186 -84.5 271.5t-279.5 85.5zM668 1008q-101 0 -170.5 -21.5t-112.5 -66t-62.5 -110
t-19.5 -159.5q0 -203 91.5 -308t273.5 -105v770z" />
    <glyph glyph-name="Ocircumflex" unicode="&#x424;" horiz-adv-x="1561" 
d="M774 1225q217 0 303 8v-74q-88 0 -118 -15t-33 -63q166 0 300.5 -45t212 -140t77.5 -241q0 -125 -39.5 -215.5t-115.5 -150t-186 -88.5t-249 -29q2 -45 12.5 -64t40.5 -25.5t98 -8.5v-74q-33 2 -112.5 5t-182.5 3q-102 0 -171 -3t-95 -5v74q68 2 98.5 8.5t41 25.5
t12.5 64q-186 0 -319 52.5t-202 160t-69 270.5q0 145 77.5 240.5t211.5 140.5t301 45q-3 48 -32.5 63t-119.5 15v74q86 -8 258 -8zM926 1008v-770q121 0 202.5 46.5t121.5 138.5t40 228q0 186 -84.5 271.5t-279.5 85.5zM668 1008q-101 0 -170.5 -21.5t-112.5 -66t-62.5 -110
t-19.5 -159.5q0 -203 91.5 -308t273.5 -105v770z" />
    <glyph glyph-name="Otilde" unicode="&#xd5;" horiz-adv-x="1253" 
d="M0 0h49v74q78 0 111 20q23 16 41.5 36.5t39.5 48.5t42 54q150 202 245 345q-56 102 -99.5 181.5t-72.5 129.5q-46 80 -85.5 132t-98.5 93l-94 12v58q20 3 50 9t93 21t82 19q13 2 37 9t37 7q20 0 29 -4q39 -16 92.5 -98.5t123 -214t74.5 -141.5q82 110 137.5 188.5
t100.5 150.5q2 5 12 25t15.5 35.5t5.5 34.5v12q77 -4 229 -4v-70q-54 -3 -75.5 -12t-51.5 -45q-87 -96 -163 -196.5t-152 -217.5q38 -71 96 -178t102.5 -186t96.5 -160q24 -35 43 -54t46 -29t62 -11v-74q-140 8 -209 8q-71 0 -139 -12q-61 116 -129.5 239t-136.5 240
q-174 -235 -267 -401q-20 -35 -20 -62q0 -2 2 -6t2 -6q-25 0 -74 2t-73 2q-10 0 -58 -2t-98 -2z" />
    <glyph glyph-name="Otilde" unicode="&#x425;" horiz-adv-x="1253" 
d="M0 0h49v74q78 0 111 20q23 16 41.5 36.5t39.5 48.5t42 54q150 202 245 345q-56 102 -99.5 181.5t-72.5 129.5q-46 80 -85.5 132t-98.5 93l-94 12v58q20 3 50 9t93 21t82 19q13 2 37 9t37 7q20 0 29 -4q39 -16 92.5 -98.5t123 -214t74.5 -141.5q82 110 137.5 188.5
t100.5 150.5q2 5 12 25t15.5 35.5t5.5 34.5v12q77 -4 229 -4v-70q-54 -3 -75.5 -12t-51.5 -45q-87 -96 -163 -196.5t-152 -217.5q38 -71 96 -178t102.5 -186t96.5 -160q24 -35 43 -54t46 -29t62 -11v-74q-140 8 -209 8q-71 0 -139 -12q-61 116 -129.5 239t-136.5 240
q-174 -235 -267 -401q-20 -35 -20 -62q0 -2 2 -6t2 -6q-25 0 -74 2t-73 2q-10 0 -58 -2t-98 -2z" />
    <glyph glyph-name="Odieresis" unicode="&#xd6;" horiz-adv-x="1524" 
d="M610 106q41 0 123 -2t123 -2q15 0 43 2t43 2q65 3 88.5 12.5t31 37.5t7.5 98v774q0 65 -8.5 91t-40.5 35t-107 9v70q95 -4 279 -4t278 4v-70q-69 -1 -101.5 -22.5t-41 -57t-8.5 -100.5v-729q0 -101 37 -143h114q-16 -198 -16 -299h-74v49q0 108 -37 123q-53 16 -229 16
h-352q-90 4 -336 4q-242 0 -336 -4v74q68 1 100.5 12.5t42 36t9.5 78.5v831q0 60 -9.5 85t-41 34.5t-101.5 11.5v70q82 -4 250 -4q205 0 303 4v-70q-70 -1 -101 -21t-38.5 -53.5t-7.5 -105.5v-729q0 -70 5.5 -96.5t27.5 -37.5t81 -14z" />
    <glyph glyph-name="Odieresis" unicode="&#x426;" horiz-adv-x="1524" 
d="M610 106q41 0 123 -2t123 -2q15 0 43 2t43 2q65 3 88.5 12.5t31 37.5t7.5 98v774q0 65 -8.5 91t-40.5 35t-107 9v70q95 -4 279 -4t278 4v-70q-69 -1 -101.5 -22.5t-41 -57t-8.5 -100.5v-729q0 -101 37 -143h114q-16 -198 -16 -299h-74v49q0 108 -37 123q-53 16 -229 16
h-352q-90 4 -336 4q-242 0 -336 -4v74q68 1 100.5 12.5t42 36t9.5 78.5v831q0 60 -9.5 85t-41 34.5t-101.5 11.5v70q82 -4 250 -4q205 0 303 4v-70q-70 -1 -101 -21t-38.5 -53.5t-7.5 -105.5v-729q0 -70 5.5 -96.5t27.5 -37.5t81 -14z" />
    <glyph glyph-name="multiply" unicode="&#xd7;" horiz-adv-x="1446" 
d="M1004 717v311q0 65 -8.5 91t-40 35t-103.5 9v70q90 -4 274 -4q185 0 279 4v-70q-66 -1 -98.5 -21.5t-41 -56.5t-8.5 -102v-729q0 -65 8.5 -101.5t41 -57t98.5 -21.5v-74q-90 4 -275 4q-184 0 -274 -4v74q69 1 100.5 10t39.5 34t8 87v397q-43 -22 -145.5 -56t-219.5 -34
q-95 0 -185.5 32.5t-149 91.5t-58.5 134v262q0 60 -9.5 85t-41 34.5t-101.5 11.5v70q82 -4 246 -4q205 0 303 4v-70q-73 -2 -102 -10t-37 -33.5t-8 -91.5v-213q0 -63 41 -108.5t95.5 -67t96.5 -21.5q77 0 152 27t123 72z" />
    <glyph glyph-name="multiply" unicode="&#x427;" horiz-adv-x="1446" 
d="M1004 717v311q0 65 -8.5 91t-40 35t-103.5 9v70q90 -4 274 -4q185 0 279 4v-70q-66 -1 -98.5 -21.5t-41 -56.5t-8.5 -102v-729q0 -65 8.5 -101.5t41 -57t98.5 -21.5v-74q-90 4 -275 4q-184 0 -274 -4v74q69 1 100.5 10t39.5 34t8 87v397q-43 -22 -145.5 -56t-219.5 -34
q-95 0 -185.5 32.5t-149 91.5t-58.5 134v262q0 60 -9.5 85t-41 34.5t-101.5 11.5v70q82 -4 246 -4q205 0 303 4v-70q-73 -2 -102 -10t-37 -33.5t-8 -91.5v-213q0 -63 41 -108.5t95.5 -67t96.5 -21.5q77 0 152 27t123 72z" />
    <glyph glyph-name="Oslash" unicode="&#xd8;" horiz-adv-x="1909" 
d="M1438 254v778q0 61 -8.5 86.5t-38.5 35t-105 9.5v70q164 -8 238 -8q103 0 307 8v-70q-69 0 -93.5 -4t-33 -19.5t-8.5 -54.5v-831q0 -78 8 -112t40.5 -51t106.5 -17v-74q-30 2 -108.5 5t-186.5 3q-86 0 -274 -8q-180 8 -233 8q-68 0 -185 -4t-180 -4q-102 4 -283 4
q-107 0 -183.5 -1.5t-106.5 -2.5v74q69 1 100 10t39 31.5t8 77.5v839q0 61 -8.5 86.5t-37.5 35t-101 9.5v70q154 -8 233 -8q103 0 307 8v-70q-89 0 -112 -16t-23 -74v-819q0 -61 3 -98.5t18 -53.5q22 0 99 -2t122 -2q12 0 34 2t31 2q25 0 25 86v844q0 61 -8.5 86.5t-38.5 35
t-105 9.5v70q164 -8 238 -8q95 0 307 8v-70q-62 0 -90 -8t-36.5 -26.5t-8.5 -59.5v-815q0 -123 33 -156q56 0 88.5 1t61.5 1.5t59.5 1t64.5 0.5q18 15 21.5 45.5t3.5 106.5z" />
    <glyph glyph-name="Oslash" unicode="&#x428;" horiz-adv-x="1909" 
d="M1438 254v778q0 61 -8.5 86.5t-38.5 35t-105 9.5v70q164 -8 238 -8q103 0 307 8v-70q-69 0 -93.5 -4t-33 -19.5t-8.5 -54.5v-831q0 -78 8 -112t40.5 -51t106.5 -17v-74q-30 2 -108.5 5t-186.5 3q-86 0 -274 -8q-180 8 -233 8q-68 0 -185 -4t-180 -4q-102 4 -283 4
q-107 0 -183.5 -1.5t-106.5 -2.5v74q69 1 100 10t39 31.5t8 77.5v839q0 61 -8.5 86.5t-37.5 35t-101 9.5v70q154 -8 233 -8q103 0 307 8v-70q-89 0 -112 -16t-23 -74v-819q0 -61 3 -98.5t18 -53.5q22 0 99 -2t122 -2q12 0 34 2t31 2q25 0 25 86v844q0 61 -8.5 86.5t-38.5 35
t-105 9.5v70q164 -8 238 -8q95 0 307 8v-70q-62 0 -90 -8t-36.5 -26.5t-8.5 -59.5v-815q0 -123 33 -156q56 0 88.5 1t61.5 1.5t59.5 1t64.5 0.5q18 15 21.5 45.5t3.5 106.5z" />
    <glyph glyph-name="Ugrave" unicode="&#xd9;" horiz-adv-x="1909" 
d="M1556 8q-86 0 -274 -8q-180 8 -233 8q-68 0 -185 -4t-180 -4q-102 4 -283 4q-107 0 -183.5 -1.5t-106.5 -2.5v74q69 1 100 10t39 31.5t8 77.5v839q0 61 -8.5 86.5t-37.5 35t-101 9.5v70q154 -8 233 -8q103 0 307 8v-70q-89 0 -112 -16t-23 -74v-819q0 -61 3 -98.5
t18 -53.5q22 0 99 -2t122 -2q12 0 34 2t31 2q25 0 25 86v844q0 61 -8.5 86.5t-38.5 35t-105 9.5v70q164 -8 238 -8q95 0 307 8v-70q-62 0 -90 -8t-36.5 -26.5t-8.5 -59.5v-815q0 -123 33 -156q56 0 88.5 1t61.5 1.5t59.5 1t64.5 0.5q18 15 21.5 45.5t3.5 106.5v778
q0 61 -8.5 86.5t-38.5 35t-105 9.5v70q164 -8 238 -8q103 0 307 8v-70q-69 0 -93.5 -4t-33 -19.5t-8.5 -54.5v-831q0 -106 53 -143h115q-17 -187 -17 -299h-73v49q0 147 -218 147z" />
    <glyph glyph-name="Ugrave" unicode="&#x429;" horiz-adv-x="1909" 
d="M1556 8q-86 0 -274 -8q-180 8 -233 8q-68 0 -185 -4t-180 -4q-102 4 -283 4q-107 0 -183.5 -1.5t-106.5 -2.5v74q69 1 100 10t39 31.5t8 77.5v839q0 61 -8.5 86.5t-37.5 35t-101 9.5v70q154 -8 233 -8q103 0 307 8v-70q-89 0 -112 -16t-23 -74v-819q0 -61 3 -98.5
t18 -53.5q22 0 99 -2t122 -2q12 0 34 2t31 2q25 0 25 86v844q0 61 -8.5 86.5t-38.5 35t-105 9.5v70q164 -8 238 -8q95 0 307 8v-70q-62 0 -90 -8t-36.5 -26.5t-8.5 -59.5v-815q0 -123 33 -156q56 0 88.5 1t61.5 1.5t59.5 1t64.5 0.5q18 15 21.5 45.5t3.5 106.5v778
q0 61 -8.5 86.5t-38.5 35t-105 9.5v70q164 -8 238 -8q103 0 307 8v-70q-69 0 -93.5 -4t-33 -19.5t-8.5 -54.5v-831q0 -106 53 -143h115q-17 -187 -17 -299h-73v49q0 147 -218 147z" />
    <glyph glyph-name="Uacute" unicode="&#xda;" horiz-adv-x="1389" 
d="M729 983v-258q193 0 258 -12q97 -12 177.5 -42.5t132 -95.5t51.5 -165q0 -72 -24.5 -138.5t-68 -118t-102.5 -86t-129 -51.5q-102 -20 -184 -20q-43 0 -129 6t-129 6q-31 0 -92 -4t-93 -4v41q47 26 74 53q8 90 8 135v775q0 22 -4 65t-4 66q-73 0 -154.5 -8.5
t-123.5 -24.5q-15 -5 -21.5 -37t-8.5 -72.5t-3 -54.5h-74v66q0 155 -8 229q205 -4 434 -4q201 0 369 4v-74q-62 -3 -91 -9.5t-41.5 -21.5t-16 -44.5t-3.5 -100.5zM1077 385q0 113 -42.5 167t-112.5 68.5t-193 14.5v-541q15 0 43 -2t43 -2q65 0 119 25q76 33 109.5 105
t33.5 165z" />
    <glyph glyph-name="Uacute" unicode="&#x42a;" horiz-adv-x="1389" 
d="M729 983v-258q193 0 258 -12q97 -12 177.5 -42.5t132 -95.5t51.5 -165q0 -72 -24.5 -138.5t-68 -118t-102.5 -86t-129 -51.5q-102 -20 -184 -20q-43 0 -129 6t-129 6q-31 0 -92 -4t-93 -4v41q47 26 74 53q8 90 8 135v775q0 22 -4 65t-4 66q-73 0 -154.5 -8.5
t-123.5 -24.5q-15 -5 -21.5 -37t-8.5 -72.5t-3 -54.5h-74v66q0 155 -8 229q205 -4 434 -4q201 0 369 4v-74q-62 -3 -91 -9.5t-41.5 -21.5t-16 -44.5t-3.5 -100.5zM1077 385q0 113 -42.5 167t-112.5 68.5t-193 14.5v-541q15 0 43 -2t43 -2q65 0 119 25q76 33 109.5 105
t33.5 165z" />
    <glyph glyph-name="Ucircumflex" unicode="&#xdb;" horiz-adv-x="1774" 
d="M492 94q11 0 41 -2t45 -2q72 0 118 21q74 36 107 105t33 157q0 160 -85 209t-259 49v-537zM1159 1233q164 -8 246 -8q111 0 315 8v-74q-73 0 -104.5 -17.5t-39 -51t-7.5 -111.5v-725q0 -64 8.5 -101t42 -58t100.5 -21v-74q-94 4 -278 4q-189 0 -283 -4v74q76 2 106 9.5
t38 30t8 79.5v839q0 58 -8.5 83t-38.5 34.5t-105 9.5v74zM582 721q131 0 252.5 -36.5t196.5 -109t75 -174.5q0 -95 -42 -175t-116 -135.5t-166 -78.5q-122 -16 -188 -16q-41 0 -125 4t-125 4q-30 0 -92 -2t-92 -2v41q47 31 73 53q5 45 5 135v795q0 61 -8 87.5t-40 38.5
t-100 13v70q148 -8 225 -8q112 0 332 8v-74q-75 0 -107 -14t-40 -45.5t-8 -112.5v-266h90z" />
    <glyph glyph-name="Ucircumflex" unicode="&#x42b;" horiz-adv-x="1774" 
d="M492 94q11 0 41 -2t45 -2q72 0 118 21q74 36 107 105t33 157q0 160 -85 209t-259 49v-537zM1159 1233q164 -8 246 -8q111 0 315 8v-74q-73 0 -104.5 -17.5t-39 -51t-7.5 -111.5v-725q0 -64 8.5 -101t42 -58t100.5 -21v-74q-94 4 -278 4q-189 0 -283 -4v74q76 2 106 9.5
t38 30t8 79.5v839q0 58 -8.5 83t-38.5 34.5t-105 9.5v74zM582 721q131 0 252.5 -36.5t196.5 -109t75 -174.5q0 -95 -42 -175t-116 -135.5t-166 -78.5q-122 -16 -188 -16q-41 0 -125 4t-125 4q-30 0 -92 -2t-92 -2v41q47 31 73 53q5 45 5 135v795q0 61 -8 87.5t-40 38.5
t-100 13v70q148 -8 225 -8q112 0 332 8v-74q-75 0 -107 -14t-40 -45.5t-8 -112.5v-266h90z" />
    <glyph glyph-name="Udieresis" unicode="&#xdc;" horiz-adv-x="1159" 
d="M492 94q11 0 41 -2t45 -2q72 0 118 21q74 36 107 105t33 157q0 160 -85 209t-259 49v-537zM582 721q131 0 252.5 -36.5t196.5 -109t75 -174.5q0 -95 -42 -175t-116 -135.5t-166 -78.5q-122 -16 -188 -16q-41 0 -125 4t-125 4q-30 0 -92 -2t-92 -2v41q47 31 73 53
q5 45 5 135v795q0 61 -8 87.5t-40 38.5t-100 13v70q148 -8 225 -8q112 0 332 8v-74q-75 0 -107 -14t-40 -45.5t-8 -112.5v-266h90z" />
    <glyph glyph-name="Udieresis" unicode="&#x42c;" horiz-adv-x="1159" 
d="M492 94q11 0 41 -2t45 -2q72 0 118 21q74 36 107 105t33 157q0 160 -85 209t-259 49v-537zM582 721q131 0 252.5 -36.5t196.5 -109t75 -174.5q0 -95 -42 -175t-116 -135.5t-166 -78.5q-122 -16 -188 -16q-41 0 -125 4t-125 4q-30 0 -92 -2t-92 -2v41q47 31 73 53
q5 45 5 135v795q0 61 -8 87.5t-40 38.5t-100 13v70q148 -8 225 -8q112 0 332 8v-74q-75 0 -107 -14t-40 -45.5t-8 -112.5v-266h90z" />
    <glyph glyph-name="Yacute" unicode="&#xdd;" horiz-adv-x="1331" 
d="M999 713q0 28 -16 110q-27 111 -90 189.5t-152 118.5t-196 40q-30 0 -94 -8q-98 -16 -145.5 -48.5t-63 -87t-17.5 -146.5h-65q-11 137 -37 303q83 25 160 43.5t148 28.5t142 10q174 0 324 -66q124 -55 209 -144t126.5 -203.5t41.5 -238.5q0 -113 -29 -208
q-56 -220 -229.5 -327.5t-409.5 -107.5q-127 0 -237 23.5t-205 79.5q-11 15 -35 48.5t-27 37.5l25 16q110 -50 160 -61q96 -33 192 -33q150 0 275 70q64 38 114 98t80.5 131t42.5 151q2 12 5.5 50t7.5 57q-13 -8 -64.5 -44.5t-92.5 -65.5t-65 -42q-41 13 -114.5 37.5
t-125.5 42t-112 35.5q-83 25 -119 25q-34 0 -60 -15.5t-95 -66.5l-21 69q5 4 65.5 57.5t101 83t79.5 44.5q43 -12 127.5 -38.5t153 -46.5t145.5 -38q32 -8 49 -8q55 0 143 45z" />
    <glyph glyph-name="Yacute" unicode="&#x42d;" horiz-adv-x="1331" 
d="M999 713q0 28 -16 110q-27 111 -90 189.5t-152 118.5t-196 40q-30 0 -94 -8q-98 -16 -145.5 -48.5t-63 -87t-17.5 -146.5h-65q-11 137 -37 303q83 25 160 43.5t148 28.5t142 10q174 0 324 -66q124 -55 209 -144t126.5 -203.5t41.5 -238.5q0 -113 -29 -208
q-56 -220 -229.5 -327.5t-409.5 -107.5q-127 0 -237 23.5t-205 79.5q-11 15 -35 48.5t-27 37.5l25 16q110 -50 160 -61q96 -33 192 -33q150 0 275 70q64 38 114 98t80.5 131t42.5 151q2 12 5.5 50t7.5 57q-13 -8 -64.5 -44.5t-92.5 -65.5t-65 -42q-41 13 -114.5 37.5
t-125.5 42t-112 35.5q-83 25 -119 25q-34 0 -60 -15.5t-95 -66.5l-21 69q5 4 65.5 57.5t101 83t79.5 44.5q43 -12 127.5 -38.5t153 -46.5t145.5 -38q32 -8 49 -8q55 0 143 45z" />
    <glyph glyph-name="Thorn" unicode="&#xde;" horiz-adv-x="1888" 
d="M500 602v-348q0 -66 8.5 -102t41.5 -55t101 -19v-78q-188 8 -278 8q-91 0 -279 -8v78q68 1 100.5 10t42 31.5t9.5 77.5v839q0 58 -9.5 83t-40.5 34.5t-102 9.5v70q39 0 117 -2t117 -2q71 0 116.5 1t90.5 2t116 1v-70q-68 0 -101 -19.5t-41.5 -55.5t-8.5 -105v-274h53
q18 0 58 2t61 2q22 155 109.5 281.5t219 199t281.5 72.5h57q121 -6 215 -50.5t159 -122t99.5 -187t34.5 -238.5q0 -159 -41 -288.5t-120.5 -220t-193 -137.5t-255.5 -47q-152 0 -279 87t-203 231.5t-87 308.5h-168zM1585 618q0 88 -18.5 186t-58 182t-101 137t-141.5 53
q-124 0 -217 -95q-62 -70 -88.5 -188.5t-26.5 -245.5q4 -224 82.5 -405t245.5 -181q118 0 191 82t102.5 209t29.5 266z" />
    <glyph glyph-name="Thorn" unicode="&#x42e;" horiz-adv-x="1888" 
d="M500 602v-348q0 -66 8.5 -102t41.5 -55t101 -19v-78q-188 8 -278 8q-91 0 -279 -8v78q68 1 100.5 10t42 31.5t9.5 77.5v839q0 58 -9.5 83t-40.5 34.5t-102 9.5v70q39 0 117 -2t117 -2q71 0 116.5 1t90.5 2t116 1v-70q-68 0 -101 -19.5t-41.5 -55.5t-8.5 -105v-274h53
q18 0 58 2t61 2q22 155 109.5 281.5t219 199t281.5 72.5h57q121 -6 215 -50.5t159 -122t99.5 -187t34.5 -238.5q0 -159 -41 -288.5t-120.5 -220t-193 -137.5t-255.5 -47q-152 0 -279 87t-203 231.5t-87 308.5h-168zM1585 618q0 88 -18.5 186t-58 182t-101 137t-141.5 53
q-124 0 -217 -95q-62 -70 -88.5 -188.5t-26.5 -245.5q4 -224 82.5 -405t245.5 -181q118 0 191 82t102.5 209t29.5 266z" />
    <glyph glyph-name="germandbls" unicode="&#xdf;" horiz-adv-x="1311" 
d="M1270 4q-45 0 -135 2t-136 2q-45 0 -137 -2t-137 -2v74q66 0 94 7.5t38.5 30.5t10.5 77v770q0 114 -4 172q-17 0 -51 2t-51 2q-56 0 -112.5 -26t-95 -78t-38.5 -122q0 -102 74 -176q73 -78 217 -78l12 -32q-61 -74 -102 -135l-320 -488h-315v74q32 1 57 14.5t44 35.5
t39 54.5t32 50.5l274 418q-86 42 -136.5 77t-88.5 95q-45 76 -45 164q0 101 61 164q82 82 242 82q33 4 98 4q41 0 123 -2t123 -2q18 0 59 -2t60 -2q90 0 246 8v-70q-15 -1 -44 -3t-50 -7.5t-33 -17.5q-17 -17 -17 -115v-877q0 -24 34.5 -46.5t60.5 -22.5h49v-74z" />
    <glyph glyph-name="germandbls" unicode="&#x42f;" horiz-adv-x="1311" 
d="M1270 4q-45 0 -135 2t-136 2q-45 0 -137 -2t-137 -2v74q66 0 94 7.5t38.5 30.5t10.5 77v770q0 114 -4 172q-17 0 -51 2t-51 2q-56 0 -112.5 -26t-95 -78t-38.5 -122q0 -102 74 -176q73 -78 217 -78l12 -32q-61 -74 -102 -135l-320 -488h-315v74q32 1 57 14.5t44 35.5
t39 54.5t32 50.5l274 418q-86 42 -136.5 77t-88.5 95q-45 76 -45 164q0 101 61 164q82 82 242 82q33 4 98 4q41 0 123 -2t123 -2q18 0 59 -2t60 -2q90 0 246 8v-70q-15 -1 -44 -3t-50 -7.5t-33 -17.5q-17 -17 -17 -115v-877q0 -24 34.5 -46.5t60.5 -22.5h49v-74z" />
    <glyph glyph-name="agrave" unicode="&#xe0;" horiz-adv-x="926" 
d="M565 422q-163 -18 -217 -94q-24 -42 -24 -78q0 -15 4 -30t7 -23.5t9 -24.5q29 -45 90 -45q69 0 131 82v213zM881 0h-320q0 18 2 56t2 59l-151 -107q-46 -28 -119 -28q-78 0 -135.5 53t-57.5 127q0 156 137 231.5t326 104.5v32q0 112 -53 156q-49 33 -115 33
q-44 0 -82 -12q-42 -43 -65 -103l-66 8q0 45 9 119q41 28 76.5 50.5t69 38t74 23t87.5 7.5q79 0 145 -27.5t100 -87.5q33 -56 33 -155v-406q0 -55 5.5 -73.5t24 -25.5t73.5 -12v-61z" />
    <glyph glyph-name="agrave" unicode="&#x430;" horiz-adv-x="926" 
d="M565 422q-163 -18 -217 -94q-24 -42 -24 -78q0 -15 4 -30t7 -23.5t9 -24.5q29 -45 90 -45q69 0 131 82v213zM881 0h-320q0 18 2 56t2 59l-151 -107q-46 -28 -119 -28q-78 0 -135.5 53t-57.5 127q0 156 137 231.5t326 104.5v32q0 112 -53 156q-49 33 -115 33
q-44 0 -82 -12q-42 -43 -65 -103l-66 8q0 45 9 119q41 28 76.5 50.5t69 38t74 23t87.5 7.5q79 0 145 -27.5t100 -87.5q33 -56 33 -155v-406q0 -55 5.5 -73.5t24 -25.5t73.5 -12v-61z" />
    <glyph glyph-name="aacute" unicode="&#xe1;" horiz-adv-x="1004" 
d="M365 1036q-44 -40 -61 -80t-17 -104q0 -29 8 -135q28 30 74.5 60t109.5 52.5t127 22.5q79 0 145 -35t110.5 -93.5t68.5 -133t24 -156.5q0 -148 -49.5 -250.5t-151 -155.5t-253.5 -53q-105 0 -181.5 31.5t-124 90.5t-70 139.5t-22.5 181.5q0 178 22.5 300.5t63.5 200.5
t103 146q59 65 108 102.5t96 51.5t107 14q45 0 74 -4q8 0 22 -2t19 -2q52 0 86 24h61q0 -31 -14 -77.5t-23 -74t-38.5 -38t-92.5 -10.5q-11 0 -37 2t-41 2q-43 0 -101 8t-71 8q-49 0 -81 -33zM537 57q151 0 172 283q0 10 2 49t2 62q0 73 -16.5 147t-60 125t-116.5 51
q-95 0 -133.5 -91t-38.5 -216q0 -10 -2 -36t-2 -42q0 -73 18.5 -149t62.5 -129.5t112 -53.5z" />
    <glyph glyph-name="aacute" unicode="&#x431;" horiz-adv-x="1004" 
d="M365 1036q-44 -40 -61 -80t-17 -104q0 -29 8 -135q28 30 74.5 60t109.5 52.5t127 22.5q79 0 145 -35t110.5 -93.5t68.5 -133t24 -156.5q0 -148 -49.5 -250.5t-151 -155.5t-253.5 -53q-105 0 -181.5 31.5t-124 90.5t-70 139.5t-22.5 181.5q0 178 22.5 300.5t63.5 200.5
t103 146q59 65 108 102.5t96 51.5t107 14q45 0 74 -4q8 0 22 -2t19 -2q52 0 86 24h61q0 -31 -14 -77.5t-23 -74t-38.5 -38t-92.5 -10.5q-11 0 -37 2t-41 2q-43 0 -101 8t-71 8q-49 0 -81 -33zM537 57q151 0 172 283q0 10 2 49t2 62q0 73 -16.5 147t-60 125t-116.5 51
q-95 0 -133.5 -91t-38.5 -216q0 -10 -2 -36t-2 -42q0 -73 18.5 -149t62.5 -129.5t112 -53.5z" />
    <glyph glyph-name="acircumflex" unicode="&#xe2;" horiz-adv-x="967" 
d="M430 496q8 0 24 -2t21 -2q91 0 146 37t55 118q0 47 -39 81t-88 34h-119v-266zM565 831q101 0 172 -23t107.5 -65t36.5 -100q0 -139 -189 -176q105 -3 165.5 -53t60.5 -119q0 -70 -43 -139.5t-131 -114.5t-212 -45q-41 0 -123 2t-118 2h-209v70q65 0 102 16q25 19 25 78
v495q0 59 -26.5 81t-100.5 22v65q71 0 156.5 1t170.5 2t156 1zM696 262q0 69 -52 116.5t-148 47.5q-45 0 -66 -4v-340q60 -25 107 -25q30 0 73 17q43 24 64.5 73t21.5 115z" />
    <glyph glyph-name="acircumflex" unicode="&#x432;" horiz-adv-x="967" 
d="M430 496q8 0 24 -2t21 -2q91 0 146 37t55 118q0 47 -39 81t-88 34h-119v-266zM565 831q101 0 172 -23t107.5 -65t36.5 -100q0 -139 -189 -176q105 -3 165.5 -53t60.5 -119q0 -70 -43 -139.5t-131 -114.5t-212 -45q-41 0 -123 2t-118 2h-209v70q65 0 102 16q25 19 25 78
v495q0 59 -26.5 81t-100.5 22v65q71 0 156.5 1t170.5 2t156 1zM696 262q0 69 -52 116.5t-148 47.5q-45 0 -66 -4v-340q60 -25 107 -25q30 0 73 17q43 24 64.5 73t21.5 115z" />
    <glyph glyph-name="atilde" unicode="&#xe3;" horiz-adv-x="905" 
d="M184 86q25 12 25 115v450q0 58 -21 86q-20 21 -65 21h-25q-2 0 -8 2t-8 2v65h119q140 0 337 5.5t306 7.5q8 -188 20 -287h-69q-2 14 -6.5 43.5t-11 55.5t-18 46t-30.5 27q-82 25 -291 25q0 -13 -4 -33t-4 -33v-537q0 -38 6.5 -53t35 -21.5t93.5 -6.5v-66q-47 0 -139 2
t-139 2q-33 0 -101 -2t-104 -2v74q6 0 18 -2t19 -2q38 0 65 16z" />
    <glyph glyph-name="atilde" unicode="&#x433;" horiz-adv-x="905" 
d="M184 86q25 12 25 115v450q0 58 -21 86q-20 21 -65 21h-25q-2 0 -8 2t-8 2v65h119q140 0 337 5.5t306 7.5q8 -188 20 -287h-69q-2 14 -6.5 43.5t-11 55.5t-18 46t-30.5 27q-82 25 -291 25q0 -13 -4 -33t-4 -33v-537q0 -38 6.5 -53t35 -21.5t93.5 -6.5v-66q-47 0 -139 2
t-139 2q-33 0 -101 -2t-104 -2v74q6 0 18 -2t19 -2q38 0 65 16z" />
    <glyph glyph-name="adieresis" unicode="&#xe4;" horiz-adv-x="1061" 
d="M1016 -193h-70q-4 26 -9 65t-16.5 69t-35.5 39q-74 24 -307 24h-74q-105 0 -181 -4t-122 -20q-26 -10 -39.5 -40t-18 -68.5t-8.5 -64.5h-69q12 95 20 291q20 -4 61 -4q26 18 54 45q109 172 192 434q8 50 8 66q0 39 -20 52.5t-78 13.5h-29v69q117 17 340 74l17 -12
q27 -76 78 -210t100 -253.5t96 -225.5q6 -19 29 -53q41 0 61 4q3 -73 9 -146t12 -145zM479 651q-35 -162 -96.5 -329t-108.5 -236h95q49 0 147 2t148 2q4 4 4 16q-8 70 -76 261.5t-113 283.5z" />
    <glyph glyph-name="adieresis" unicode="&#x434;" horiz-adv-x="1061" 
d="M1016 -193h-70q-4 26 -9 65t-16.5 69t-35.5 39q-74 24 -307 24h-74q-105 0 -181 -4t-122 -20q-26 -10 -39.5 -40t-18 -68.5t-8.5 -64.5h-69q12 95 20 291q20 -4 61 -4q26 18 54 45q109 172 192 434q8 50 8 66q0 39 -20 52.5t-78 13.5h-29v69q117 17 340 74l17 -12
q27 -76 78 -210t100 -253.5t96 -225.5q6 -19 29 -53q41 0 61 4q3 -73 9 -146t12 -145zM479 651q-35 -162 -96.5 -329t-108.5 -236h95q49 0 147 2t148 2q4 4 4 16q-8 70 -76 261.5t-113 283.5z" />
    <glyph glyph-name="aring" unicode="&#xe5;" horiz-adv-x="926" 
d="M328 496h319v41q0 100 -33.5 164.5t-130.5 64.5q-83 0 -121 -65.5t-38 -155.5q0 -9 2 -25t2 -24zM807 45q-140 -70 -299 -70q-165 0 -270 78q-66 51 -103 144.5t-37 199.5q0 155 70 262q57 91 161 144t216 53q86 0 160.5 -34.5t118.5 -106t44 -174.5v-29
q-66 -48 -109.5 -75t-78.5 -27h-340q10 -108 51.5 -182t128.5 -109q60 -21 111 -21q108 0 200 66l21 -25q-12 -25 -24.5 -52t-20.5 -42z" />
    <glyph glyph-name="aring" unicode="&#x435;" horiz-adv-x="926" 
d="M328 496h319v41q0 100 -33.5 164.5t-130.5 64.5q-83 0 -121 -65.5t-38 -155.5q0 -9 2 -25t2 -24zM807 45q-140 -70 -299 -70q-165 0 -270 78q-66 51 -103 144.5t-37 199.5q0 155 70 262q57 91 161 144t216 53q86 0 160.5 -34.5t118.5 -106t44 -174.5v-29
q-66 -48 -109.5 -75t-78.5 -27h-340q10 -108 51.5 -182t128.5 -109q60 -21 111 -21q108 0 200 66l21 -25q-12 -25 -24.5 -52t-20.5 -42z" />
    <glyph glyph-name="ae" unicode="&#xe6;" horiz-adv-x="1524" 
d="M664 651q0 57 -10 78t-36 26t-90 7v69q39 0 119 -2t119 -2q41 0 122 2t120 2v-69q-63 -2 -89.5 -11.5t-32 -34t-5.5 -93.5v-160q65 63 171.5 184t127.5 144l-4 40q20 0 63 -2t64 -2q15 0 50 2t52 2v-65q-76 0 -119 -29q-52 -38 -111 -97.5t-114 -115.5l213 -278
q30 -38 62.5 -80t65.5 -66.5t73 -25.5v-74q-50 4 -148 4q-94 0 -143 -4q-50 72 -86.5 125.5t-66.5 98t-75.5 105t-74.5 93.5v-213q0 -71 5.5 -95t31.5 -31t90 -9v-74q-78 4 -242 4q-160 0 -238 -4v74q66 0 91 5.5t35 27.5t10 81v234q-54 -64 -98 -124t-119.5 -171.5
t-86.5 -126.5q-49 4 -147 4t-147 -4v74q40 1 74 25.5t66 66.5t60 80l217 278q-50 50 -86.5 87t-66.5 66t-72 60q-48 29 -123 29v65q16 0 51 -2t52 -2q20 0 64 2t67 2l-4 -40q50 -59 104.5 -123t106 -119t88.5 -90v192z" />
    <glyph glyph-name="ae" unicode="&#x436;" horiz-adv-x="1524" 
d="M664 651q0 57 -10 78t-36 26t-90 7v69q39 0 119 -2t119 -2q41 0 122 2t120 2v-69q-63 -2 -89.5 -11.5t-32 -34t-5.5 -93.5v-160q65 63 171.5 184t127.5 144l-4 40q20 0 63 -2t64 -2q15 0 50 2t52 2v-65q-76 0 -119 -29q-52 -38 -111 -97.5t-114 -115.5l213 -278
q30 -38 62.5 -80t65.5 -66.5t73 -25.5v-74q-50 4 -148 4q-94 0 -143 -4q-50 72 -86.5 125.5t-66.5 98t-75.5 105t-74.5 93.5v-213q0 -71 5.5 -95t31.5 -31t90 -9v-74q-78 4 -242 4q-160 0 -238 -4v74q66 0 91 5.5t35 27.5t10 81v234q-54 -64 -98 -124t-119.5 -171.5
t-86.5 -126.5q-49 4 -147 4t-147 -4v74q40 1 74 25.5t66 66.5t60 80l217 278q-50 50 -86.5 87t-66.5 66t-72 60q-48 29 -123 29v65q16 0 51 -2t52 -2q20 0 64 2t67 2l-4 -40q50 -59 104.5 -123t106 -119t88.5 -90v192z" />
    <glyph glyph-name="ccedilla" unicode="&#xe7;" horiz-adv-x="868" 
d="M401 -20q-57 0 -90 7t-135 42q-2 6 -6 18.5t-9.5 28t-13.5 30.5l13 21q86 -37 180 -37t170 47t76 158q0 52 -42 89.5t-130 37.5v61q81 0 124.5 48t43.5 112q0 49 -37 78t-86 29q-102 0 -146 -56.5t-47 -152.5h-65q-15 167 -29 278q79 22 159.5 33.5t147.5 11.5
q142 0 220.5 -49t78.5 -164q0 -37 -32 -76t-82.5 -68t-102.5 -40q258 -31 258 -172q0 -101 -59 -172.5t-154.5 -107t-204.5 -35.5z" />
    <glyph glyph-name="ccedilla" unicode="&#x437;" horiz-adv-x="868" 
d="M401 -20q-57 0 -90 7t-135 42q-2 6 -6 18.5t-9.5 28t-13.5 30.5l13 21q86 -37 180 -37t170 47t76 158q0 52 -42 89.5t-130 37.5v61q81 0 124.5 48t43.5 112q0 49 -37 78t-86 29q-102 0 -146 -56.5t-47 -152.5h-65q-15 167 -29 278q79 22 159.5 33.5t147.5 11.5
q142 0 220.5 -49t78.5 -164q0 -37 -32 -76t-82.5 -68t-102.5 -40q258 -31 258 -172q0 -101 -59 -172.5t-154.5 -107t-204.5 -35.5z" />
    <glyph glyph-name="egrave" unicode="&#xe8;" horiz-adv-x="1139" 
d="M750 836q191 -9 213 -9h127v-69h-29q-94 0 -94 -82v-524q0 -46 30.5 -66t67.5 -20q10 0 18 3t11 5v-74q-164 8 -217 8q-85 0 -250 -12v74h32q38 0 62 8q20 30 20 74v376l4 156l-323 -680q-55 0 -107 2t-73 2q-78 0 -160 -8v74q3 -2 10.5 -5t18.5 -3q35 0 66.5 20t31.5 66
v524q0 46 -29.5 64t-64.5 18h-29v69h139q117 0 324 9v-78q-55 -5 -75 -12.5t-28 -28t-8 -66.5v-397l-8 -78z" />
    <glyph glyph-name="egrave" unicode="&#x438;" horiz-adv-x="1139" 
d="M750 836q191 -9 213 -9h127v-69h-29q-94 0 -94 -82v-524q0 -46 30.5 -66t67.5 -20q10 0 18 3t11 5v-74q-164 8 -217 8q-85 0 -250 -12v74h32q38 0 62 8q20 30 20 74v376l4 156l-323 -680q-55 0 -107 2t-73 2q-78 0 -160 -8v74q3 -2 10.5 -5t18.5 -3q35 0 66.5 20t31.5 66
v524q0 46 -29.5 64t-64.5 18h-29v69h139q117 0 324 9v-78q-55 -5 -75 -12.5t-28 -28t-8 -66.5v-397l-8 -78z" />
    <glyph glyph-name="eacute" unicode="&#xe9;" horiz-adv-x="1139" 
d="M750 836q191 -9 213 -9h127v-69h-29q-37 0 -65.5 -18t-28.5 -64v-524q0 -46 30.5 -66t67.5 -20q10 0 18 3t11 5v-74q-164 8 -217 8q-85 0 -250 -12v74h32q38 0 62 8q20 30 20 74v376l4 156l-323 -680q-55 0 -107 2t-73 2q-78 0 -160 -8v74q3 -2 10.5 -5t18.5 -3
q35 0 66.5 20t31.5 66v524q0 50 -28.5 66t-65.5 16h-29v69h115q32 0 237 9v-582l-8 -78zM373 950l24 185h54v-9q0 -23 18.5 -43.5t48.5 -31.5t64 -11q61 0 117.5 37t78.5 107l45 -17q-28 -130 -113.5 -194t-185.5 -64q-88 0 -151 41z" />
    <glyph glyph-name="eacute" unicode="&#x439;" horiz-adv-x="1139" 
d="M750 836q191 -9 213 -9h127v-69h-29q-37 0 -65.5 -18t-28.5 -64v-524q0 -46 30.5 -66t67.5 -20q10 0 18 3t11 5v-74q-164 8 -217 8q-85 0 -250 -12v74h32q38 0 62 8q20 30 20 74v376l4 156l-323 -680q-55 0 -107 2t-73 2q-78 0 -160 -8v74q3 -2 10.5 -5t18.5 -3
q35 0 66.5 20t31.5 66v524q0 50 -28.5 66t-65.5 16h-29v69h115q32 0 237 9v-582l-8 -78zM373 950l24 185h54v-9q0 -23 18.5 -43.5t48.5 -31.5t64 -11q61 0 117.5 37t78.5 107l45 -17q-28 -130 -113.5 -194t-185.5 -64q-88 0 -151 41z" />
    <glyph glyph-name="ecircumflex" unicode="&#xea;" horiz-adv-x="1176" 
d="M442 623v-164q156 139 349 332l-5 40q26 0 74 -2t70 -2q19 0 58 2t56 2v-65q-83 0 -131 -29q-49 -31 -85.5 -62t-75.5 -66t-93 -85l242 -278q33 -38 69.5 -80t73.5 -66.5t82 -25.5v-74q-57 4 -168 4q-106 0 -159 -4q-77 97 -178 218.5t-179 203.5v-213q0 -71 5.5 -95
t31.5 -31t90 -9v-74q-77 4 -241 4q-160 0 -238 -4v74q63 0 86.5 4t32 23.5t8.5 66.5v496q0 47 -8.5 66.5t-33 24.5t-85.5 7v69q39 0 119 -2t119 -2t121 2t120 2v-69q-63 -2 -89.5 -11.5t-32 -34t-5.5 -93.5z" />
    <glyph glyph-name="ecircumflex" unicode="&#x43a;" horiz-adv-x="1176" 
d="M442 623v-164q156 139 349 332l-5 40q26 0 74 -2t70 -2q19 0 58 2t56 2v-65q-83 0 -131 -29q-49 -31 -85.5 -62t-75.5 -66t-93 -85l242 -278q33 -38 69.5 -80t73.5 -66.5t82 -25.5v-74q-57 4 -168 4q-106 0 -159 -4q-77 97 -178 218.5t-179 203.5v-213q0 -71 5.5 -95
t31.5 -31t90 -9v-74q-77 4 -241 4q-160 0 -238 -4v74q63 0 86.5 4t32 23.5t8.5 66.5v496q0 47 -8.5 66.5t-33 24.5t-85.5 7v69q39 0 119 -2t119 -2t121 2t120 2v-69q-63 -2 -89.5 -11.5t-32 -34t-5.5 -93.5z" />
    <glyph glyph-name="edieresis" unicode="&#xeb;" horiz-adv-x="1061" 
d="M233 201q38 39 66 94t47.5 115t46.5 163q8 50 8 66q0 39 -20 52.5t-78 13.5h-29v69q117 17 340 74l17 -12q27 -76 78 -210t100 -253.5t96 -225.5q23 -49 42 -61.5t69 -15.5v-66h-164q-99 0 -295 -8v74h37q29 0 51.5 7.5t22.5 24.5v4q-6 47 -42 160t-82 234t-69 168
q-89 -469 -176 -586q-73 -94 -156 -94q-40 0 -90 24q12 33 24 103.5t13 77.5h21q13 -21 45 -21t77 29z" />
    <glyph glyph-name="edieresis" unicode="&#x43b;" horiz-adv-x="1061" 
d="M233 201q38 39 66 94t47.5 115t46.5 163q8 50 8 66q0 39 -20 52.5t-78 13.5h-29v69q117 17 340 74l17 -12q27 -76 78 -210t100 -253.5t96 -225.5q23 -49 42 -61.5t69 -15.5v-66h-164q-99 0 -295 -8v74h37q29 0 51.5 7.5t22.5 24.5v4q-6 47 -42 160t-82 234t-69 168
q-89 -469 -176 -586q-73 -94 -156 -94q-40 0 -90 24q12 33 24 103.5t13 77.5h21q13 -21 45 -21t77 29z" />
    <glyph glyph-name="igrave" unicode="&#xec;" horiz-adv-x="1389" 
d="M393 0q-53 4 -160 4q-102 0 -151 -4v61q74 0 94 21q17 15 25 63t8 80v377q0 127 -21 148q-10 20 -49 20q-8 0 -24 -2t-21 -2v82q29 -1 82.5 -4t108 -5.5t84.5 -2.5h61q65 -131 107 -212.5t94.5 -175t105.5 -178.5q28 41 50.5 83.5t60 113t49.5 90.5q34 73 81 165.5
t54 108.5q24 0 77 -2t79 -2q27 0 81 2t79 2v-65q-62 0 -82 -25q-25 -24 -25 -127v-462q0 -51 31 -71t63 -20v-61h-401v70q30 0 60 18.5t30 63.5v471q-71 -123 -131 -227.5t-110 -196t-107 -207.5h-58q-29 57 -77 155.5t-69.5 143.5t-92 190t-92.5 187h-13l9 -492
q0 -70 16 -86t90 -16z" />
    <glyph glyph-name="igrave" unicode="&#x43c;" horiz-adv-x="1389" 
d="M393 0q-53 4 -160 4q-102 0 -151 -4v61q74 0 94 21q17 15 25 63t8 80v377q0 127 -21 148q-10 20 -49 20q-8 0 -24 -2t-21 -2v82q29 -1 82.5 -4t108 -5.5t84.5 -2.5h61q65 -131 107 -212.5t94.5 -175t105.5 -178.5q28 41 50.5 83.5t60 113t49.5 90.5q34 73 81 165.5
t54 108.5q24 0 77 -2t79 -2q27 0 81 2t79 2v-65q-62 0 -82 -25q-25 -24 -25 -127v-462q0 -51 31 -71t63 -20v-61h-401v70q30 0 60 18.5t30 63.5v471q-71 -123 -131 -227.5t-110 -196t-107 -207.5h-58q-29 57 -77 155.5t-69.5 143.5t-92 190t-92.5 187h-13l9 -492
q0 -70 16 -86t90 -16z" />
    <glyph glyph-name="iacute" unicode="&#xed;" horiz-adv-x="1139" 
d="M430 410v-238q0 -48 9 -67.5t34 -26t76 -8.5v-70q-51 0 -82 1t-61 1.5t-65.5 1t-82.5 0.5q-115 0 -176 -4v74q43 0 85 16.5t42 61.5v524q0 49 -40.5 65.5t-82.5 16.5v69h156q114 0 307 9v-78q-72 -7 -86 -9.5t-23.5 -18.5t-9.5 -58v-180q0 -5 94 -5q140 0 217 5v155
q0 43 -3.5 64t-14 30t-25.5 11t-71 6v73q43 0 120 -2t113 -2q94 0 234 9v-86q-42 0 -82.5 -17.5t-40.5 -60.5v-520q0 -45 40 -63.5t83 -18.5v-74q-51 0 -148 2t-143 2h-168v70q47 0 78.5 22.5t31.5 75.5v242h-315z" />
    <glyph glyph-name="iacute" unicode="&#x43d;" horiz-adv-x="1139" 
d="M430 410v-238q0 -48 9 -67.5t34 -26t76 -8.5v-70q-51 0 -82 1t-61 1.5t-65.5 1t-82.5 0.5q-115 0 -176 -4v74q43 0 85 16.5t42 61.5v524q0 49 -40.5 65.5t-82.5 16.5v69h156q114 0 307 9v-78q-72 -7 -86 -9.5t-23.5 -18.5t-9.5 -58v-180q0 -5 94 -5q140 0 217 5v155
q0 43 -3.5 64t-14 30t-25.5 11t-71 6v73q43 0 120 -2t113 -2q94 0 234 9v-86q-42 0 -82.5 -17.5t-40.5 -60.5v-520q0 -45 40 -63.5t83 -18.5v-74q-51 0 -148 2t-143 2h-168v70q47 0 78.5 22.5t31.5 75.5v242h-315z" />
    <glyph glyph-name="icircumflex" unicode="&#xee;" horiz-adv-x="1004" 
d="M102 401q0 219 117 337t318 118q143 0 237 -58.5t137 -155.5t43 -208q0 -148 -49.5 -250.5t-151 -155.5t-253.5 -53q-206 0 -302 110.5t-96 315.5zM348 467q0 -10 -2 -36t-2 -42q0 -119 40.5 -227.5t119.5 -108.5q68 0 113 44.5t66 109t26 133.5q0 10 2 49t2 62
q0 122 -45.5 222.5t-147.5 100.5q-95 0 -133.5 -91t-38.5 -216z" />
    <glyph glyph-name="icircumflex" unicode="&#x43e;" horiz-adv-x="1004" 
d="M102 401q0 219 117 337t318 118q143 0 237 -58.5t137 -155.5t43 -208q0 -148 -49.5 -250.5t-151 -155.5t-253.5 -53q-206 0 -302 110.5t-96 315.5zM348 467q0 -10 -2 -36t-2 -42q0 -119 40.5 -227.5t119.5 -108.5q68 0 113 44.5t66 109t26 133.5q0 10 2 49t2 62
q0 122 -45.5 222.5t-147.5 100.5q-95 0 -133.5 -91t-38.5 -216z" />
    <glyph glyph-name="idieresis" unicode="&#xef;" horiz-adv-x="1139" 
d="M430 659v-503q0 -48 9 -64t27 -18t83 -4v-70q-51 0 -82 1t-61 1.5t-65.5 1t-82.5 0.5q-115 0 -176 -4v74q3 -2 10.5 -5t18.5 -3q35 0 66.5 20t31.5 66v524q0 50 -28.5 66t-65.5 16h-29v69q36 0 106 -2t103 -2q50 0 149 2t142 2h196q217 0 312 9v-86h-33q-36 0 -63 -17
t-27 -61v-520q0 -46 30.5 -66t67.5 -20q7 0 14.5 1.5t10.5 2.5v-74q-51 0 -148 2t-143 2h-168v70h41q41 0 55 20t14 78v483q0 53 -17 76t-47.5 28t-90.5 7q-60 -2 -91.5 -7t-50 -26t-18.5 -70z" />
    <glyph glyph-name="idieresis" unicode="&#x43f;" horiz-adv-x="1139" 
d="M430 659v-503q0 -48 9 -64t27 -18t83 -4v-70q-51 0 -82 1t-61 1.5t-65.5 1t-82.5 0.5q-115 0 -176 -4v74q3 -2 10.5 -5t18.5 -3q35 0 66.5 20t31.5 66v524q0 50 -28.5 66t-65.5 16h-29v69q36 0 106 -2t103 -2q50 0 149 2t142 2h196q217 0 312 9v-86h-33q-36 0 -63 -17
t-27 -61v-520q0 -46 30.5 -66t67.5 -20q7 0 14.5 1.5t10.5 2.5v-74q-51 0 -148 2t-143 2h-168v70h41q41 0 55 20t14 78v483q0 53 -17 76t-47.5 28t-90.5 7q-60 -2 -91.5 -7t-50 -26t-18.5 -70z" />
    <glyph glyph-name="eth" unicode="&#xf0;" horiz-adv-x="1081" 
d="M430 -254q0 -70 9 -96.5t33.5 -33t105.5 -13.5l4 -70q-44 0 -129 2t-125 2q-41 0 -125 -2t-125 -2v70q17 2 35 3t33.5 4t29.5 13q29 14 29 139v873q0 47 -23 62.5t-104 15.5v69q155 12 336 66l24 -21q-8 -45 -8 -131q60 44 102.5 76t87.5 54t101 22h41
q135 -15 206.5 -106.5t71.5 -229.5q0 -209 -151 -348q-62 -58 -111 -95t-110 -61q-66 -16 -103 -16q-45 0 -135 24v-270zM430 184q29 -42 76.5 -64t99.5 -22q65 0 113.5 50.5t74 125t25.5 140.5q0 81 -28.5 145.5t-76.5 100.5t-104 36q-95 0 -180 -90v-422z" />
    <glyph glyph-name="eth" unicode="&#x440;" horiz-adv-x="1081" 
d="M430 -254q0 -70 9 -96.5t33.5 -33t105.5 -13.5l4 -70q-44 0 -129 2t-125 2q-41 0 -125 -2t-125 -2v70q17 2 35 3t33.5 4t29.5 13q29 14 29 139v873q0 47 -23 62.5t-104 15.5v69q155 12 336 66l24 -21q-8 -45 -8 -131q60 44 102.5 76t87.5 54t101 22h41
q135 -15 206.5 -106.5t71.5 -229.5q0 -209 -151 -348q-62 -58 -111 -95t-110 -61q-66 -16 -103 -16q-45 0 -135 24v-270zM430 184q29 -42 76.5 -64t99.5 -22q65 0 113.5 50.5t74 125t25.5 140.5q0 81 -28.5 145.5t-76.5 100.5t-104 36q-95 0 -180 -90v-422z" />
    <glyph glyph-name="ntilde" unicode="&#xf1;" horiz-adv-x="848" 
d="M766 29q-141 -54 -274 -54q-144 0 -254 70q-68 50 -106 143.5t-38 196.5q0 112 45 205q21 42 71 89t107 84t105 60q65 33 160 33q93 0 209 -37q-12 -87 -29 -278h-66q-3 98 -21 130t-102 54q-40 8 -69 8q-98 0 -144 -69q-36 -61 -36 -172q0 -83 24 -169t58 -135
q80 -98 208 -98q82 0 168 37l17 -21q-11 -21 -19 -43t-14 -34z" />
    <glyph glyph-name="ntilde" unicode="&#x441;" horiz-adv-x="848" 
d="M766 29q-141 -54 -274 -54q-144 0 -254 70q-68 50 -106 143.5t-38 196.5q0 112 45 205q21 42 71 89t107 84t105 60q65 33 160 33q93 0 209 -37q-12 -87 -29 -278h-66q-3 98 -21 130t-102 54q-40 8 -69 8q-98 0 -144 -69q-36 -61 -36 -172q0 -83 24 -169t58 -135
q80 -98 208 -98q82 0 168 37l17 -21q-11 -21 -19 -43t-14 -34z" />
    <glyph glyph-name="ograve" unicode="&#xf2;" horiz-adv-x="1118" 
d="M1032 848q6 -7 16.5 -18t12.5 -11q-22 -122 -29 -278h-65q-2 49 -3.5 81t-7 51.5t-22 35.5t-53.5 28q-11 2 -52 11.5t-67 9.5q-30 0 -51 -15t-27 -47v-540q0 -56 19.5 -71t115.5 -15v-70q-196 8 -233 8q-42 0 -117.5 -3t-128.5 -5v74q1 0 11 -2t18 -2q29 0 69 20
q16 12 20.5 24.5t4.5 41.5v540q-8 32 -31.5 47t-54.5 15q-24 0 -64.5 -10t-50.5 -11q-35 -12 -51.5 -28t-22 -35.5t-6.5 -61.5t-2 -71h-65q-20 204 -33 278q5 0 16 11t17 18q37 -3 128.5 -7.5t211.5 -4.5q19 0 55 2t55 2q21 0 59 -2t56 -2q120 0 216 4.5t136 7.5z" />
    <glyph glyph-name="ograve" unicode="&#x442;" horiz-adv-x="1118" 
d="M1032 848q6 -7 16.5 -18t12.5 -11q-22 -122 -29 -278h-65q-2 49 -3.5 81t-7 51.5t-22 35.5t-53.5 28q-11 2 -52 11.5t-67 9.5q-30 0 -51 -15t-27 -47v-540q0 -56 19.5 -71t115.5 -15v-70q-196 8 -233 8q-42 0 -117.5 -3t-128.5 -5v74q1 0 11 -2t18 -2q29 0 69 20
q16 12 20.5 24.5t4.5 41.5v540q-8 32 -31.5 47t-54.5 15q-24 0 -64.5 -10t-50.5 -11q-35 -12 -51.5 -28t-22 -35.5t-6.5 -61.5t-2 -71h-65q-20 204 -33 278q5 0 16 11t17 18q37 -3 128.5 -7.5t211.5 -4.5q19 0 55 2t55 2q21 0 59 -2t56 -2q120 0 216 4.5t136 7.5z" />
    <glyph glyph-name="oacute" unicode="&#xf3;" horiz-adv-x="1061" 
d="M102 -250h21q24 -32 57 -48.5t70 -16.5q24 0 33 4q49 7 85 46.5t55 80.5t52 123l-287 708q-24 70 -44 91t-83 24v65h160q49 0 150 2t149 2v-69q-56 0 -81 -9t-25 -36q0 -12 16 -62l168 -438l160 410q24 61 24 90q0 28 -23 36.5t-87 8.5v69q57 -4 168 -4q110 0 164 4v-69
q-14 -2 -24 -4t-22 -6t-24 -15q-26 -18 -46.5 -60.5t-51.5 -119.5l-267 -623q-72 -179 -155 -290t-209 -111q-68 0 -148 37q15 41 24 80.5t21 99.5z" />
    <glyph glyph-name="oacute" unicode="&#x443;" horiz-adv-x="1061" 
d="M102 -250h21q24 -32 57 -48.5t70 -16.5q24 0 33 4q49 7 85 46.5t55 80.5t52 123l-287 708q-24 70 -44 91t-83 24v65h160q49 0 150 2t149 2v-69q-56 0 -81 -9t-25 -36q0 -12 16 -62l168 -438l160 410q24 61 24 90q0 28 -23 36.5t-87 8.5v69q57 -4 168 -4q110 0 164 4v-69
q-14 -2 -24 -4t-22 -6t-24 -15q-26 -18 -46.5 -60.5t-51.5 -119.5l-267 -623q-72 -179 -155 -290t-209 -111q-68 0 -148 37q15 41 24 80.5t21 99.5z" />
    <glyph glyph-name="ocircumflex" unicode="&#xf4;" horiz-adv-x="1466" 
d="M872 16v-233q0 -139 25 -156q10 -6 26 -10.5t31 -5.5t28.5 -1.5t29.5 -2.5v-74h-504v74q61 2 90.5 8.5t41 30.5t11.5 80v290q-60 -41 -131 -41q-133 0 -227.5 53t-144.5 156.5t-50 249.5q0 108 44 204t128 155t193 59q110 0 188 -25v222q0 48 -8 68.5t-27 27t-59 6.5h-41
v70q98 9 173.5 25t170.5 48l25 -8q-8 -156 -8 -225v-230q65 21 184 21q109 0 192.5 -58.5t127.5 -155t44 -204.5q0 -220 -110.5 -339.5t-310.5 -119.5q-72 0 -132 41zM872 713v-566q0 -34 38 -62t110 -28q49 0 91.5 50t67.5 139t25 205q0 147 -55 235t-141 88q-52 0 -94 -16
t-42 -45zM651 713q0 29 -41.5 45t-93.5 16q-87 0 -142 -89.5t-55 -233.5q0 -111 25.5 -202.5t68 -141.5t91.5 -50q72 0 109.5 27.5t37.5 62.5v566z" />
    <glyph glyph-name="ocircumflex" unicode="&#x444;" horiz-adv-x="1466" 
d="M872 16v-233q0 -139 25 -156q10 -6 26 -10.5t31 -5.5t28.5 -1.5t29.5 -2.5v-74h-504v74q61 2 90.5 8.5t41 30.5t11.5 80v290q-60 -41 -131 -41q-133 0 -227.5 53t-144.5 156.5t-50 249.5q0 108 44 204t128 155t193 59q110 0 188 -25v222q0 48 -8 68.5t-27 27t-59 6.5h-41
v70q98 9 173.5 25t170.5 48l25 -8q-8 -156 -8 -225v-230q65 21 184 21q109 0 192.5 -58.5t127.5 -155t44 -204.5q0 -220 -110.5 -339.5t-310.5 -119.5q-72 0 -132 41zM872 713v-566q0 -34 38 -62t110 -28q49 0 91.5 50t67.5 139t25 205q0 147 -55 235t-141 88q-52 0 -94 -16
t-42 -45zM651 713q0 29 -41.5 45t-93.5 16q-87 0 -142 -89.5t-55 -233.5q0 -111 25.5 -202.5t68 -141.5t91.5 -50q72 0 109.5 27.5t37.5 62.5v566z" />
    <glyph glyph-name="otilde" unicode="&#xf5;" horiz-adv-x="946" 
d="M0 0h70v70h20q52 0 82 36q52 61 118 146.5t103 132.5l-102 172q-80 144 -123 168q-31 12 -74 12h-16v66q146 21 250 53q46 -34 79 -78.5t62 -97.5t63 -115q26 31 54 64.5t50 64.5t39.5 66t24.5 71h189v-69h-17q-36 0 -65 -25q-27 -18 -61 -56t-77.5 -90.5t-86.5 -103.5
l131 -233q35 -64 56 -98.5t54 -69.5q15 -11 26 -13t48 -7v-66q-28 0 -88 2t-88 2q-70 0 -103 -4l-176 299l-127 -180q-53 -67 -61 -119h-254z" />
    <glyph glyph-name="otilde" unicode="&#x445;" horiz-adv-x="946" 
d="M0 0h70v70h20q52 0 82 36q52 61 118 146.5t103 132.5l-102 172q-80 144 -123 168q-31 12 -74 12h-16v66q146 21 250 53q46 -34 79 -78.5t62 -97.5t63 -115q26 31 54 64.5t50 64.5t39.5 66t24.5 71h189v-69h-17q-36 0 -65 -25q-27 -18 -61 -56t-77.5 -90.5t-86.5 -103.5
l131 -233q35 -64 56 -98.5t54 -69.5q15 -11 26 -13t48 -7v-66q-28 0 -88 2t-88 2q-70 0 -103 -4l-176 299l-127 -180q-53 -67 -61 -119h-254z" />
    <glyph glyph-name="odieresis" unicode="&#xf6;" horiz-adv-x="1159" 
d="M700 82q17 0 31 27.5t14 58.5v487q0 51 -8 70.5t-23 23t-87 9.5v73q43 0 120 -2t113 -2q94 0 234 9v-86h-33q-90 0 -90 -78v-520q0 -23 15 -39t46 -19q41 0 62 4q4 -104 20 -291h-70q-4 26 -8.5 64.5t-17 68.5t-39.5 40q-46 16 -123.5 20t-183.5 4h-283q-217 0 -307 -4
v74q50 0 88.5 22.5t38.5 55.5v524q0 46 -29.5 64t-64.5 18h-29v69h156q114 0 307 9v-78q-72 -7 -85.5 -9.5t-23.5 -18.5t-10 -54v-504q0 -37 7 -63.5t18 -26.5h245z" />
    <glyph glyph-name="odieresis" unicode="&#x446;" horiz-adv-x="1159" 
d="M700 82q17 0 31 27.5t14 58.5v487q0 51 -8 70.5t-23 23t-87 9.5v73q43 0 120 -2t113 -2q94 0 234 9v-86h-33q-90 0 -90 -78v-520q0 -23 15 -39t46 -19q41 0 62 4q4 -104 20 -291h-70q-4 26 -8.5 64.5t-17 68.5t-39.5 40q-46 16 -123.5 20t-183.5 4h-283q-217 0 -307 -4
v74q50 0 88.5 22.5t38.5 55.5v524q0 46 -29.5 64t-64.5 18h-29v69h156q114 0 307 9v-78q-72 -7 -85.5 -9.5t-23.5 -18.5t-10 -54v-504q0 -37 7 -63.5t18 -26.5h245z" />
    <glyph glyph-name="divide" unicode="&#xf7;" horiz-adv-x="1139" 
d="M209 537v139q0 46 -29.5 64t-64.5 18h-29v69q28 0 129 -2t125 -2q41 0 68.5 1.5t54.5 2.5t86 4v-73q-62 -6 -78.5 -10t-24.5 -18t-8 -50v-143q0 -47 42.5 -79t92.5 -32q52 0 90.5 17t77.5 49v155q0 43 -3.5 64t-14 30t-25.5 11t-71 6v73q43 0 120 -2t113 -2q94 0 234 9
v-86h-33q-90 0 -90 -78v-520q0 -45 40 -63.5t83 -18.5v-70h-459v70h33q47 0 62 12.5t15 64.5v263q-147 -99 -278 -99q-94 0 -176 63t-82 163z" />
    <glyph glyph-name="divide" unicode="&#x447;" horiz-adv-x="1139" 
d="M209 537v139q0 46 -29.5 64t-64.5 18h-29v69q28 0 129 -2t125 -2q41 0 68.5 1.5t54.5 2.5t86 4v-73q-62 -6 -78.5 -10t-24.5 -18t-8 -50v-143q0 -47 42.5 -79t92.5 -32q52 0 90.5 17t77.5 49v155q0 43 -3.5 64t-14 30t-25.5 11t-71 6v73q43 0 120 -2t113 -2q94 0 234 9
v-86h-33q-90 0 -90 -78v-520q0 -45 40 -63.5t83 -18.5v-70h-459v70h33q47 0 62 12.5t15 64.5v263q-147 -99 -278 -99q-94 0 -176 63t-82 163z" />
    <glyph glyph-name="oslash" unicode="&#xf8;" horiz-adv-x="1602" 
d="M705 676q0 47 -29 64.5t-66 17.5h-28v69h155q116 0 307 9v-78q-69 -7 -83 -9.5t-22.5 -16.5t-8.5 -56v-516q0 -57 22.5 -75.5t75.5 -18.5q3 0 19 2t22 2t21 -2t20 -2q45 0 67.5 19t22.5 75v512q0 58 -18.5 68.5t-100.5 17.5v78q200 -9 308 -9h155v-69h-28q-91 0 -91 -82
v-524q0 -44 42 -61t85 -17v-74q-61 4 -180 4q-46 0 -141 -2t-146 -2t-84 1t-67 1.5t-74.5 1t-93.5 0.5q-127 0 -188 -4q-49 0 -154 2t-158 2q-123 0 -184 -4v74q43 0 85 16.5t42 61.5v524q0 46 -29.5 64t-64.5 18h-29v69h156q114 0 307 9v-78q-62 -6 -81 -10.5t-28.5 -22.5
t-9.5 -57v-512q0 -52 35 -71t113 -19q127 0 127 86v524z" />
    <glyph glyph-name="oslash" unicode="&#x448;" horiz-adv-x="1602" 
d="M705 676q0 47 -29 64.5t-66 17.5h-28v69h155q116 0 307 9v-78q-69 -7 -83 -9.5t-22.5 -16.5t-8.5 -56v-516q0 -57 22.5 -75.5t75.5 -18.5q3 0 19 2t22 2t21 -2t20 -2q45 0 67.5 19t22.5 75v512q0 58 -18.5 68.5t-100.5 17.5v78q200 -9 308 -9h155v-69h-28q-91 0 -91 -82
v-524q0 -44 42 -61t85 -17v-74q-61 4 -180 4q-46 0 -141 -2t-146 -2t-84 1t-67 1.5t-74.5 1t-93.5 0.5q-127 0 -188 -4q-49 0 -154 2t-158 2q-123 0 -184 -4v74q43 0 85 16.5t42 61.5v524q0 46 -29.5 64t-64.5 18h-29v69h156q114 0 307 9v-78q-62 -6 -81 -10.5t-28.5 -22.5
t-9.5 -57v-512q0 -52 35 -71t113 -19q127 0 127 86v524z" />
    <glyph glyph-name="ugrave" unicode="&#xf9;" horiz-adv-x="1618" 
d="M1372 4q-39 0 -137 -2t-150 -2q-51 0 -84 1t-67 1.5t-74.5 1t-93.5 0.5q-127 0 -188 -4q-49 0 -154 2t-158 2q-123 0 -184 -4v74q43 0 85 16.5t42 61.5v524q0 46 -29.5 64t-64.5 18h-29v69h156q114 0 307 9v-78q-62 -6 -81 -10.5t-28.5 -22.5t-9.5 -57v-512q0 -52 35 -71
t113 -19q127 0 127 86v524q0 47 -29 64.5t-66 17.5h-28v69h155q116 0 307 9v-78q-69 -7 -83 -9.5t-22.5 -16.5t-8.5 -56v-516q0 -57 22.5 -75.5t75.5 -18.5q3 0 19 2t22 2q8 0 24 -2t21 -2q45 0 65.5 18.5t20.5 75.5v512q0 58 -18.5 68.5t-100.5 17.5v78q200 -9 308 -9h155
v-69h-28q-91 0 -91 -82v-524q0 -22 16.5 -40t45.5 -18q41 0 61 4q3 -73 9 -146t12 -145h-70q-14 78 -39 137.5t-88 59.5z" />
    <glyph glyph-name="ugrave" unicode="&#x449;" horiz-adv-x="1618" 
d="M1372 4q-39 0 -137 -2t-150 -2q-51 0 -84 1t-67 1.5t-74.5 1t-93.5 0.5q-127 0 -188 -4q-49 0 -154 2t-158 2q-123 0 -184 -4v74q43 0 85 16.5t42 61.5v524q0 46 -29.5 64t-64.5 18h-29v69h156q114 0 307 9v-78q-62 -6 -81 -10.5t-28.5 -22.5t-9.5 -57v-512q0 -52 35 -71
t113 -19q127 0 127 86v524q0 47 -29 64.5t-66 17.5h-28v69h155q116 0 307 9v-78q-69 -7 -83 -9.5t-22.5 -16.5t-8.5 -56v-516q0 -57 22.5 -75.5t75.5 -18.5q3 0 19 2t22 2q8 0 24 -2t21 -2q45 0 65.5 18.5t20.5 75.5v512q0 58 -18.5 68.5t-100.5 17.5v78q200 -9 308 -9h155
v-69h-28q-91 0 -91 -82v-524q0 -22 16.5 -40t45.5 -18q41 0 61 4q3 -73 9 -146t12 -145h-70q-14 78 -39 137.5t-88 59.5z" />
    <glyph glyph-name="uacute" unicode="&#xfa;" horiz-adv-x="1217" 
d="M463 696q-8 32 -31.5 47t-54.5 15q-24 0 -64.5 -10t-50.5 -11q-35 -12 -51.5 -28t-22 -35.5t-6.5 -61.5t-2 -71h-65q-20 204 -33 278q5 0 16 11t17 18q35 -2 148.5 -7t221.5 -7.5t195 -2.5q23 0 60.5 2.5t66.5 2.5v-78h-29q-40 0 -78 -17q-20 -20 -20 -77v-177h98
q86 0 119 -4q270 -23 270 -188q0 -112 -78 -194t-196 -105q-29 -4 -90 -4q-43 0 -131 4t-131 4q-24 0 -98 -2t-99 -2v74h53q25 0 41 16q25 35 25 66v544zM836 66q110 41 110 180q0 172 -217 172h-49v-336q77 -25 102 -25q23 0 54 9z" />
    <glyph glyph-name="uacute" unicode="&#x44a;" horiz-adv-x="1217" 
d="M463 696q-8 32 -31.5 47t-54.5 15q-24 0 -64.5 -10t-50.5 -11q-35 -12 -51.5 -28t-22 -35.5t-6.5 -61.5t-2 -71h-65q-20 204 -33 278q5 0 16 11t17 18q35 -2 148.5 -7t221.5 -7.5t195 -2.5q23 0 60.5 2.5t66.5 2.5v-78h-29q-40 0 -78 -17q-20 -20 -20 -77v-177h98
q86 0 119 -4q270 -23 270 -188q0 -112 -78 -194t-196 -105q-29 -4 -90 -4q-43 0 -131 4t-131 4q-24 0 -98 -2t-99 -2v74h53q25 0 41 16q25 35 25 66v544zM836 66q110 41 110 180q0 172 -217 172h-49v-336q77 -25 102 -25q23 0 54 9z" />
    <glyph glyph-name="ucircumflex" unicode="&#xfb;" horiz-adv-x="1487" 
d="M979 70q26 1 55 1t41 7t15.5 25.5t3.5 60.5v504q0 61 -19.5 72t-95.5 14v73h213q164 0 250 4v-86q-5 1 -14 3t-23 2q-34 0 -60 -17t-26 -61v-520q0 -82 123 -82v-74q-40 0 -117 2t-113 2q-37 0 -114 -2t-119 -2v74zM209 639q0 72 -23 89t-100 17v82q156 -8 221 -8
q82 0 246 8v-82l-33 -4q-90 0 -90 -73v-181q10 0 37 2.5t53 2.5q99 0 191 -20.5t149.5 -69t57.5 -128.5q0 -116 -102.5 -197t-266.5 -81q-44 0 -131 2t-127 2q-24 0 -99 -2t-98 -2v74h49q30 0 41 16q25 29 25 70v483zM692 233q0 107 -64 144t-198 37v-336q87 -21 107 -21
q6 0 20 2t21 2q57 25 85.5 70t28.5 102z" />
    <glyph glyph-name="ucircumflex" unicode="&#x44b;" horiz-adv-x="1487" 
d="M979 70q26 1 55 1t41 7t15.5 25.5t3.5 60.5v504q0 61 -19.5 72t-95.5 14v73h213q164 0 250 4v-86q-5 1 -14 3t-23 2q-34 0 -60 -17t-26 -61v-520q0 -82 123 -82v-74q-40 0 -117 2t-113 2q-37 0 -114 -2t-119 -2v74zM209 639q0 72 -23 89t-100 17v82q156 -8 221 -8
q82 0 246 8v-82l-33 -4q-90 0 -90 -73v-181q10 0 37 2.5t53 2.5q99 0 191 -20.5t149.5 -69t57.5 -128.5q0 -116 -102.5 -197t-266.5 -81q-44 0 -131 2t-127 2q-24 0 -99 -2t-98 -2v74h49q30 0 41 16q25 29 25 70v483zM692 233q0 107 -64 144t-198 37v-336q87 -21 107 -21
q6 0 20 2t21 2q57 25 85.5 70t28.5 102z" />
    <glyph glyph-name="udieresis" unicode="&#xfc;" horiz-adv-x="967" 
d="M209 639q0 72 -23 89t-100 17v82q156 -8 221 -8q82 0 246 8v-82l-33 -4q-90 0 -90 -73v-181q10 0 37 2.5t53 2.5q99 0 191 -20.5t149.5 -69t57.5 -128.5q0 -116 -102.5 -197t-266.5 -81q-44 0 -131 2t-127 2q-24 0 -99 -2t-98 -2v74h49q30 0 41 16q25 29 25 70v483z
M692 233q0 107 -64 144t-198 37v-336q87 -21 107 -21q6 0 20 2t21 2q57 25 85.5 70t28.5 102z" />
    <glyph glyph-name="udieresis" unicode="&#x44c;" horiz-adv-x="967" 
d="M209 639q0 72 -23 89t-100 17v82q156 -8 221 -8q82 0 246 8v-82l-33 -4q-90 0 -90 -73v-181q10 0 37 2.5t53 2.5q99 0 191 -20.5t149.5 -69t57.5 -128.5q0 -116 -102.5 -197t-266.5 -81q-44 0 -131 2t-127 2q-24 0 -99 -2t-98 -2v74h49q30 0 41 16q25 29 25 70v483z
M692 233q0 107 -64 144t-198 37v-336q87 -21 107 -21q6 0 20 2t21 2q57 25 85.5 70t28.5 102z" />
    <glyph glyph-name="yacute" unicode="&#xfd;" horiz-adv-x="889" 
d="M594 414v49q0 61 -8 116.5t-25 79.5q-38 70 -143 70q-45 0 -66 -8q-85 -19 -104.5 -53t-22.5 -131h-65q-3 70 -9.5 124t-19.5 154q98 37 209 37q91 0 164 -29q50 -23 105.5 -60.5t105 -85.5t71.5 -91q45 -84 45 -205q0 -69 -17 -134t-49.5 -118t-76.5 -84
q-109 -74 -258 -74q-117 0 -270 54q-12 28 -19 47t-14 34l12 21q80 -37 168 -37q139 0 209 98q58 79 74 185q-14 -6 -38 -27t-36 -31q-30 -20 -45 -20q-30 0 -70 29q-71 55 -110 61h-4q-14 0 -36 -12t-34 -29l-24 33q16 33 69.5 90.5t81.5 69.5q26 -2 65.5 -26.5t61.5 -47.5
q29 -23 44 -35.5t26.5 -19.5t19.5 -7q5 0 16 5.5t17 7.5z" />
    <glyph glyph-name="yacute" unicode="&#x44d;" horiz-adv-x="889" 
d="M594 414v49q0 61 -8 116.5t-25 79.5q-38 70 -143 70q-45 0 -66 -8q-85 -19 -104.5 -53t-22.5 -131h-65q-3 70 -9.5 124t-19.5 154q98 37 209 37q91 0 164 -29q50 -23 105.5 -60.5t105 -85.5t71.5 -91q45 -84 45 -205q0 -69 -17 -134t-49.5 -118t-76.5 -84
q-109 -74 -258 -74q-117 0 -270 54q-12 28 -19 47t-14 34l12 21q80 -37 168 -37q139 0 209 98q58 79 74 185q-14 -6 -38 -27t-36 -31q-30 -20 -45 -20q-30 0 -70 29q-71 55 -110 61h-4q-14 0 -36 -12t-34 -29l-24 33q16 33 69.5 90.5t81.5 69.5q26 -2 65.5 -26.5t61.5 -47.5
q29 -23 44 -35.5t26.5 -19.5t19.5 -7q5 0 16 5.5t17 7.5z" />
    <glyph glyph-name="thorn" unicode="&#xfe;" horiz-adv-x="1446" 
d="M430 406v-246q0 -90 98 -90q7 0 17 2t16 2v-74q-90 4 -266 4h-213v66h24q103 0 103 94v487q0 57 -24 77t-99 26v73h217q164 0 250 4v-86h-29q-94 0 -94 -77v-181h164q12 115 67.5 198t145 127t201.5 44q32 0 98 -8q106 -10 171 -67t94.5 -147t29.5 -200q0 -223 -109 -341
t-325 -118q-115 0 -199.5 60t-130 159.5t-47.5 211.5h-160zM819 467v-70q0 -125 30 -222t109 -114q10 0 23 -2t18 -2q149 0 168 283v102q0 126 -27.5 217t-103.5 107q-32 8 -49 8q-159 0 -168 -307z" />
    <glyph glyph-name="thorn" unicode="&#x44e;" horiz-adv-x="1446" 
d="M430 406v-246q0 -90 98 -90q7 0 17 2t16 2v-74q-90 4 -266 4h-213v66h24q103 0 103 94v487q0 57 -24 77t-99 26v73h217q164 0 250 4v-86h-29q-94 0 -94 -77v-181h164q12 115 67.5 198t145 127t201.5 44q32 0 98 -8q106 -10 171 -67t94.5 -147t29.5 -200q0 -223 -109 -341
t-325 -118q-115 0 -199.5 60t-130 159.5t-47.5 211.5h-160zM819 467v-70q0 -125 30 -222t109 -114q10 0 23 -2t18 -2q149 0 168 283v102q0 126 -27.5 217t-103.5 107q-32 8 -49 8q-159 0 -168 -307z" />
    <glyph glyph-name="ydieresis" unicode="&#xff;" horiz-adv-x="1139" 
d="M1090 61v-65q-129 12 -209 12q-51 0 -137 -6t-138 -6v65q63 3 89.5 11.5t34 25.5t7.5 54v491q0 74 -4 115q-17 0 -54 2t-52 2q-92 0 -144.5 -35t-52.5 -109q0 -78 62 -126q42 -33 126 -33q9 0 29 2t29 2l16 -49q-14 -15 -27 -29.5t-29 -32t-26 -28.5l-270 -324
q-82 8 -119 8q-22 0 -68 -2t-71 -2v57q53 7 75 25t60 66l213 262q-39 0 -90.5 21.5t-91 64.5t-39.5 106q0 79 30.5 126.5t101 69t187.5 21.5q35 0 157 -4t159 -4q90 0 246 8v-65q-28 0 -64 -4t-47 -13q-21 -20 -21 -143v-270q0 -226 25 -246q16 -21 107 -21z" />
    <glyph glyph-name="ydieresis" unicode="&#x44f;" horiz-adv-x="1139" 
d="M1090 61v-65q-129 12 -209 12q-51 0 -137 -6t-138 -6v65q63 3 89.5 11.5t34 25.5t7.5 54v491q0 74 -4 115q-17 0 -54 2t-52 2q-92 0 -144.5 -35t-52.5 -109q0 -78 62 -126q42 -33 126 -33q9 0 29 2t29 2l16 -49q-14 -15 -27 -29.5t-29 -32t-26 -28.5l-270 -324
q-82 8 -119 8q-22 0 -68 -2t-71 -2v57q53 7 75 25t60 66l213 262q-39 0 -90.5 21.5t-91 64.5t-39.5 106q0 79 30.5 126.5t101 69t187.5 21.5q35 0 157 -4t159 -4q90 0 246 8v-65q-28 0 -64 -4t-47 -13q-21 -20 -21 -143v-270q0 -226 25 -246q16 -21 107 -21z" />
    <glyph glyph-name="nonbreakingspace" unicode="&#xa0;" horiz-adv-x="795" 
 />
  </font>
</defs>
</svg>
